<?xml version="1.0" standalone="no"?>
<!DOCTYPE svg PUBLIC "-//W3C//DTD SVG 1.1//EN" "http://www.w3.org/Graphics/SVG/1.1/DTD/svg11.dtd" >
<svg xmlns="http://www.w3.org/2000/svg" xmlns:xlink="http://www.w3.org/1999/xlink" version="1.1">
<metadata>
Created by FontForge 20170731 at Mon May 31 19:55:59 2021
 By Aleksey,,,
Copyright (c) 1995 ParaGraph Intl., (c) 1998 ParaType Inc., ParaType Ltd. All rights reserved.
</metadata>
<defs>
<font id="FuturaPTCond-Medium" horiz-adv-x="1024" >
  <font-face 
    font-family="Futura PT Cond Medium"
    font-weight="450"
    font-stretch="condensed"
    units-per-em="2048"
    panose-1="2 11 6 6 2 2 4 2 2 3"
    ascent="1563"
    descent="-485"
    x-height="915"
    cap-height="1366"
    bbox="-453 -512 1536 1884"
    underline-thickness="102"
    underline-position="-307"
    unicode-range="U+0020-FB02"
  />
<missing-glyph horiz-adv-x="477" 
 />
    <glyph glyph-name="afii10017.var.accented" unicode="&#x410;`" horiz-adv-x="737" 
d="M735 0h-182l-51 266h-271l-51 -266h-178l297 1366h145zM258 408h217q-79 439 -106 692q-21 -213 -111 -692zM279 1546l176 264l139 -86l-219 -235z" />
    <glyph glyph-name="afii10022.var.accented" unicode="&#x415;`" horiz-adv-x="657" 
d="M594 0h-490v1366h490v-156h-305v-434h270v-155h-270v-465h305v-156zM238 1546l176 264l139 -86l-219 -235z" />
    <glyph glyph-name="afii10026.var.accented" unicode="&#x418;`" horiz-adv-x="839" 
d="M104 0v1366h181v-559q0 -239 -39 -481q22 72 57.5 198t63.5 213l204 629h164v-1366h-180v608q0 124 37 445q-16 -56 -38 -137.5t-36 -132t-31 -101.5l-219 -682h-164zM330 1546l176 264l139 -86l-219 -235z" />
    <glyph glyph-name="afii10032.var.accented" unicode="&#x41e;`" horiz-adv-x="866" 
d="M788 682q0 -99 -3.5 -168.5t-15.5 -163.5t-41 -166t-75 -118q-84 -84 -219 -84q-137 0 -221 84q-45 46 -74 118t-41.5 164t-16 163t-3.5 167q0 101 3.5 171t15.5 164.5t41 166.5t75 118q84 84 221 84q135 0 219 -84q45 -45 74 -116.5t41.5 -164.5t16 -165t3.5 -170z
M270 649q0 -389 76 -465q32 -32 88 -32q54 0 86 32q76 76 76 465v103q0 361 -76 432q-33 33 -86 33q-55 0 -88 -33q-76 -71 -76 -432v-103zM342 1546l176 264l139 -86l-219 -235z" />
    <glyph glyph-name="afii10037.var.accented" unicode="&#x423;`" horiz-adv-x="735" 
d="M16 1366h193l84 -322q58 -228 82 -358q34 195 78 363l82 317h184l-375 -1366h-180l125 436zM276 1546l177 264l139 -86l-219 -235z" />
    <glyph glyph-name="afii10045.var.accented" unicode="&#x42b;`" horiz-adv-x="1052" 
d="M946 0h-184v1366h184v-1366zM104 1366h185v-584h20q187 0 277 -90q94 -96 94 -307q0 -215 -90 -305q-80 -80 -232 -80h-254v1366zM289 627v-471h8q32 0 50.5 1.5t47 10.5t47.5 27q52 50 52 188q0 149 -58 203q-45 41 -141 41h-6zM436 1546l176 264l140 -86l-220 -235z
" />
    <glyph glyph-name="afii10047.var.accented" unicode="&#x42d;`" horiz-adv-x="755" 
d="M78 45v191q55 -76 162 -76q82 0 133 51q58 57 83 184t25 240h-317v156h315q-2 270 -100 368q-55 55 -133 55q-93 0 -168 -84v191q84 63 203 63q148 0 241 -90q156 -152 156 -538q0 -519 -172 -686q-93 -90 -232 -90q-117 0 -196 65zM225 1546l176 264l140 -86l-219 -235z
" />
    <glyph glyph-name="afii10048.var.accented" unicode="&#x42e;`" horiz-adv-x="1222" 
d="M1145 682q0 -99 -3.5 -168.5t-15.5 -163.5t-41 -166t-75 -118q-84 -84 -219 -84q-138 0 -222 84q-78 78 -104.5 221.5t-26.5 363.5v15h-149v-666h-185v1366h185v-545h151q0 348 129 477q84 84 222 84q135 0 219 -84q45 -45 74 -116.5t41.5 -164.5t16 -165t3.5 -170z
M627 649q0 -390 75 -465q32 -32 89 -32q54 0 86 32q75 75 75 465v103q0 362 -75 432q-33 33 -86 33q-56 0 -89 -33q-75 -70 -75 -432v-103zM520 1546l176 264l140 -86l-220 -235z" />
    <glyph glyph-name="afii10049.var.accented" unicode="&#x42f;`" horiz-adv-x="729" 
d="M41 0l223 633q-81 13 -135 67q-86 83 -86 277q0 227 107 323q33 31 77.5 46.5t73.5 17.5t80 2h244v-1366h-185v623l-211 -623h-188zM440 1214h-49q-72 0 -110 -32q-60 -53 -60 -201q0 -62 14.5 -108t26 -61.5t23.5 -23.5q40 -32 127 -32h28v458zM274 1546l177 264
l139 -86l-219 -235z" />
    <glyph glyph-name="afii10023.var.accented" unicode="&#x401;`" horiz-adv-x="657" 
d="M594 0h-490v1366h490v-156h-305v-434h270v-155h-270v-465h305v-156zM238 1546l161 264l103 -67l-205 -236zM217 1593q0 -37 -25.5 -62.5t-60.5 -25.5q-38 0 -63 25.5t-25 62.5t25 62.5t63 25.5q35 0 60.5 -25.5t25.5 -62.5zM627 1593q0 -37 -25 -62.5t-63 -25.5
q-35 0 -60.5 25.5t-25.5 62.5t25.5 62.5t60.5 25.5q38 0 63 -25.5t25 -62.5z" />
    <glyph glyph-name="afii10065.var.accented" unicode="&#x430;`" horiz-adv-x="714" 
d="M618 0h-169v117q-30 -66 -66.5 -98.5t-101.5 -32.5q-45 0 -80.5 19.5t-58 48.5t-39 75t-24.5 85t-12.5 94t-5 85.5t-0.5 75.5q0 44 1 75t5.5 83t12.5 89t24.5 80t39.5 70t58.5 45.5t80.5 18.5q59 0 97.5 -30t68.5 -89v104h169v-915zM455 408v98q0 270 -109 270
q-110 0 -110 -256v-125q0 -258 110 -258q109 0 109 271zM266 1108l176 264l140 -86l-220 -235z" />
    <glyph glyph-name="afii10070.var.accented" unicode="&#x435;`" horiz-adv-x="667" 
d="M612 424h-385q0 -293 117 -293q32 0 54 17.5t32.5 46.5t14.5 56.5t4 57.5h157q-4 -120 -35 -184q-32 -67 -92.5 -103t-136.5 -36q-54 0 -97 16t-72 42t-50 65t-32.5 78t-18.5 89.5t-9 90t-2 88.5q0 47 2 86.5t8.5 90t18 90.5t32.5 80.5t49.5 67t71 43.5t95.5 17t96 -18.5
t71 -47.5t49 -74t31.5 -86.5t17 -96.5t8 -94.5t1.5 -88.5zM227 547h213q-6 110 -17 151q-26 87 -89 88q-94 0 -106 -227q-1 -8 -1 -12zM244 1108l176 264l139 -86l-219 -235z" />
    <glyph glyph-name="afii10074.var.accented" unicode="&#x438;`" horiz-adv-x="757" 
d="M96 915h168v-456q0 -49 -6 -166q10 43 51 153l189 469h164v-915h-168v455q0 81 6 161q-14 -61 -56 -167l-184 -449h-164v915zM289 1108l176 264l139 -86l-219 -235z" />
    <glyph glyph-name="afii10080.var.accented" unicode="&#x43e;`" horiz-adv-x="698" 
d="M461 393v121q0 187 -51 238q-24 24 -58 24q-33 0 -57 -24q-51 -51 -51 -238v-121q0 -174 51 -225q25 -25 57 -25q33 0 58 25q51 51 51 225zM637 457q0 -62 -3.5 -109t-14 -106t-34.5 -107.5t-61 -83.5q-68 -65 -174 -65q-108 0 -176 65q-37 35 -61 83.5t-34.5 107.5
t-14 106t-3.5 109t3.5 109.5t14 106.5t34.5 107.5t61 83.5q69 66 176 66q105 0 174 -66q37 -35 61 -83.5t34.5 -107.5t14 -106.5t3.5 -109.5zM258 1108l176 264l139 -86l-219 -235z" />
    <glyph glyph-name="afii10085.var.accented" unicode="&#x443;`" horiz-adv-x="667" 
d="M662 915l-379 -1300h-179l146 459l-244 841h193l133 -639l157 639h173zM244 1108l176 264l139 -86l-219 -235z" />
    <glyph glyph-name="afii10093.var.accented" unicode="&#x44b;`" horiz-adv-x="942" 
d="M846 0h-168v915h168v-915zM264 915v-350h29q168 0 248 -82q71 -71 71 -209q0 -141 -73 -208q-70 -66 -215 -66h-228v915h168zM264 143h41q72 0 103 29q32 32 32 102q0 74 -37 111t-118 37h-21v-279zM381 1108l176 264l139 -86l-219 -235z" />
    <glyph glyph-name="afii10095.var.accented" unicode="&#x44d;`" horiz-adv-x="608" 
d="M74 31v178q23 -27 49 -43q34 -21 82 -21q57 0 92 33q65 60 65 215h-223v152h221q-4 127 -63 186q-37 37 -94 37q-43 0 -84 -27q-23 -17 -45 -43v183q66 49 164 49q123 0 196 -76q113 -118 113 -381q0 -301 -119 -418q-41 -40 -86.5 -54.5t-105.5 -14.5q-100 0 -162 45z
M152 1108l176 264l139 -86l-219 -235z" />
    <glyph glyph-name="afii10096.var.accented" unicode="&#x44e;`" horiz-adv-x="1007" 
d="M770 393v121q0 187 -51 238q-24 24 -57 24q-34 0 -58 -24q-51 -51 -51 -238v-121q0 -172 51 -225q21 -25 58 -25q32 0 57 25q51 51 51 225zM946 457q0 -134 -21.5 -236.5t-90.5 -169.5q-70 -65 -181 -65q-107 0 -172 65q-104 104 -104 350h-113v-401h-168v915h168v-362
h117q0 212 104 311q69 66 172 66q108 0 177 -66q37 -35 61 -83.5t34.5 -107.5t13.5 -106t3 -110zM414 1108l176 264l139 -86l-219 -235z" />
    <glyph glyph-name="afii10097.var.accented" unicode="&#x44f;`" horiz-adv-x="661" 
d="M41 0l180 367q-74 15 -121 69q-51 60 -51 174q0 149 76 228q47 48 107.5 62.5t136.5 14.5h196v-915h-168v375l-170 -375h-186zM397 483v285h-37q-67 0 -100 -33q-39 -35 -39 -114q0 -75 39 -107q39 -31 102 -31h35zM240 1108l176 264l139 -86l-219 -235z" />
    <glyph glyph-name="afii10071.var.accented" unicode="&#x451;`" horiz-adv-x="667" 
d="M612 424h-385q0 -293 117 -293q32 0 54 17.5t32.5 46.5t14.5 56.5t4 57.5h157q-4 -120 -35 -184q-32 -67 -92.5 -103t-136.5 -36q-54 0 -97 16t-72 42t-50 65t-32.5 78t-18.5 89.5t-9 90t-2 88.5q0 47 2 86.5t8.5 90t18 90.5t32.5 80.5t49.5 67t71 43.5t95.5 17t96 -18.5
t71 -47.5t49 -74t31.5 -86.5t17 -96.5t8 -94.5t1.5 -88.5zM227 547h213q-6 110 -17 151q-26 87 -89 88q-94 0 -106 -227q-1 -8 -1 -12zM229 1108l164 264l103 -69l-207 -236zM225 1174q0 -34 -23.5 -58t-58.5 -24q-34 0 -58 24t-24 58t24 57.5t58 23.5q35 0 58.5 -23.5
t23.5 -57.5zM612 1174q0 -34 -24 -58t-58 -24q-35 0 -58 24t-23 58t23 57.5t58 23.5q34 0 58 -23.5t24 -57.5z" />
    <glyph glyph-name="fi" unicode="fi" horiz-adv-x="763" 
d="M436 1491v-178q-42 22 -71 22q-26 0 -42 -8.5t-23.5 -27t-9.5 -34t-3 -42.5q0 -11 -1 -34t-1 -34v-240h143v-135h-143v-780h-168v780h-86v135h86v316q0 51 3.5 88t16 76.5t34 64t60 40.5t91.5 16q50 0 114 -25zM690 1190q0 -46 -33.5 -80.5t-78.5 -34.5q-47 0 -81 34
t-34 81t34 81t81 34q45 0 78.5 -34.5t33.5 -80.5zM668 0h-168v915h168v-915z" />
    <glyph glyph-name="fl" unicode="fl" horiz-adv-x="763" 
d="M436 1491v-178q-42 22 -71 22q-26 0 -42 -8.5t-23.5 -27t-9.5 -34t-3 -42.5q0 -11 -1 -34t-1 -34v-240h143v-135h-143v-780h-168v780h-86v135h86v316q0 51 3.5 88t16 76.5t34 64t60 40.5t91.5 16q50 0 114 -25zM668 0h-168v1493h168v-1493z" />
    <glyph glyph-name=".notdef" horiz-adv-x="477" 
 />
    <glyph glyph-name=".null" horiz-adv-x="0" 
 />
    <glyph glyph-name="nonmarkingreturn" horiz-adv-x="682" 
 />
    <glyph glyph-name="space" unicode=" " horiz-adv-x="477" 
 />
    <glyph glyph-name="exclam" unicode="!" horiz-adv-x="503" 
d="M342 369h-178v997h178v-997zM360 96q0 -46 -31 -78t-77 -32q-44 0 -76.5 33t-32.5 77t32.5 76.5t76.5 32.5t76 -32.5t32 -76.5z" />
    <glyph glyph-name="quotedbl" unicode="&#x22;" horiz-adv-x="700" 
d="M594 1366l-29 -549h-125l-28 549h182zM289 1366l-31 -549h-123l-31 549h185z" />
    <glyph glyph-name="numbersign" unicode="#" horiz-adv-x="1228" 
d="M1190 977l-23 -152h-219l-39 -258h221l-22 -151h-223l-64 -416h-172l64 416h-260l-64 -416h-170l64 416h-226l25 151h225l39 258h-225l24 152h224l61 389h170l-61 -389h260l61 389h172l-61 -389h219zM776 825h-260l-39 -258h260z" />
    <glyph glyph-name="dollar" unicode="$" horiz-adv-x="778" 
d="M694 1178l-141 -68q-32 127 -158 127q-78 0 -114.5 -53.5t-36.5 -134.5q0 -86 39 -140q28 -40 82.5 -80t105.5 -68t105.5 -72t82.5 -91q50 -85 50 -219q0 -170 -68 -277q-18 -29 -40 -50t-50 -33.5t-47.5 -18.5t-52.5 -14v-172h-123v172q-98 14 -153 60.5t-93 152.5
l149 71q23 -65 57 -92.5t101 -27.5q146 0 146 204q0 98 -43 154q-26 33 -132 100q-64 40 -102.5 68t-78 66.5t-60.5 77.5t-34 92.5t-13 119.5q0 140 66.5 240t189.5 110v156h123v-156q93 -11 153.5 -58.5t89.5 -145.5z" />
    <glyph glyph-name="percent" unicode="%" horiz-adv-x="1054" 
d="M457 1018q0 -55 -3.5 -97.5t-15.5 -91t-33 -80.5t-58.5 -53.5t-88.5 -21.5q-43 0 -75.5 14t-52.5 41t-33.5 58t-20 73.5t-8.5 77.5t-2 80q0 49 2 85.5t8.5 80.5t20 75.5t33.5 59t52.5 41.5t75.5 14q51 0 88.5 -21.5t58.5 -54t33 -82.5t15.5 -95t3.5 -103zM336 975v100
q0 189 -74 189t-74 -168v-133q0 -179 74 -179t74 191zM874 1366l-595 -1366h-113l596 1366h112zM989 334q0 -55 -3.5 -97.5t-15.5 -91t-32.5 -80.5t-58 -53.5t-88.5 -21.5t-87.5 21.5t-56.5 53.5t-31.5 81.5t-14.5 91t-3 96.5q0 59 3 102.5t14.5 94.5t31.5 83t56.5 54
t87.5 22t88.5 -21.5t58 -54t32.5 -82.5t15.5 -94.5t3.5 -103.5zM868 291v100q0 189 -73 189q-74 0 -74 -168v-133q0 -179 74 -179q73 0 73 191z" />
    <glyph glyph-name="ampersand" unicode="&#x26;" horiz-adv-x="913" 
d="M872 0h-182l-63 106q-43 -46 -95 -77q-59 -37 -139 -37q-128 0 -209 84q-48 50 -75 123t-27 155q0 115 68 224q50 81 139 159q-49 70 -82 162q-33 101 -33 193q0 131 76 213q71 77 184 77q109 0 180 -71q72 -77 72 -201q0 -117 -59 -223q-57 -100 -152 -176l189 -346
q61 72 112 159l90 -123q-60 -97 -127 -170zM408 836q68 65 102 145q29 71 29 133q0 69 -31 103q-23 26 -66 26q-42 0 -69 -31q-39 -42 -39 -122q0 -58 20 -123q17 -65 54 -131zM551 231l-191 367q-106 -98 -106 -244q0 -85 39 -143q46 -66 117 -66q76 0 141 86z" />
    <glyph glyph-name="quotesingle" unicode="'" horiz-adv-x="393" 
d="M289 1366l-31 -549h-123l-31 549h185z" />
    <glyph glyph-name="parenleft" unicode="(" horiz-adv-x="544" 
d="M463 -350l-178 -47q-181 521 -181 944q0 472 181 969l178 -43q-168 -540 -168 -900q0 -381 168 -923z" />
    <glyph glyph-name="parenright" unicode=")" horiz-adv-x="542" 
d="M260 -397l-178 47q168 542 168 923q0 360 -168 900l178 43q180 -495 180 -969q0 -426 -180 -944z" />
    <glyph glyph-name="asterisk" unicode="*" horiz-adv-x="792" 
d="M694 1235l-219 -53l148 -183l-97 -65l-123 190l-131 -194l-92 63l144 185l-226 57l37 111l215 -78l-8 225h115l-6 -227l206 82z" />
    <glyph glyph-name="plus" unicode="+" 
d="M956 606h-360v-344h-168v344h-360v156h360v344h168v-344h360v-156z" />
    <glyph glyph-name="comma" unicode="," horiz-adv-x="368" 
d="M281 147l-160 -440l-94 27l106 456z" />
    <glyph glyph-name="hyphen" unicode="-" horiz-adv-x="522" 
d="M420 604v-160h-318v160h318z" />
    <glyph glyph-name="period" unicode="." horiz-adv-x="382" 
d="M301 96q0 -46 -32.5 -78t-78.5 -32q-44 0 -76 33t-32 77t32 76.5t76 32.5t77.5 -32.5t33.5 -76.5z" />
    <glyph glyph-name="slash" unicode="/" horiz-adv-x="813" 
d="M840 1493l-811 -1868h-146l813 1868h144z" />
    <glyph glyph-name="zero" unicode="0" horiz-adv-x="778" 
d="M698 743v-33q0 -91 -1 -144.5t-6.5 -138.5t-20 -153.5t-37.5 -121.5q-73 -168 -244 -168q-49 0 -90.5 16t-71.5 41t-53.5 65.5t-39 78.5t-26 92t-16 94.5t-8.5 97t-3.5 88.5t-0.5 80q0 216 6 295q38 449 303 450q49 0 90.5 -15.5t71 -39.5t53 -63.5t39 -77t26.5 -89.5
t16.5 -92t8.5 -95t3.5 -87.5t0.5 -79.5zM510 680q0 133 -4 201q-4 172 -28 246q-31 91 -91 92q-111 0 -119 -329v-9q-4 -68 -4 -201q0 -141 4 -211q5 -189 39 -263q30 -63 80 -63q27 0 48 17t33.5 52t20 62.5t11.5 77t4.5 64.5t1.5 53q4 70 4 211z" />
    <glyph glyph-name="one" unicode="1" horiz-adv-x="778" 
d="M487 0h-176v1208h-135v158h311v-1366z" />
    <glyph glyph-name="two" unicode="2" horiz-adv-x="778" 
d="M100 922v53q0 62 3.5 108t14 96t31.5 84t53 62.5t82 42.5t115 14q297 0 297 -333q0 -235 -225 -652q-116 -215 -127 -239h338v-158h-600q37 86 192 403q10 20 36.5 74.5t39 80t35 74t36 81t30 75.5t28.5 82q33 108 33 185q0 31 -6 59t-19 53.5t-37 40.5t-57 15
q-25 0 -44.5 -10t-32 -24t-20.5 -38.5t-12 -44.5t-5 -51t-1 -48.5t1.5 -47t1.5 -37.5h-181z" />
    <glyph glyph-name="three" unicode="3" horiz-adv-x="778" 
d="M115 999v33q0 63 6 111.5t23.5 95t47 77t78.5 48.5t115 18q84 0 142 -26t89.5 -76t44.5 -111t13 -143q0 -174 -49 -248q-31 -45 -103 -73q87 -28 125 -91q43 -75 43 -231q0 -91 -14.5 -159t-49.5 -124.5t-100 -86t-159 -29.5q-145 0 -212 87t-67 236q0 23 2 35h172
q0 -7 -1 -21.5t-1 -21.5q0 -62 28.5 -108t86.5 -46q27 0 48 10t34 24t22.5 38.5t14 43.5t7 49.5t3 46.5t0.5 44q0 40 -3 70.5t-13 63t-27.5 53t-48 34t-72.5 13.5q-15 0 -47 -4v160q70 0 110.5 10t63 39t29 68t6.5 110q0 205 -109 205q-25 0 -44 -9t-30 -28.5t-17.5 -37
t-9 -47t-3 -44.5t-0.5 -45v-13h-174z" />
    <glyph glyph-name="four" unicode="4" horiz-adv-x="778" 
d="M698 346h-86v-346h-172v346h-372v156l372 864h172v-881h86v-139zM440 485v566l-239 -566h239z" />
    <glyph glyph-name="five" unicode="5" horiz-adv-x="778" 
d="M375 1206l-45 -342q356 0 356 -391q0 -76 -12 -144t-40 -132t-70.5 -110.5t-107.5 -74.5t-147 -28q-58 0 -105 13.5t-112 43.5l45 162q90 -49 160 -49q55 0 95 29.5t60.5 77.5t30 97t9.5 99q0 262 -226 262q-47 0 -110 -17l77 664h435v-160h-293z" />
    <glyph glyph-name="six" unicode="6" horiz-adv-x="778" 
d="M373 1366h194q-28 -60 -127 -264q-62 -129 -139 -324q39 32 71.5 47t76.5 15q62 0 111 -33t77 -90q45 -90 45 -314q0 -71 -5 -124.5t-22.5 -112t-48 -96t-84.5 -62t-129 -24.5q-57 0 -102.5 15t-76 39.5t-53 62.5t-35 76t-19.5 89t-9 91.5t-2 93.5q0 104 15 205t36 179.5
t62.5 179.5t73.5 169t90 182zM506 408q0 138 -25 202q-14 33 -34.5 47.5t-55.5 14.5q-65 0 -88 -62q-27 -72 -27 -198q0 -269 115 -269t115 265z" />
    <glyph glyph-name="seven" unicode="7" horiz-adv-x="778" 
d="M713 1366l-414 -1366h-197l379 1210h-379v156h611z" />
    <glyph glyph-name="eight" unicode="8" horiz-adv-x="778" 
d="M684 383q0 -66 -7 -120t-27 -107.5t-52 -90t-85.5 -59t-123.5 -22.5q-74 0 -128.5 24.5t-86 63t-50 96.5t-24.5 113t-6 125q0 182 58 266q35 48 104 69q-40 16 -63.5 34.5t-42.5 53.5q-44 79 -44 218q0 177 78 266q37 41 90.5 55t124.5 14q79 0 134 -25.5t84.5 -73
t42 -105.5t12.5 -134q0 -138 -43 -215q-19 -35 -42.5 -53.5t-62.5 -34.5q38 -13 60.5 -27.5t42.5 -41.5q26 -36 39.5 -92.5t15.5 -94.5t2 -102zM489 1032q0 191 -100 191t-100 -191q0 -32 3.5 -62t12.5 -67t30.5 -59.5t53.5 -22.5q100 0 100 211zM502 401q0 33 -1 56t-7 61
t-17 62t-33.5 42.5t-54.5 18.5q-21 0 -38.5 -7t-29 -23.5t-20 -30.5t-13 -41t-7.5 -41t-4 -45.5t-1 -38.5v-35q0 -234 113 -234q23 0 41.5 10t30.5 24t20 38t12 42.5t6.5 48t2.5 44.5v41v8z" />
    <glyph glyph-name="nine" unicode="9" horiz-adv-x="778" 
d="M399 0h-196q29 61 87 178t102.5 212t80.5 183q-36 -29 -66.5 -42t-72.5 -13q-115 0 -180 100q-58 92 -58 306q0 52 2 92t9 90.5t19 87t34 74t52 61t75 38.5t102 15t102 -15.5t75 -39.5t52 -62.5t34 -76.5t19 -89t9 -91.5t2 -92.5q0 -196 -47.5 -360.5t-147.5 -372.5
q-72 -152 -88 -182zM502 952q0 30 -0.5 48.5t-3.5 54t-10.5 59.5t-19.5 49t-33 38t-48 13q-24 0 -42.5 -11t-30.5 -27t-20.5 -42.5t-12.5 -47.5t-6.5 -53.5t-2.5 -48v-42.5v-8q0 -28 1 -47.5t4 -52.5t10.5 -56.5t19.5 -47t32.5 -36t47.5 -12.5q28 0 48.5 12.5t32.5 37.5
t19.5 48t10.5 59t3.5 55t0.5 50v8z" />
    <glyph glyph-name="colon" unicode=":" horiz-adv-x="382" 
d="M301 819q0 -44 -33 -76t-78 -32q-44 0 -76 32t-32 76t32 76.5t76 32.5t77.5 -32.5t33.5 -76.5zM301 96q0 -46 -32.5 -78t-78.5 -32q-44 0 -76 33t-32 77t32 76.5t76 32.5t77.5 -32.5t33.5 -76.5z" />
    <glyph glyph-name="semicolon" unicode=";" horiz-adv-x="368" 
d="M291 819q0 -45 -32.5 -76.5t-78.5 -31.5t-77 31t-31 77t31 77.5t77 31.5t78.5 -31.5t32.5 -77.5zM281 147l-160 -440l-94 27l106 456z" />
    <glyph glyph-name="less" unicode="&#x3c;" 
d="M956 184l-888 422v144l888 421v-167l-710 -326l708 -328z" />
    <glyph glyph-name="equal" unicode="=" 
d="M956 784h-888v148h888v-148zM956 467h-888v147h888v-147z" />
    <glyph glyph-name="greater" unicode="&#x3e;" 
d="M956 604l-888 -420v166l710 328l-708 328l-2 165l888 -421v-146z" />
    <glyph glyph-name="question" unicode="?" horiz-adv-x="673" 
d="M82 1028v51q0 75 10.5 127.5t38 94t78 61.5t127.5 20q51 0 91 -13t66.5 -33.5t45.5 -54t29 -64.5t15.5 -76.5t7 -79.5t1.5 -82q0 -115 -12 -188q-13 -88 -52 -133.5t-125 -49.5v-239h-159v360q6 0 19.5 -1t19.5 -1q37 0 63.5 11.5t41 28.5t23 45t11 53t2.5 59q0 15 -1 43
t-1 41q0 225 -98 225q-80 0 -80 -146q0 -12 1 -32t1 -27h-164zM432 96q0 -46 -32 -78t-78 -32q-44 0 -76.5 33t-32.5 77t32.5 76.5t76.5 32.5t77 -32.5t33 -76.5z" />
    <glyph glyph-name="at" unicode="@" horiz-adv-x="1501" 
d="M1217 172l32 -106q-208 -93 -452 -93q-206 0 -371.5 87t-261.5 248t-96 368q0 148 55.5 279.5t150.5 225.5t227 148.5t279 54.5q131 0 249 -43.5t206 -121t140 -191.5t52 -248q0 -100 -30 -192q-17 -52 -44.5 -101t-65.5 -92t-89 -69.5t-106 -26.5q-61 0 -103 35.5
t-49 95.5q-43 -65 -110 -103t-144 -38q-131 0 -209 97t-78 230q0 102 43 196t126.5 156t187.5 62q159 0 223 -145l22 121h121l-84 -424q-12 -62 -12 -93q0 -37 18 -63.5t54 -26.5q67 0 119.5 69.5t76.5 149.5q25 80 25 160q0 149 -72.5 263.5t-193.5 174.5t-269 60
q-166 0 -304 -79.5t-217 -217.5t-79 -305q0 -117 42.5 -227.5t121.5 -192.5q165 -170 447 -170q230 0 422 88zM938 717q0 82 -44 136t-124 54q-104 0 -171 -89t-67 -197q0 -87 48 -149t133 -62q56 0 100.5 29t71 75.5t40 99t13.5 103.5z" />
    <glyph glyph-name="A" unicode="A" horiz-adv-x="737" 
d="M735 0h-182l-51 266h-271l-51 -266h-178l297 1366h145zM258 408h217q-79 439 -106 692q-21 -213 -111 -692z" />
    <glyph glyph-name="B" unicode="B" horiz-adv-x="745" 
d="M104 1366h250q67 0 118.5 -19t84 -51t53 -79t29 -99.5t8.5 -116.5q0 -145 -51 -223q-22 -33 -49.5 -51t-71.5 -33q83 -31 121 -71q72 -77 72 -248q0 -178 -74.5 -276.5t-247.5 -98.5h-242v1366zM279 764h12q46 0 79 12.5t52 32t30 52t14 64t3 76.5q0 43 -7.5 79t-24.5 68
t-49.5 50.5t-78.5 18.5h-30v-453zM279 618v-460q79 0 114 16q84 39 84 207q0 124 -40 180.5t-158 56.5z" />
    <glyph glyph-name="C" unicode="C" horiz-adv-x="690" 
d="M641 188v-168q-40 -24 -69.5 -31t-79.5 -7q-414 0 -414 677q0 70 3 129.5t13 136.5t27 138t48 123.5t73 104t104.5 67.5t140.5 26q47 0 79.5 -9t74.5 -32v-165q-63 34 -119 34q-40 0 -73.5 -13.5t-58 -34t-43.5 -55t-31.5 -66t-21 -76.5t-13 -78.5t-6.5 -80.5t-2.5 -72.5
t-0.5 -65.5q0 -47 1.5 -85t7.5 -93t16 -97.5t29.5 -88t46 -75.5t67.5 -49.5t92 -19.5q56 0 109 26z" />
    <glyph glyph-name="D" unicode="D" horiz-adv-x="841" 
d="M104 1366h228q109 0 178.5 -25t130.5 -100q42 -51 69 -122t37.5 -157.5t13.5 -147.5t3 -150q0 -83 -3.5 -144t-15 -144.5t-40 -151.5t-72.5 -115q-64 -68 -157.5 -88.5t-221.5 -20.5h-150v1366zM289 160h8q126 0 182.5 57t77.5 186q14 98 14 254q0 161 -12 267
q-8 67 -21.5 112.5t-40 88.5t-73 64t-113.5 21h-22v-1050z" />
    <glyph glyph-name="E" unicode="E" horiz-adv-x="657" 
d="M594 0h-490v1366h490v-156h-305v-434h270v-155h-270v-465h305v-156z" />
    <glyph glyph-name="F" unicode="F" horiz-adv-x="632" 
d="M596 1210h-307v-432h278v-155h-278v-623h-185v1366h492v-156z" />
    <glyph glyph-name="G" unicode="G" horiz-adv-x="843" 
d="M766 719v-53q0 -112 -1 -162.5t-10 -142t-28 -158.5q-62 -221 -289 -221q-68 0 -121.5 19t-89.5 51t-62 80t-41 99.5t-26 116.5q-20 136 -20 328q0 317 49 483q68 223 303 223q139 0 213 -68.5t115 -209.5l-172 -72q-7 34 -12.5 56t-17.5 49.5t-27.5 44t-41.5 28
t-59 11.5q-41 0 -65.5 -16.5t-45.5 -55.5q-49 -91 -49 -467q0 -241 25 -375q14 -74 44 -113.5t97 -39.5q37 0 65 14.5t44.5 42t27 55.5t15 68.5t5.5 66t1 62.5v100h-160v156h334z" />
    <glyph glyph-name="H" unicode="H" horiz-adv-x="847" 
d="M743 0h-184v676h-270v-676h-185v1366h185v-535h270v535h184v-1366z" />
    <glyph glyph-name="I" unicode="I" horiz-adv-x="395" 
d="M289 0h-185v1366h185v-1366z" />
    <glyph glyph-name="J" unicode="J" horiz-adv-x="530" 
d="M424 1366v-1061q0 -102 -21 -164q-28 -80 -94 -119.5t-155 -39.5q-93 0 -158 36v185q28 -16 41 -23.5t37 -15.5t45 -8q29 0 51 8t34.5 25.5t20.5 33.5t11 45t3.5 45.5t0.5 47.5v8v997h184z" />
    <glyph glyph-name="K" unicode="K" horiz-adv-x="761" 
d="M752 0h-207l-256 670v-670h-185v1366h185v-627l256 627h186l-276 -661z" />
    <glyph glyph-name="L" unicode="L" horiz-adv-x="600" 
d="M590 0h-486v1366h185v-1210h301v-156z" />
    <glyph glyph-name="M" unicode="M" horiz-adv-x="1032" 
d="M987 0h-178q-33 511 -35 567q-1 31 -4 92t-4 91q-1 35 0 63t-0.5 63.5t-5.5 63.5q-22 -141 -49.5 -292.5t-68 -356.5t-56.5 -291h-123q-9 44 -48 223t-54.5 256t-39.5 213t-38 248l-54 -940h-172l113 1366h158l118 -557q3 -17 11.5 -49t11.5 -49q30 -169 51 -332
q2 29 7 61.5t13 71t11 59.5q4 25 11 75.5t11 74.5q3 16 10.5 47.5t10.5 48.5l106 549h160z" />
    <glyph glyph-name="N" unicode="N" horiz-adv-x="845" 
d="M741 0h-172q-163 483 -225 678q-39 119 -51 168q-6 26 -20.5 96.5t-24.5 108.5q7 -46 16 -207q15 -257 23 -844h-183v1366h172q9 -25 67.5 -195.5t76.5 -226.5t60 -186t69 -229t51 -201q-43 322 -43 520v518h184v-1366z" />
    <glyph glyph-name="O" unicode="O" horiz-adv-x="866" 
d="M788 657q0 -189 -20 -321q-13 -82 -34.5 -141.5t-58.5 -110t-97 -76.5t-142 -26q-190 0 -274 153q-84 152 -84 580q0 103 3.5 173t20.5 166t50 163q42 87 110.5 126t169.5 39q182 0 268 -145q39 -67 60 -183t24.5 -199t3.5 -198zM596 709q0 255 -29 378q-28 130 -135 130
q-66 0 -106 -58q-56 -79 -56 -397v-70v-76.5t1 -68.5t3 -76.5t5.5 -67.5t9.5 -73q6 -37 14.5 -64.5t24.5 -55.5t43 -43t63 -15q89 0 127 98q35 98 35 459z" />
    <glyph glyph-name="P" unicode="P" horiz-adv-x="718" 
d="M104 1366h242q68 0 111.5 -7.5t89.5 -35.5q135 -81 135 -338q0 -223 -119 -317q-52 -40 -117 -51t-157 -11v-606h-185v1366zM289 764h16q106 0 145 53.5t39 163.5q0 50 -7.5 88.5t-26.5 71.5t-54.5 51t-87.5 18h-24v-446z" />
    <glyph glyph-name="Q" unicode="Q" horiz-adv-x="866" 
d="M827 -20l-116 -84l-95 135q-47 -29 -83.5 -39t-92.5 -10q-190 0 -276 155q-86 154 -86 602q0 76 1 118t7.5 119.5t19 124.5t38 107t62 93t93 57t129.5 24q188 0 268 -141q31 -54 51 -128.5t28 -163t10.5 -151t2.5 -147.5q0 -109 -2.5 -177t-21 -169.5t-53.5 -165.5z
M502 434l76 -108q18 119 18 321v53.5v58.5t-0.5 53.5t-2 59t-3.5 53.5t-5.5 58t-8.5 52t-11 55q-15 61 -46 92.5t-91 31.5q-29 0 -53 -11.5t-39.5 -31.5t-28 -46.5t-19 -57t-11 -63t-5.5 -64t-2 -61t0 -52.5v-22q0 -19 -0.5 -113t0 -131.5t5 -106.5t14.5 -124
q6 -36 14.5 -63.5t24.5 -55t43 -42.5t63 -15q41 0 74 24l-117 168z" />
    <glyph glyph-name="R" unicode="R" horiz-adv-x="763" 
d="M727 0h-188l-250 637v-637h-185v1366h244q67 0 112 -9.5t87 -41.5q117 -89 117 -305q0 -55 -9 -106t-29 -102t-61 -88t-98 -50zM289 1214v-454q94 0 133 33q63 53 63 184q0 119 -36 180q-21 35 -52 46t-78 11h-30z" />
    <glyph glyph-name="S" unicode="S" horiz-adv-x="675" 
d="M561 1337l-2 -180q-80 62 -149 62q-75 0 -120.5 -53t-45.5 -130q0 -51 21 -97.5t54.5 -84.5t74.5 -77t81.5 -82.5t74 -92t54.5 -115t21 -143.5q0 -150 -85.5 -256t-232.5 -106q-117 0 -201 65v182q95 -71 179 -71q78 0 119.5 53t41.5 133q0 57 -21 107.5t-55 89.5
t-74.5 77.5t-81.5 80t-75 88t-55 110t-21 137.5q0 154 79.5 251t230.5 97q57 0 97 -9.5t91 -35.5z" />
    <glyph glyph-name="T" unicode="T" horiz-adv-x="589" 
d="M594 1204h-209v-1204h-180v1204h-209v162h598v-162z" />
    <glyph glyph-name="U" unicode="U" horiz-adv-x="837" 
d="M733 1366v-1004q0 -96 -12.5 -160.5t-46 -117t-97.5 -77.5t-161 -25q-91 0 -153.5 27t-96.5 79t-48 116.5t-14 151.5v1010h181v-1004q0 -36 1.5 -60.5t9.5 -54.5t22 -48t40.5 -30.5t63.5 -12.5q27 0 48.5 6.5t35 15t23 25.5t14.5 30.5t7 38t2.5 39t0.5 42.5v9v1004h180z
" />
    <glyph glyph-name="V" unicode="V" horiz-adv-x="669" 
d="M674 1366l-268 -1366h-146l-264 1366h182q85 -519 125 -795q27 -177 33 -233q2 45 31 221q5 30 21 137.5t26 165.5l88 504h172z" />
    <glyph glyph-name="W" unicode="W" horiz-adv-x="1073" 
d="M1071 1366l-242 -1366h-143q-13 79 -35.5 218.5t-41 255.5t-34.5 218q-3 23 -10 69t-10 68q-4 27 -7 58t-6 68.5t-5 58.5q-7 -114 -17 -191q-30 -224 -133 -823h-147l-238 1366h178q11 -71 35.5 -227.5t42 -274.5t31.5 -227q7 -57 16 -161.5t12 -137.5q11 121 30.5 264.5
t35.5 244.5t44.5 269t41.5 250h141q8 -47 40 -241.5t45 -278t33 -231t32 -267.5q4 68 20 199q15 123 33 252.5t45 315t37 251.5h176z" />
    <glyph glyph-name="X" unicode="X" horiz-adv-x="679" 
d="M684 0h-184q-14 42 -43 123t-47 132t-38 122t-32 133q-7 -65 -55 -211q-57 -183 -95 -299h-194l260 694l-244 672h178q10 -28 42 -112t52 -138t41 -125.5t27 -118.5q17 76 40 154.5t59 188.5t49 151h184l-252 -672z" />
    <glyph glyph-name="Y" unicode="Y" horiz-adv-x="698" 
d="M702 1366l-237 -778v-588h-184v588l-285 778h194l111 -367q49 -158 68 -266q23 138 53 271l90 362h190z" />
    <glyph glyph-name="Z" unicode="Z" horiz-adv-x="684" 
d="M674 1366l-412 -1204h389v-162h-628l413 1210h-364v156h602z" />
    <glyph glyph-name="bracketleft" unicode="[" horiz-adv-x="638" 
d="M571 -375h-434v1868h434v-156h-249v-1556h249v-156z" />
    <glyph glyph-name="backslash" unicode="\" horiz-adv-x="813" 
d="M-27 1493h144l813 -1868h-146z" />
    <glyph glyph-name="bracketright" unicode="]" horiz-adv-x="638" 
d="M68 -375v156h249v1556h-249v156h434v-1868h-434z" />
    <glyph glyph-name="asciicircum" unicode="^" 
d="M979 733h-180l-289 500l-285 -500h-180l356 633h222z" />
    <glyph glyph-name="underscore" unicode="_" 
d="M1024 -274h-1024v143h1024v-143z" />
    <glyph glyph-name="grave" unicode="`" 
d="M602 1108l-96 -57l-219 235l139 86z" />
    <glyph glyph-name="a" unicode="a" horiz-adv-x="714" 
d="M618 0h-169v117q-30 -66 -66.5 -98.5t-101.5 -32.5q-45 0 -80.5 19.5t-58 48.5t-39 75t-24.5 85t-12.5 94t-5 85.5t-0.5 75.5q0 44 1 75t5.5 83t12.5 89t24.5 80t39.5 70t58.5 45.5t80.5 18.5q59 0 97.5 -30t68.5 -89v104h169v-915zM455 408v98q0 270 -109 270
q-110 0 -110 -256v-125q0 -258 110 -258q109 0 109 271z" />
    <glyph glyph-name="b" unicode="b" horiz-adv-x="714" 
d="M264 1493v-682q33 61 69 90t97 29q45 0 80.5 -18t58.5 -45t39.5 -70t25 -80.5t13 -89t5.5 -83t1 -75.5q0 -45 -0.5 -75.5t-5 -86t-12.5 -93.5t-24 -84.5t-38.5 -75t-58 -48.5t-80.5 -20q-66 0 -102.5 32t-67.5 99v-117h-168v1493h168zM477 395v125q0 256 -110 256
q-107 0 -107 -258v-123q0 -258 107 -258q110 0 110 258z" />
    <glyph glyph-name="c" unicode="c" horiz-adv-x="518" 
d="M469 180v-157q-36 -22 -64.5 -29.5t-70.5 -7.5q-273 0 -273 467q0 47 2 86.5t8.5 90.5t18 91t32.5 80.5t49.5 67.5t71 44t95.5 17q69 0 131 -33v-172q-34 43 -84 43q-28 0 -50.5 -12.5t-37 -30.5t-24.5 -47t-15.5 -53t-8 -58.5t-3 -54t-0.5 -47.5q0 -320 137 -320
q45 0 86 35z" />
    <glyph glyph-name="d" unicode="d" horiz-adv-x="714" 
d="M618 0h-169v117q-30 -66 -66.5 -98.5t-101.5 -32.5q-45 0 -80.5 19.5t-58 48.5t-39 75t-24.5 85t-12.5 94t-5 85.5t-0.5 75.5q0 44 1 75.5t5.5 83.5t12.5 89t25 80t40 70t59 45t81 18q61 0 97.5 -29t66.5 -90v682h169v-1493zM455 408v98q0 270 -109 270q-110 0 -110 -256
v-125q0 -258 110 -258q109 0 109 271z" />
    <glyph glyph-name="e" unicode="e" horiz-adv-x="667" 
d="M612 424h-385q0 -293 117 -293q32 0 54 17.5t32.5 46.5t14.5 56.5t4 57.5h157q-4 -120 -35 -184q-32 -67 -92.5 -103t-136.5 -36q-54 0 -97 16t-72 42t-50 65t-32.5 78t-18.5 89.5t-9 90t-2 88.5q0 47 2 86.5t8.5 90t18 90.5t32.5 80.5t49.5 67t71 43.5t95.5 17t96 -18.5
t71 -47.5t49 -74t31.5 -86.5t17 -96.5t8 -94.5t1.5 -88.5zM227 547h213q-6 110 -17 151q-26 87 -89 88q-94 0 -106 -227q-1 -8 -1 -12z" />
    <glyph glyph-name="f" unicode="f" horiz-adv-x="444" 
d="M436 1491v-178q-42 22 -71 22q-26 0 -42 -8.5t-23.5 -27t-9.5 -34t-3 -42.5q0 -11 -1 -34t-1 -34v-240h143v-135h-143v-780h-168v780h-86v135h86v316q0 51 3.5 88t16 76.5t34 64t60 40.5t91.5 16q50 0 114 -25z" />
    <glyph glyph-name="g" unicode="g" horiz-adv-x="714" 
d="M621 915v-976q0 -164 -63.5 -244t-223.5 -80q-117 0 -188.5 70.5t-71.5 187.5q0 5 1 15.5t1 15.5h164q0 -148 108 -148q28 0 48 10t30.5 24t16.5 37.5t7 42t1 46.5v197q-27 -62 -65.5 -94.5t-100.5 -32.5q-45 0 -81 18.5t-59 46.5t-40 72t-25 82t-12.5 90.5t-5.5 84
t-1 75.5q0 46 0.5 77t5 85.5t13 92t25 82.5t39.5 72.5t59 46.5t82 19q60 0 96 -31t70 -94v110h170zM453 469q0 307 -113 307q-19 0 -34.5 -8.5t-26 -27t-18.5 -37t-12.5 -48t-7.5 -50t-4 -53.5t-1.5 -49t0 -45t0.5 -32q0 -289 114 -289q22 0 39 8.5t27.5 27.5t17 34t10 43.5
t4.5 40.5t3 39q2 47 2 139z" />
    <glyph glyph-name="h" unicode="h" horiz-adv-x="733" 
d="M637 0h-168v610q-1 25 -1.5 38t-3.5 37.5t-9.5 38t-16.5 29t-27 22.5t-40 7q-26 0 -45 -8t-30 -24.5t-18 -32.5t-10 -42t-3.5 -41.5t-0.5 -41.5v-592h-168v1493h168v-684q38 62 80.5 91.5t108.5 29.5q46 0 80 -14.5t53.5 -37.5t31 -57.5t15.5 -68t4 -76.5v-676z" />
    <glyph glyph-name="i" unicode="i" horiz-adv-x="360" 
d="M287 1190q0 -46 -33.5 -80.5t-79.5 -34.5q-47 0 -81 34t-34 81t34 81t81 34q46 0 79.5 -34.5t33.5 -80.5zM264 0h-168v915h168v-915z" />
    <glyph glyph-name="j" unicode="j" horiz-adv-x="360" 
d="M287 1190q0 -46 -33.5 -80.5t-79.5 -34.5q-47 0 -81 34t-34 81t34 81t81 34q46 0 79.5 -34.5t33.5 -80.5zM264 -385h-168v1300h168v-1300z" />
    <glyph glyph-name="k" unicode="k" horiz-adv-x="708" 
d="M700 0h-196l-240 446v-446h-168v1493h168v-973l215 395h191l-244 -417z" />
    <glyph glyph-name="l" unicode="l" horiz-adv-x="360" 
d="M264 0h-168v1493h168v-1493z" />
    <glyph glyph-name="m" unicode="m" horiz-adv-x="1105" 
d="M993 0h-168v602q0 88 -11 118q-21 55 -83 56q-29 0 -49.5 -10.5t-30.5 -24t-15.5 -40t-6 -43t-0.5 -48.5v-8v-602h-168v602v8q0 30 -0.5 46.5t-5.5 43t-14.5 40.5t-28.5 25t-47 11q-22 0 -38.5 -6t-27 -13.5t-18 -24.5t-10.5 -27t-5 -34.5t-2 -33v-35.5v-602h-168v915
h168v-112q37 65 75.5 96t102.5 31q67 0 103.5 -30t60.5 -97q34 65 77.5 96t113.5 31q96 0 146 -52.5t50 -148.5v-729z" />
    <glyph glyph-name="n" unicode="n" horiz-adv-x="733" 
d="M637 0h-168v594q-1 30 -1.5 45.5t-3.5 42t-9.5 40.5t-16.5 30t-27 23t-40 7q-26 0 -45 -8t-30 -24.5t-18 -32.5t-10 -42t-3.5 -41.5t-0.5 -41.5v-592h-168v915h168v-106q38 62 80.5 91.5t108.5 29.5q46 0 80 -14.5t53.5 -37.5t31 -57.5t15.5 -68t4 -76.5v-676z" />
    <glyph glyph-name="o" unicode="o" horiz-adv-x="698" 
d="M637 457q0 -48 -2 -89t-9.5 -91t-20 -89.5t-34.5 -78.5t-51.5 -65t-73.5 -42t-98 -16q-62 0 -110.5 20.5t-79 58.5t-50.5 81.5t-30 101t-13.5 105t-3.5 104.5q0 49 2 89.5t9.5 91t19.5 90t34 78.5t51.5 65.5t73 42.5t97.5 16t98 -16t73.5 -42.5t51.5 -65.5t34.5 -79
t20 -90t9.5 -91t2 -89zM461 403v111q0 262 -109 262q-108 0 -108 -260v-110q0 -263 108 -263q109 0 109 260z" />
    <glyph glyph-name="p" unicode="p" horiz-adv-x="714" 
d="M264 915v-118q30 66 67.5 99.5t102.5 33.5q45 0 80.5 -20t58 -48.5t38.5 -75t24 -85t12.5 -94t5 -85.5t0.5 -76q0 -45 -1 -76t-5.5 -83.5t-12.5 -89t-24.5 -79.5t-40 -69.5t-59.5 -44.5t-82 -18q-61 0 -97.5 28.5t-66.5 87.5v-487h-168v1300h168zM477 395v125
q0 256 -110 256q-107 0 -107 -272v-94q0 -273 107 -273q110 0 110 258z" />
    <glyph glyph-name="q" unicode="q" horiz-adv-x="714" 
d="M618 -385h-169v487q-30 -60 -66.5 -88t-97.5 -28q-45 0 -81 18t-59 45t-40 70t-25 80t-12.5 88.5t-5.5 83t-1 75.5q0 45 0.5 75.5t5 85.5t12.5 94t24.5 85.5t39 75t58 48.5t80.5 20q65 0 101.5 -33t66.5 -100v118h169v-1300zM455 408v98q0 270 -109 270q-110 0 -110 -256
v-125q0 -258 110 -258q109 0 109 271z" />
    <glyph glyph-name="r" unicode="r" horiz-adv-x="483" 
d="M463 936v-176q-10 2 -31 2q-97 0 -132.5 -52t-35.5 -155v-555h-168v915h168v-114q41 69 83.5 100t115.5 35z" />
    <glyph glyph-name="s" unicode="s" horiz-adv-x="532" 
d="M449 897v-158q-57 45 -130 45q-44 0 -76 -29.5t-32 -72.5q0 -41 29 -76t70.5 -65t83.5 -65t71 -91.5t29 -128.5q0 -121 -71.5 -195.5t-191.5 -74.5q-47 0 -77 9t-72 34v164q73 -56 139 -56q55 0 86 30t31 85q0 45 -29.5 83.5t-71.5 70t-84.5 66.5t-72 90t-29.5 124
q0 110 68.5 180t177.5 70q81 0 152 -39z" />
    <glyph glyph-name="t" unicode="t" horiz-adv-x="401" 
d="M377 784h-92v-784h-168v784h-94v131h94v261h168v-261h92v-131z" />
    <glyph glyph-name="u" unicode="u" horiz-adv-x="735" 
d="M641 915v-618q0 -161 -62 -237t-219 -76q-143 0 -213 92q-51 66 -51 221v618h168v-548q0 -10 1 -32t1 -32q1 -30 2 -46.5t7 -41t16 -37.5t30 -23t48 -10q26 0 45.5 7t30.5 22.5t17.5 30.5t8.5 39.5t2 40.5t-1 43t-1 39v548h170z" />
    <glyph glyph-name="v" unicode="v" horiz-adv-x="614" 
d="M608 915l-239 -915h-115l-248 915h182q5 -22 21.5 -95.5t23 -103t20 -93.5t20 -103t15.5 -94.5t14.5 -104.5t8.5 -98q6 23 27 168q9 62 23 135t25.5 125t30 136.5t27.5 127.5h164z" />
    <glyph glyph-name="w" unicode="w" horiz-adv-x="919" 
d="M905 915l-215 -915h-117l-69 348q-26 130 -31 187q-2 22 -5 68.5t-5 68.5q-5 -80 -18.5 -177.5t-23.5 -152t-35.5 -183t-31.5 -159.5h-118l-222 915h179q61 -348 67 -391q17 -122 33 -266q6 77 35 250q13 67 37.5 203t37.5 204h123q19 -114 80 -444q4 -22 25 -213
q6 78 19.5 171t24.5 152t33.5 176t30.5 158h166z" />
    <glyph glyph-name="x" unicode="x" horiz-adv-x="679" 
d="M674 0h-203q-6 13 -29 62.5t-38.5 83.5t-35 80.5t-31.5 83t-15 61.5q-5 -38 -22.5 -92t-34.5 -93.5t-44.5 -102t-36.5 -83.5h-178l230 483l-230 432h201q4 -9 27 -58.5t31 -67.5t24.5 -56.5t27 -69t19.5 -61.5q9 38 25 84.5t25 70t36 86t31 72.5h178l-207 -432z" />
    <glyph glyph-name="y" unicode="y" horiz-adv-x="667" 
d="M662 915l-379 -1300h-179l146 459l-244 841h193l133 -639l157 639h173z" />
    <glyph glyph-name="z" unicode="z" horiz-adv-x="610" 
d="M584 915l-308 -761h291v-154h-540l317 766h-293v149h533z" />
    <glyph glyph-name="braceleft" unicode="{" 
d="M770 -375h-78q-157 0 -221.5 71t-64.5 230v381q0 79 -24 125.5t-93 63.5v137q65 16 91 60t26 116v401q0 151 69.5 217t220.5 66q49 0 74 -2v-143q-48 -1 -75.5 -4t-54.5 -12.5t-40 -28t-21 -49.5t-8 -78v-377q0 -96 -24 -148t-101 -92q74 -40 99.5 -97t25.5 -149v-364
q0 -36 2 -59t15 -53t37 -44q39 -22 145 -22v-146z" />
    <glyph glyph-name="bar" unicode="|" 
d="M596 -512h-168v2048h168v-2048z" />
    <glyph glyph-name="braceright" unicode="}" 
d="M281 -375v146q106 0 145 22q24 14 37 44.5t14.5 52.5t1.5 59v364q0 92 25.5 149t99.5 97q-77 40 -101 92t-24 148v377q0 58 -10 92.5t-37.5 51.5t-59 22t-91.5 6v143q25 2 73 2q151 0 221 -66.5t70 -216.5v-401q0 -72 26 -116t91 -60v-137q-69 -17 -93 -63.5t-24 -125.5
v-381q0 -159 -65 -230t-222 -71h-77z" />
    <glyph glyph-name="asciitilde" unicode="~" horiz-adv-x="1366" 
d="M1075 1495l101 -57q-38 -82 -74 -125q-42 -52 -102.5 -82.5t-125.5 -30.5q-46 0 -104.5 20t-105.5 44.5t-103 44.5t-98 20q-61 0 -101.5 -38.5t-74.5 -104.5l-97 63q26 56 48.5 93t56 74.5t78.5 56t102 18.5q51 0 111.5 -20t107 -44.5t103 -44.5t100.5 -20q43 0 78 20
t54.5 45t45.5 68z" />
    <glyph glyph-name="uni00A0" unicode="&#xa0;" horiz-adv-x="477" 
 />
    <glyph glyph-name="exclamdown" unicode="&#xa1;" horiz-adv-x="503" 
d="M360 821q0 -46 -31 -78t-77 -32q-44 0 -76.5 33t-32.5 77t32.5 76.5t76.5 32.5t76 -32.5t32 -76.5zM342 -451h-178v998h178v-998z" />
    <glyph glyph-name="cent" unicode="&#xa2;" horiz-adv-x="778" 
d="M588 383v-150q-33 -20 -70 -26v-160h-123v160q-75 18 -123 98q-73 105 -73 371q0 260 73 375q18 29 40.5 49t39 29t43.5 20v188h123v-188q20 -4 70 -23v-161q-31 24 -68 24q-29 0 -52 -12.5t-37.5 -30t-25 -47.5t-15.5 -53.5t-7.5 -59t-3 -54t-0.5 -48.5q0 -319 137 -319
q31 0 72 18z" />
    <glyph glyph-name="sterling" unicode="&#xa3;" horiz-adv-x="778" 
d="M575 197l150 -47q-22 -71 -66 -115q-53 -53 -131 -53q-48 0 -114 30l-49 23q-74 35 -109 35q-27 0 -43 -19q-14 -18 -20 -41l-140 56q17 69 58 114q43 47 106 47q13 0 33 -4q35 63 35 144q0 108 -70 231h-156v125h109q-76 173 -76 307q0 166 96 262q94 90 242 90
q128 0 201 -69q37 -36 58.5 -91t23.5 -110l-144 -68q0 42 -11 86.5t-32 67.5q-33 37 -100 37q-72 0 -119 -47q-49 -51 -49 -144q0 -72 27 -159q10 -35 61 -162h203v-125h-166q49 -124 49 -211q0 -114 -47 -201l29 -14q4 -2 20.5 -10.5t26 -13t24 -9t25.5 -4.5q27 0 45 23
q12 12 20 39z" />
    <glyph glyph-name="currency" unicode="&#xa4;" horiz-adv-x="1366" 
d="M1268 256l-92 -92l-199 196q-133 -102 -291 -102q-149 0 -295 100l-196 -194l-93 92l195 197q-102 133 -102 290q0 147 100 287l-197 199l95 92l196 -197q72 53 141 78t154 25q153 0 291 -101l196 195l93 -92l-195 -197q52 -73 77 -140.5t25 -150.5q0 -81 -25 -148
t-77 -138zM1018 741q0 139 -97.5 237.5t-236.5 98.5q-140 0 -238 -98.5t-98 -237.5q0 -136 98.5 -234.5t235.5 -98.5q139 0 237.5 97t98.5 236z" />
    <glyph glyph-name="yen" unicode="&#xa5;" horiz-adv-x="778" 
d="M745 524h-251v-524h-185v524h-276v125h254l-39 107h-215v127h168l-176 483h196l88 -299q7 -25 24.5 -80.5t27 -87.5t21 -79t17.5 -87q12 75 30.5 165.5t32 146.5t42 170t37.5 151h190l-147 -483h161v-127h-198l-33 -107h231v-125z" />
    <glyph glyph-name="brokenbar" unicode="&#xa6;" 
d="M594 707h-166v829h166v-829zM594 -512h-166v829h166v-829z" />
    <glyph glyph-name="section" unicode="&#xa7;" horiz-adv-x="778" 
d="M670 1214h-154q-3 66 -37 121q-34 51 -88 51q-58 0 -92 -55q-29 -45 -29 -110q0 -89 68 -160q12 -13 29.5 -26.5t27 -20t36 -22.5t30.5 -19q93 -55 127 -90q108 -108 108 -314q0 -152 -49 -247q-44 -82 -127 -119q76 -52 109 -123q33 -65 33 -154q0 -144 -89 -233
q-74 -74 -192 -74q-107 0 -182 78q-86 93 -86 250h151q7 -106 33 -146q29 -49 90 -49q46 0 80 31q45 42 45 143q0 93 -59 152q-14 14 -34 28.5t-31 21t-42.5 24t-36.5 20.5q-92 55 -127 92q-54 56 -77 139t-23 156q0 63 16 131.5t41 112.5q50 89 131 129q-59 49 -102 115
q-47 77 -47 167q0 139 82 226q76 80 188 80q117 0 189 -72q81 -78 90 -234zM233 567q0 -173 62 -235q39 -39 94 -39q54 0 94 35q62 57 62 217q0 185 -60 252q-40 43 -96 43q-53 0 -92 -39q-64 -62 -64 -234z" />
    <glyph glyph-name="dieresis" unicode="&#xa8;" horiz-adv-x="1003" 
d="M756 1153q0 -43 -30 -72.5t-73 -29.5t-72.5 29.5t-29.5 72.5t29.5 72.5t72.5 29.5t73 -29.5t30 -72.5zM453 1153q0 -43 -30 -72.5t-73 -29.5t-72.5 29.5t-29.5 72.5t29.5 72.5t72.5 29.5t73 -29.5t30 -72.5z" />
    <glyph glyph-name="copyright" unicode="&#xa9;" horiz-adv-x="1550" 
d="M1483 682q0 -144 -56 -275.5t-150.5 -226.5t-225.5 -151t-275 -56t-275 56t-226 151t-151 226.5t-56 275.5t56 275.5t151 226.5t226 151t275 56q191 0 354 -95.5t258 -259t95 -354.5zM1372 682q0 164 -78 303.5t-215.5 222t-302.5 82.5q-164 0 -302 -82t-217 -221
t-79 -303q0 -122 47 -234.5t126.5 -195t190.5 -131.5t234 -49t234 49t190 131t125.5 194t46.5 234zM922 418v-127q-37 -29 -105 -29q-272 0 -272 408q0 432 268 432q56 0 109 -27v-127q-48 29 -86 29q-29 0 -51.5 -12t-37.5 -30t-25.5 -46.5t-15.5 -52.5t-8 -58t-3.5 -54
t-0.5 -48q0 -283 148 -283q28 0 80 25z" />
    <glyph glyph-name="ordfeminine" unicode="&#xaa;" horiz-adv-x="546" 
d="M438 762h-125v35q-30 -43 -84 -43q-51 0 -84 37q-67 72 -67 278q0 187 57 260q34 45 96 45q50 0 82 -43v35h125v-604zM438 608h-354v82h354v-82zM205 1087v-26q0 -127 20 -170q13 -27 37 -27q14 0 29 15q28 34 28 155v53q0 127 -26 162q-11 15 -29 15q-21 0 -35 -19
q-24 -32 -24 -158z" />
    <glyph glyph-name="guillemotleft" unicode="&#xab;" horiz-adv-x="667" 
d="M600 829l-209 -350l189 -362l-78 -43l-217 405l233 402zM379 829l-209 -350l195 -362l-86 -43l-211 405l229 402z" />
    <glyph glyph-name="logicalnot" unicode="&#xac;" 
d="M956 0h-168v395h-720v152h888v-547z" />
    <glyph glyph-name="uni00AD" unicode="&#xad;" horiz-adv-x="522" 
d="M420 604v-160h-318v160h318z" />
    <glyph glyph-name="registered" unicode="&#xae;" horiz-adv-x="1550" 
d="M1042 270h-149l-168 361v-361h-143v826h188q129 0 183.5 -50.5t54.5 -177.5q0 -86 -37 -145.5t-117 -65.5zM725 754h37q62 0 84 29t22 94q0 66 -23 92t-89 26h-31v-241zM1372 682q0 164 -78 303.5t-215.5 222t-302.5 82.5q-164 0 -302 -82t-217 -221t-79 -303
q0 -122 47 -234.5t126.5 -195t190.5 -131.5t234 -49t234 49t190 131t125.5 194t46.5 234zM1483 682q0 -144 -56 -275.5t-150.5 -226.5t-225.5 -151t-275 -56t-275 56t-226 151t-151 226.5t-56 275.5t56 275.5t151 226.5t226 151t275 56q191 0 354 -95.5t258 -259t95 -354.5z
" />
    <glyph glyph-name="macron" unicode="&#xaf;" 
d="M741 1087h-458v127h458v-127z" />
    <glyph glyph-name="degree" unicode="&#xb0;" 
d="M807 1081q0 -121 -87 -204.5t-208 -83.5t-208 83.5t-87 204.5q0 119 87.5 203t207.5 84t207.5 -84t87.5 -203zM700 1079q0 76 -55.5 130.5t-132.5 54.5q-76 0 -132 -53.5t-56 -129.5q0 -77 55.5 -130.5t132.5 -53.5q76 0 132 53t56 129z" />
    <glyph glyph-name="plusminus" unicode="&#xb1;" 
d="M956 711h-360v-344h-168v344h-360v155h360v344h168v-344h360v-155zM956 131h-888v156h888v-156z" />
    <glyph glyph-name="twosuperior" unicode="&#xb2;" horiz-adv-x="518" 
d="M199 1090h-127q-2 14 -2 40q0 59 7.5 100t27.5 76t59 52.5t98 17.5q197 0 197 -205q0 -61 -28.5 -143t-53 -129t-73.5 -134q-7 -14 -11 -20q-30 -58 -51 -92h209v-106h-396q41 84 127 248q1 1 18 33.5t21.5 41t21 40.5t22.5 47t19.5 44.5t19 48t13 43t10.5 45t3 38.5
q0 40 -16.5 66t-53.5 26q-75 0 -61 -172v-6z" />
    <glyph glyph-name="threesuperior" unicode="&#xb3;" horiz-adv-x="518" 
d="M80 1137v26q0 107 40 160t142 53q99 0 141.5 -56t42.5 -159q0 -36 -2 -58.5t-9 -51t-24.5 -49t-45.5 -33.5q30 -12 49.5 -31t28 -46t11.5 -51.5t3 -60.5q0 -243 -205 -243q-189 0 -189 198q0 15 3 27h122q-4 -24 -4 -37q0 -32 18 -56t48 -24q18 0 32 6t21.5 19t12.5 25
t7 32t2.5 31t0.5 30q0 29 -3 50t-12.5 41.5t-29 31.5t-48.5 11q-12 0 -40 -4v108q80 0 105.5 21.5t25.5 101.5q0 119 -60 119q-29 0 -44.5 -24t-15.5 -53t1 -54h-125z" />
    <glyph glyph-name="acute" unicode="&#xb4;" 
d="M422 1108l176 264l139 -86l-219 -235z" />
    <glyph glyph-name="mu" unicode="&#xb5;" 
d="M932 0h-164v166q-44 -93 -107 -142t-159 -49q-85 0 -142.5 35.5t-103.5 110.5v-506h-168v1300h168v-483q0 -68 6.5 -116.5t30.5 -90.5q31 -55 89.5 -85.5t123.5 -30.5q136 0 211 120q31 49 40 98t9 122v466h166v-915z" />
    <glyph glyph-name="mu" unicode="&#x3bc;" 
d="M932 0h-164v166q-44 -93 -107 -142t-159 -49q-85 0 -142.5 35.5t-103.5 110.5v-506h-168v1300h168v-483q0 -68 6.5 -116.5t30.5 -90.5q31 -55 89.5 -85.5t123.5 -30.5q136 0 211 120q31 49 40 98t9 122v466h166v-915z" />
    <glyph glyph-name="paragraph" unicode="&#xb6;" horiz-adv-x="1216" 
d="M1071 1235h-127v-1440h-143v1440h-209v-1440h-143v852q-5 0 -14.5 -1t-14.5 -1q-163 0 -269 97.5t-106 258.5q0 73 26 141t76 118q108 106 353 106h571v-131z" />
    <glyph glyph-name="periodcentered" unicode="&#xb7;" horiz-adv-x="425" 
d="M344 684q0 -54 -38.5 -92.5t-92.5 -38.5t-92.5 38.5t-38.5 92.5t38.5 92.5t92.5 38.5t92.5 -38.5t38.5 -92.5z" />
    <glyph glyph-name="cedilla" unicode="&#xb8;" 
d="M670 -152l-156 -239l-78 41l113 258z" />
    <glyph glyph-name="onesuperior" unicode="&#xb9;" horiz-adv-x="516" 
d="M348 547h-125v713h-84v106h209v-819z" />
    <glyph glyph-name="ordmasculine" unicode="&#xba;" horiz-adv-x="546" 
d="M467 1071q0 -317 -188 -317q-49 0 -85.5 21.5t-57.5 53.5t-33.5 77t-16.5 84.5t-4 84.5q0 37 4 72.5t16.5 78t32.5 74t56.5 53t84.5 21.5q49 0 85 -22t56 -53.5t31.5 -75.5t15 -79t3.5 -73zM461 608h-373v82h373v-82zM338 1075q0 14 -1.5 36t-7 58t-19.5 60t-34 24
q-19 0 -33 -17.5t-20 -39t-9.5 -52.5t-4 -43.5t-0.5 -27.5q0 -25 2 -51t7.5 -63.5t20 -61t35.5 -23.5t35.5 24t20 62t7 63.5t1.5 51.5z" />
    <glyph glyph-name="guillemotright" unicode="&#xbb;" horiz-adv-x="667" 
d="M600 479l-211 -405l-86 43l195 362l-209 350l82 52zM383 479l-215 -405l-80 43l188 362l-208 350l82 52z" />
    <glyph glyph-name="onequarter" unicode="&#xbc;" horiz-adv-x="1290" 
d="M1235 201h-55v-201h-121v201h-236v100l238 518h119v-522h55v-96zM1040 1366l-678 -1366h-112l678 1366h112zM348 547h-125v713h-84v106h209v-819zM1059 297v317l-131 -317h131z" />
    <glyph glyph-name="onehalf" unicode="&#xbd;" horiz-adv-x="1292" 
d="M973 543h-127q-2 14 -2 41q0 58 7.5 99t27.5 75.5t59 51.5t98 17q197 0 197 -204q0 -49 -14 -103.5t-46 -120.5t-49 -98t-57 -102q-33 -64 -51 -93h209v-106h-396q41 84 127 248q1 3 20 38.5t25 46.5t23.5 46t25 53t20.5 49.5t18.5 53t10.5 46.5t5 46q0 40 -16.5 66
t-53.5 26q-75 0 -61 -170v-6zM1040 1366l-678 -1366h-112l678 1366h112zM348 547h-125v713h-84v106h209v-819z" />
    <glyph glyph-name="threequarters" unicode="&#xbe;" horiz-adv-x="1292" 
d="M1042 1366l-677 -1366h-113l678 1366h112zM80 1137v26q0 107 40 160t142 53q99 0 141.5 -56t42.5 -159q0 -36 -2 -58.5t-9 -51t-24.5 -49t-45.5 -33.5q30 -12 49.5 -31t28 -46t11.5 -51.5t3 -60.5q0 -243 -205 -243q-189 0 -189 198q0 15 3 27h122q-4 -24 -4 -37
q0 -32 18 -56t48 -24q18 0 32 6t21.5 19t12.5 25t7 32t2.5 31t0.5 30q0 29 -3 50t-12.5 41.5t-29 31.5t-48.5 11q-12 0 -40 -4v108q80 0 105.5 21.5t25.5 101.5q0 119 -60 119q-61 0 -61 -97q0 -24 2 -34h-125zM1061 297v317l-131 -317h131zM1237 201h-55v-201h-121v201
h-236v100l238 518h119v-522h55v-96z" />
    <glyph glyph-name="questiondown" unicode="&#xbf;" horiz-adv-x="673" 
d="M461 821q0 -44 -32.5 -77t-76.5 -33q-46 0 -78 32t-32 78q0 44 33 76.5t77 32.5t76.5 -32.5t32.5 -76.5zM592 -109v-51q0 -75 -10.5 -127.5t-38 -94t-78 -61.5t-127.5 -20q-51 0 -91 13t-66.5 33.5t-45.5 54t-29 65t-15.5 77t-7 79.5t-1.5 82q0 108 10 184
q13 89 52.5 133.5t125.5 50.5v238h162v-361q-14 2 -41 2q-37 0 -63.5 -11t-41 -27.5t-23 -43.5t-11 -51t-2.5 -57q0 -15 1 -44t1 -42q0 -225 98 -225q22 0 38 11.5t23.5 27.5t12 40.5t5 44t0.5 45t1 35.5h162z" />
    <glyph glyph-name="Agrave" unicode="&#xc0;" horiz-adv-x="737" 
d="M735 0h-182l-51 266h-271l-51 -266h-178l297 1366h145zM258 408h217q-79 439 -106 692q-21 -213 -111 -692zM459 1546l-97 -57l-219 235l140 86z" />
    <glyph glyph-name="Aacute" unicode="&#xc1;" horiz-adv-x="737" 
d="M735 0h-182l-51 266h-271l-51 -266h-178l297 1366h145zM258 408h217q-79 439 -106 692q-21 -213 -111 -692zM279 1546l176 264l139 -86l-219 -235z" />
    <glyph glyph-name="Acircumflex" unicode="&#xc2;" horiz-adv-x="737" 
d="M735 0h-182l-51 266h-271l-51 -266h-178l297 1366h145zM258 408h217q-79 439 -106 692q-21 -213 -111 -692zM584 1559l-84 -70l-142 151l-131 -151l-94 70l227 253z" />
    <glyph glyph-name="Atilde" unicode="&#xc3;" horiz-adv-x="737" 
d="M735 0h-182l-51 266h-271l-51 -266h-178l297 1366h145zM258 408h217q-79 439 -106 692q-21 -213 -111 -692zM496 1669h100q0 -78 -31 -129t-104 -51q-34 0 -87.5 28.5t-80.5 28.5q-41 0 -41 -49h-111q4 76 36 128t102 52q42 0 99.5 -30.5t80.5 -30.5q9 0 15 3t9.5 9.5
t5.5 11.5t4 15.5t3 13.5z" />
    <glyph glyph-name="Adieresis" unicode="&#xc4;" horiz-adv-x="737" 
d="M735 0h-182l-51 266h-271l-51 -266h-178l297 1366h145zM258 408h217q-79 439 -106 692q-21 -213 -111 -692zM612 1579q0 -43 -29.5 -72.5t-72.5 -29.5t-72.5 29.5t-29.5 72.5t29.5 72.5t72.5 29.5t72.5 -29.5t29.5 -72.5zM309 1579q0 -43 -29.5 -72.5t-72.5 -29.5
t-73 29.5t-30 72.5t30 72.5t73 29.5t72.5 -29.5t29.5 -72.5z" />
    <glyph glyph-name="Aring" unicode="&#xc5;" horiz-adv-x="737" 
d="M735 0h-182l-51 266h-271l-51 -266h-178l297 1366h145zM258 408h217q-79 439 -106 692q-21 -213 -111 -692zM195 1636q0 74 50.5 124t123.5 50t123.5 -50t50.5 -124t-50.5 -124t-123.5 -50t-123.5 50t-50.5 124zM287 1636q0 -35 23.5 -58.5t58.5 -23.5t58.5 23.5
t23.5 58.5t-23.5 58.5t-58.5 23.5t-58.5 -23.5t-23.5 -58.5z" />
    <glyph glyph-name="AE" unicode="&#xc6;" horiz-adv-x="1046" 
d="M1044 0h-475l-55 268h-283l-49 -268h-180l291 1366h452l35 -156h-297l92 -434h271l37 -155h-271l105 -465h291zM489 408l-65 309q-27 131 -55 389q-4 -68 -37 -293q-29 -195 -74 -405h231z" />
    <glyph glyph-name="Ccedilla" unicode="&#xc7;" horiz-adv-x="690" 
d="M641 188v-168q-40 -24 -69.5 -31t-79.5 -7q-414 0 -414 677q0 70 3 129.5t13 136.5t27 138t48 123.5t73 104t104.5 67.5t140.5 26q47 0 79.5 -9t74.5 -32v-165q-63 34 -119 34q-40 0 -73.5 -13.5t-58 -34t-43.5 -55t-31.5 -66t-21 -76.5t-13 -78.5t-6.5 -80.5t-2.5 -72.5
t-0.5 -65.5q0 -47 1.5 -85t7.5 -93t16 -97.5t29.5 -88t46 -75.5t67.5 -49.5t92 -19.5q56 0 109 26zM553 -147l-150 -242l-100 47l111 256z" />
    <glyph glyph-name="Egrave" unicode="&#xc8;" horiz-adv-x="657" 
d="M594 0h-490v1366h490v-156h-305v-434h270v-155h-270v-465h305v-156zM459 1546l-97 -57l-219 235l140 86z" />
    <glyph glyph-name="Eacute" unicode="&#xc9;" horiz-adv-x="657" 
d="M594 0h-490v1366h490v-156h-305v-434h270v-155h-270v-465h305v-156zM240 1546l176 264l139 -86l-219 -235z" />
    <glyph glyph-name="Ecircumflex" unicode="&#xca;" horiz-adv-x="657" 
d="M594 0h-490v1366h490v-156h-305v-434h270v-155h-270v-465h305v-156zM584 1559l-84 -70l-142 151l-131 -151l-94 70l227 253z" />
    <glyph glyph-name="Edieresis" unicode="&#xcb;" horiz-adv-x="657" 
d="M594 0h-490v1366h490v-156h-305v-434h270v-155h-270v-465h305v-156zM584 1579q0 -43 -30 -72.5t-73 -29.5t-72.5 29.5t-29.5 72.5t29.5 72.5t72.5 29.5t73 -29.5t30 -72.5zM281 1579q0 -43 -30 -72.5t-73 -29.5t-72.5 29.5t-29.5 72.5t29.5 72.5t72.5 29.5t73 -29.5
t30 -72.5z" />
    <glyph glyph-name="Igrave" unicode="&#xcc;" horiz-adv-x="395" 
d="M289 0h-185v1366h185v-1366zM305 1546l-96 -57l-219 235l139 86z" />
    <glyph glyph-name="Iacute" unicode="&#xcd;" horiz-adv-x="395" 
d="M289 0h-185v1366h185v-1366zM94 1546l176 264l140 -86l-220 -235z" />
    <glyph glyph-name="Icircumflex" unicode="&#xce;" horiz-adv-x="395" 
d="M289 0h-185v1366h185v-1366zM424 1559l-84 -70l-141 151l-131 -151l-95 70l228 253z" />
    <glyph glyph-name="Idieresis" unicode="&#xcf;" horiz-adv-x="395" 
d="M289 0h-185v1366h185v-1366zM442 1579q0 -43 -29.5 -72.5t-72.5 -29.5t-72.5 29.5t-29.5 72.5t29.5 72.5t72.5 29.5t72.5 -29.5t29.5 -72.5zM139 1579q0 -43 -29.5 -72.5t-72.5 -29.5t-73 29.5t-30 72.5t30 72.5t73 29.5t72.5 -29.5t29.5 -72.5z" />
    <glyph glyph-name="Eth" unicode="&#xd0;" horiz-adv-x="841" 
d="M104 1366h228q110 0 180 -24.5t129 -100.5q41 -53 67.5 -123.5t37.5 -153t14.5 -146t3.5 -148.5q0 -84 -3.5 -145.5t-15 -146t-40 -153.5t-72.5 -116q-64 -68 -157.5 -88.5t-221.5 -20.5h-150v676h-102v141h102v549zM289 676v-516q129 -1 188 55t80 186q14 98 14 256
q0 159 -12 265q-8 68 -21.5 114.5t-40.5 89t-74 63.5t-114 21h-20v-393h178v-141h-178z" />
    <glyph glyph-name="Ntilde" unicode="&#xd1;" horiz-adv-x="845" 
d="M741 0h-172q-163 483 -225 678q-39 119 -51 168q-6 26 -20.5 96.5t-24.5 108.5q7 -46 16 -207q15 -257 23 -844h-183v1366h172q9 -25 67.5 -195.5t76.5 -226.5t60 -186t69 -229t51 -201q-43 322 -43 520v518h184v-1366zM551 1669h100q0 -78 -31 -129t-104 -51
q-34 0 -87.5 28.5t-80.5 28.5q-41 0 -41 -49h-110q4 76 35.5 128t101.5 52q42 0 99.5 -30.5t80.5 -30.5q9 0 15 3t9.5 9.5t5.5 11.5t4 15.5t3 13.5z" />
    <glyph glyph-name="Ograve" unicode="&#xd2;" horiz-adv-x="866" 
d="M788 657q0 -189 -20 -321q-13 -82 -34.5 -141.5t-58.5 -110t-97 -76.5t-142 -26q-190 0 -274 153q-84 152 -84 580q0 103 3.5 173t20.5 166t50 163q42 87 110.5 126t169.5 39q182 0 268 -145q39 -67 60 -183t24.5 -199t3.5 -198zM596 709q0 255 -29 378q-28 130 -135 130
q-66 0 -106 -58q-56 -79 -56 -397v-70v-76.5t1 -68.5t3 -76.5t5.5 -67.5t9.5 -73q6 -37 14.5 -64.5t24.5 -55.5t43 -43t63 -15q89 0 127 98q35 98 35 459zM532 1546l-96 -57l-219 235l139 86z" />
    <glyph glyph-name="Oacute" unicode="&#xd3;" horiz-adv-x="866" 
d="M788 657q0 -189 -20 -321q-13 -82 -34.5 -141.5t-58.5 -110t-97 -76.5t-142 -26q-190 0 -274 153q-84 152 -84 580q0 103 3.5 173t20.5 166t50 163q42 87 110.5 126t169.5 39q182 0 268 -145q39 -67 60 -183t24.5 -199t3.5 -198zM596 709q0 255 -29 378q-28 130 -135 130
q-66 0 -106 -58q-56 -79 -56 -397v-70v-76.5t1 -68.5t3 -76.5t5.5 -67.5t9.5 -73q6 -37 14.5 -64.5t24.5 -55.5t43 -43t63 -15q89 0 127 98q35 98 35 459zM332 1546l176 264l139 -86l-219 -235z" />
    <glyph glyph-name="Ocircumflex" unicode="&#xd4;" horiz-adv-x="866" 
d="M788 657q0 -189 -20 -321q-13 -82 -34.5 -141.5t-58.5 -110t-97 -76.5t-142 -26q-190 0 -274 153q-84 152 -84 580q0 103 3.5 173t20.5 166t50 163q42 87 110.5 126t169.5 39q182 0 268 -145q39 -67 60 -183t24.5 -199t3.5 -198zM596 709q0 255 -29 378q-28 130 -135 130
q-66 0 -106 -58q-56 -79 -56 -397v-70v-76.5t1 -68.5t3 -76.5t5.5 -67.5t9.5 -73q6 -37 14.5 -64.5t24.5 -55.5t43 -43t63 -15q89 0 127 98q35 98 35 459zM659 1559l-84 -70l-141 151l-131 -151l-94 70l227 253z" />
    <glyph glyph-name="Otilde" unicode="&#xd5;" horiz-adv-x="866" 
d="M788 657q0 -189 -20 -321q-13 -82 -34.5 -141.5t-58.5 -110t-97 -76.5t-142 -26q-190 0 -274 153q-84 152 -84 580q0 103 3.5 173t20.5 166t50 163q42 87 110.5 126t169.5 39q182 0 268 -145q39 -67 60 -183t24.5 -199t3.5 -198zM596 709q0 255 -29 378q-28 130 -135 130
q-66 0 -106 -58q-56 -79 -56 -397v-70v-76.5t1 -68.5t3 -76.5t5.5 -67.5t9.5 -73q6 -37 14.5 -64.5t24.5 -55.5t43 -43t63 -15q89 0 127 98q35 98 35 459zM561 1669h101q0 -78 -31.5 -129t-104.5 -51q-34 0 -87.5 28.5t-80.5 28.5q-41 0 -41 -49h-110q4 76 35.5 128
t101.5 52q42 0 99.5 -30.5t80.5 -30.5q9 0 15 3t9.5 9.5t5.5 11.5t4 15.5t3 13.5z" />
    <glyph glyph-name="Odieresis" unicode="&#xd6;" horiz-adv-x="866" 
d="M788 657q0 -189 -20 -321q-13 -82 -34.5 -141.5t-58.5 -110t-97 -76.5t-142 -26q-190 0 -274 153q-84 152 -84 580q0 103 3.5 173t20.5 166t50 163q42 87 110.5 126t169.5 39q182 0 268 -145q39 -67 60 -183t24.5 -199t3.5 -198zM596 709q0 255 -29 378q-28 130 -135 130
q-66 0 -106 -58q-56 -79 -56 -397v-70v-76.5t1 -68.5t3 -76.5t5.5 -67.5t9.5 -73q6 -37 14.5 -64.5t24.5 -55.5t43 -43t63 -15q89 0 127 98q35 98 35 459zM678 1579q0 -43 -30 -72.5t-73 -29.5t-72.5 29.5t-29.5 72.5t29.5 72.5t72.5 29.5t73 -29.5t30 -72.5zM375 1579
q0 -43 -30 -72.5t-73 -29.5t-72.5 29.5t-29.5 72.5t29.5 72.5t72.5 29.5t73 -29.5t30 -72.5z" />
    <glyph glyph-name="multiply" unicode="&#xd7;" 
d="M772 315l-260 258l-260 -258l-109 109l258 260l-258 260l109 109l260 -258l260 258l109 -109l-258 -260l258 -260z" />
    <glyph glyph-name="Oslash" unicode="&#xd8;" horiz-adv-x="929" 
d="M852 1350l-88 -181q27 -64 41.5 -165t17 -172.5t2.5 -180.5q0 -57 -0.5 -89t-3.5 -94t-8.5 -101t-17.5 -95.5t-28.5 -92.5t-43 -77t-59.5 -64.5t-79.5 -39.5t-101.5 -16q-77 0 -143 26.5t-100 75.5l-72 -145l-90 63l98 197q-61 154 -61 532q0 57 0.5 90.5t3.5 94t9 99
t18 92.5t29 88.5t44 73.5t60.5 61t80.5 37t103 15q83 0 139.5 -22.5t97.5 -77.5l64 125zM311 469l293 618q-23 130 -137 130q-68 0 -107 -56q-53 -74 -53 -381q0 -215 4 -311zM625 903l-291 -616q9 -30 17.5 -49.5t24.5 -41t40.5 -32t58.5 -10.5q92 0 125 96q31 90 31 377
q0 192 -6 276z" />
    <glyph glyph-name="Ugrave" unicode="&#xd9;" horiz-adv-x="837" 
d="M733 1366v-1004q0 -96 -12.5 -160.5t-46 -117t-97.5 -77.5t-161 -25q-91 0 -153.5 27t-96.5 79t-48 116.5t-14 151.5v1010h181v-1004q0 -36 1.5 -60.5t9.5 -54.5t22 -48t40.5 -30.5t63.5 -12.5q27 0 48.5 6.5t35 15t23 25.5t14.5 30.5t7 38t2.5 39t0.5 42.5v9v1004h180z
M520 1546l-96 -57l-219 235l139 86z" />
    <glyph glyph-name="Uacute" unicode="&#xda;" horiz-adv-x="837" 
d="M733 1366v-1004q0 -96 -12.5 -160.5t-46 -117t-97.5 -77.5t-161 -25q-91 0 -153.5 27t-96.5 79t-48 116.5t-14 151.5v1010h181v-1004q0 -36 1.5 -60.5t9.5 -54.5t22 -48t40.5 -30.5t63.5 -12.5q27 0 48.5 6.5t35 15t23 25.5t14.5 30.5t7 38t2.5 39t0.5 42.5v9v1004h180z
M330 1546l176 264l139 -86l-219 -235z" />
    <glyph glyph-name="Ucircumflex" unicode="&#xdb;" horiz-adv-x="837" 
d="M733 1366v-1004q0 -96 -12.5 -160.5t-46 -117t-97.5 -77.5t-161 -25q-91 0 -153.5 27t-96.5 79t-48 116.5t-14 151.5v1010h181v-1004q0 -36 1.5 -60.5t9.5 -54.5t22 -48t40.5 -30.5t63.5 -12.5q27 0 48.5 6.5t35 15t23 25.5t14.5 30.5t7 38t2.5 39t0.5 42.5v9v1004h180z
M645 1559l-84 -70l-141 151l-131 -151l-94 70l227 253z" />
    <glyph glyph-name="Udieresis" unicode="&#xdc;" horiz-adv-x="837" 
d="M733 1366v-1004q0 -96 -12.5 -160.5t-46 -117t-97.5 -77.5t-161 -25q-91 0 -153.5 27t-96.5 79t-48 116.5t-14 151.5v1010h181v-1004q0 -36 1.5 -60.5t9.5 -54.5t22 -48t40.5 -30.5t63.5 -12.5q27 0 48.5 6.5t35 15t23 25.5t14.5 30.5t7 38t2.5 39t0.5 42.5v9v1004h180z
M664 1579q0 -43 -30 -72.5t-73 -29.5t-72.5 29.5t-29.5 72.5t29.5 72.5t72.5 29.5t73 -29.5t30 -72.5zM360 1579q0 -43 -29.5 -72.5t-72.5 -29.5t-72.5 29.5t-29.5 72.5t29.5 72.5t72.5 29.5t72.5 -29.5t29.5 -72.5z" />
    <glyph glyph-name="Yacute" unicode="&#xdd;" horiz-adv-x="698" 
d="M702 1366l-237 -778v-588h-184v588l-285 778h194l111 -367q49 -158 68 -266q23 138 53 271l90 362h190zM250 1546l176 264l139 -86l-219 -235z" />
    <glyph glyph-name="Thorn" unicode="&#xde;" horiz-adv-x="718" 
d="M289 1174h57q128 0 199 -44q73 -45 104 -133t31 -190q0 -300 -191 -369q-66 -24 -200 -24v-414h-185v1366h185v-192zM289 571h16q102 0 143 52.5t41 158.5q0 236 -170 236h-30v-447z" />
    <glyph glyph-name="germandbls" unicode="&#xdf;" horiz-adv-x="774" 
d="M123 0v762h-103v153h103v277q0 82 13 139.5t44.5 100.5t87.5 63.5t140 20.5q155 0 214.5 -94.5t59.5 -303.5q0 -230 -129 -278q61 -17 98 -56q27 -32 42 -100.5t17.5 -125.5t2.5 -146q0 -229 -66 -330q-55 -84 -209 -84q-42 0 -65 2v156q26 0 37.5 0.5t30 6t32.5 17.5
q53 47 53 256q0 144 -12 201q-13 67 -49.5 95t-102.5 30v153q-1 -1 0 -1.5t3.5 -0.5h4.5h5q35 0 60 11t39 27t22 42.5t10 50.5t2 58q0 43 -1 71t-4.5 59.5t-11 50.5t-19 35.5t-30 24t-43.5 7.5q-26 0 -45.5 -8t-31 -25.5t-18.5 -32.5t-9.5 -43t-3 -42.5t-0.5 -43.5v-1155
h-168z" />
    <glyph glyph-name="agrave" unicode="&#xe0;" horiz-adv-x="714" 
d="M618 0h-169v117q-30 -66 -66.5 -98.5t-101.5 -32.5q-45 0 -80.5 19.5t-58 48.5t-39 75t-24.5 85t-12.5 94t-5 85.5t-0.5 75.5q0 44 1 75t5.5 83t12.5 89t24.5 80t39.5 70t58.5 45.5t80.5 18.5q59 0 97.5 -30t68.5 -89v104h169v-915zM455 408v98q0 270 -109 270
q-110 0 -110 -256v-125q0 -258 110 -258q109 0 109 271zM479 1108l-96 -57l-219 235l139 86z" />
    <glyph glyph-name="aacute" unicode="&#xe1;" horiz-adv-x="714" 
d="M618 0h-169v117q-30 -66 -66.5 -98.5t-101.5 -32.5q-45 0 -80.5 19.5t-58 48.5t-39 75t-24.5 85t-12.5 94t-5 85.5t-0.5 75.5q0 44 1 75t5.5 83t12.5 89t24.5 80t39.5 70t58.5 45.5t80.5 18.5q59 0 97.5 -30t68.5 -89v104h169v-915zM455 408v98q0 270 -109 270
q-110 0 -110 -256v-125q0 -258 110 -258q109 0 109 271zM227 1108l176 264l140 -86l-219 -235z" />
    <glyph glyph-name="acircumflex" unicode="&#xe2;" horiz-adv-x="714" 
d="M618 0h-169v117q-30 -66 -66.5 -98.5t-101.5 -32.5q-45 0 -80.5 19.5t-58 48.5t-39 75t-24.5 85t-12.5 94t-5 85.5t-0.5 75.5q0 44 1 75t5.5 83t12.5 89t24.5 80t39.5 70t58.5 45.5t80.5 18.5q59 0 97.5 -30t68.5 -89v104h169v-915zM455 408v98q0 270 -109 270
q-110 0 -110 -256v-125q0 -258 110 -258q109 0 109 271zM573 1120l-84 -69l-141 151l-131 -151l-94 69l227 254z" />
    <glyph glyph-name="atilde" unicode="&#xe3;" horiz-adv-x="714" 
d="M618 0h-169v117q-30 -66 -66.5 -98.5t-101.5 -32.5q-45 0 -80.5 19.5t-58 48.5t-39 75t-24.5 85t-12.5 94t-5 85.5t-0.5 75.5q0 44 1 75t5.5 83t12.5 89t24.5 80t39.5 70t58.5 45.5t80.5 18.5q59 0 97.5 -30t68.5 -89v104h169v-915zM455 408v98q0 270 -109 270
q-110 0 -110 -256v-125q0 -258 110 -258q109 0 109 271zM485 1231h101q0 -78 -31 -129t-104 -51q-34 0 -87.5 28.5t-80.5 28.5q-41 0 -41 -49h-111q4 76 35.5 128t101.5 52q42 0 100 -30.5t81 -30.5q11 0 18 6t9 10.5t5 19.5t4 17z" />
    <glyph glyph-name="adieresis" unicode="&#xe4;" horiz-adv-x="714" 
d="M618 0h-169v117q-30 -66 -66.5 -98.5t-101.5 -32.5q-45 0 -80.5 19.5t-58 48.5t-39 75t-24.5 85t-12.5 94t-5 85.5t-0.5 75.5q0 44 1 75t5.5 83t12.5 89t24.5 80t39.5 70t58.5 45.5t80.5 18.5q59 0 97.5 -30t68.5 -89v104h169v-915zM455 408v98q0 270 -109 270
q-110 0 -110 -256v-125q0 -258 110 -258q109 0 109 271zM602 1153q0 -43 -29.5 -72.5t-72.5 -29.5t-73 29.5t-30 72.5t30 72.5t73 29.5t72.5 -29.5t29.5 -72.5zM299 1153q0 -43 -29.5 -72.5t-72.5 -29.5t-73 29.5t-30 72.5t30 72.5t73 29.5t72.5 -29.5t29.5 -72.5z" />
    <glyph glyph-name="aring" unicode="&#xe5;" horiz-adv-x="714" 
d="M618 0h-169v117q-30 -66 -66.5 -98.5t-101.5 -32.5q-45 0 -80.5 19.5t-58 48.5t-39 75t-24.5 85t-12.5 94t-5 85.5t-0.5 75.5q0 44 1 75t5.5 83t12.5 89t24.5 80t39.5 70t58.5 45.5t80.5 18.5q59 0 97.5 -30t68.5 -89v104h169v-915zM455 408v98q0 270 -109 270
q-110 0 -110 -256v-125q0 -258 110 -258q109 0 109 271zM164 1229q0 73 50 123.5t124 50.5t124 -50.5t50 -123.5t-50 -123.5t-124 -50.5t-124 50.5t-50 123.5zM256 1229q0 -35 23.5 -58.5t58.5 -23.5t58.5 23.5t23.5 58.5t-23.5 58.5t-58.5 23.5t-58.5 -23.5t-23.5 -58.5z
" />
    <glyph glyph-name="ae" unicode="&#xe6;" horiz-adv-x="1034" 
d="M811 313h162q-4 -72 -17 -126t-41 -102t-80 -73.5t-126 -25.5q-82 0 -134 34t-83 109q-33 -76 -79.5 -109.5t-127.5 -33.5q-63 0 -108.5 24.5t-70 67.5t-35 93t-10.5 110q0 59 11 111t35.5 98t70.5 73t109 27q91 0 143 -60q-1 13 -1.5 36t-1 35.5t-2.5 32.5t-4.5 31.5
t-8 27.5t-13 25t-18.5 19.5t-25.5 16t-33.5 9t-43 3.5q-90 0 -173 -53v172q55 25 93 35t92 10q77 0 129.5 -26.5t87.5 -90.5q36 61 82 89t115 28q54 0 96.5 -19t70.5 -48t47.5 -75t30 -86.5t16 -97.5t6.5 -93.5t1 -88.5h-377v-37q0 -35 1 -59.5t7.5 -66t17.5 -67.5
t34.5 -46.5t56.5 -20.5q98 0 98 188zM803 545v41q0 32 -3.5 62t-13 65t-32 56.5t-54.5 21.5t-54 -21.5t-31.5 -56.5t-13 -64t-3.5 -61v-43h205zM442 291q0 166 -106 166q-105 0 -105 -158q0 -178 105 -178q32 0 54.5 16t33 43.5t14.5 54t4 56.5z" />
    <glyph glyph-name="ccedilla" unicode="&#xe7;" horiz-adv-x="518" 
d="M469 180v-157q-36 -22 -64.5 -29.5t-70.5 -7.5q-273 0 -273 467q0 47 2 86.5t8.5 90.5t18 91t32.5 80.5t49.5 67.5t71 44t95.5 17q69 0 131 -33v-172q-34 43 -84 43q-28 0 -50.5 -12.5t-37 -30.5t-24.5 -47t-15.5 -53t-8 -58.5t-3 -54t-0.5 -47.5q0 -320 137 -320
q45 0 86 35zM418 -152l-156 -239l-78 41l113 258z" />
    <glyph glyph-name="egrave" unicode="&#xe8;" horiz-adv-x="667" 
d="M612 424h-385q0 -293 117 -293q32 0 54 17.5t32.5 46.5t14.5 56.5t4 57.5h157q-4 -120 -35 -184q-32 -67 -92.5 -103t-136.5 -36q-54 0 -97 16t-72 42t-50 65t-32.5 78t-18.5 89.5t-9 90t-2 88.5q0 47 2 86.5t8.5 90t18 90.5t32.5 80.5t49.5 67t71 43.5t95.5 17t96 -18.5
t71 -47.5t49 -74t31.5 -86.5t17 -96.5t8 -94.5t1.5 -88.5zM227 547h213q-6 110 -17 151q-26 87 -89 88q-94 0 -106 -227q-1 -8 -1 -12zM469 1108l-96 -57l-219 235l139 86z" />
    <glyph glyph-name="eacute" unicode="&#xe9;" horiz-adv-x="667" 
d="M612 424h-385q0 -293 117 -293q32 0 54 17.5t32.5 46.5t14.5 56.5t4 57.5h157q-4 -120 -35 -184q-32 -67 -92.5 -103t-136.5 -36q-54 0 -97 16t-72 42t-50 65t-32.5 78t-18.5 89.5t-9 90t-2 88.5q0 47 2 86.5t8.5 90t18 90.5t32.5 80.5t49.5 67t71 43.5t95.5 17t96 -18.5
t71 -47.5t49 -74t31.5 -86.5t17 -96.5t8 -94.5t1.5 -88.5zM227 547h213q-6 110 -17 151q-26 87 -89 88q-94 0 -106 -227q-1 -8 -1 -12zM231 1108l177 264l139 -86l-219 -235z" />
    <glyph glyph-name="ecircumflex" unicode="&#xea;" horiz-adv-x="667" 
d="M612 424h-385q0 -293 117 -293q32 0 54 17.5t32.5 46.5t14.5 56.5t4 57.5h157q-4 -120 -35 -184q-32 -67 -92.5 -103t-136.5 -36q-54 0 -97 16t-72 42t-50 65t-32.5 78t-18.5 89.5t-9 90t-2 88.5q0 47 2 86.5t8.5 90t18 90.5t32.5 80.5t49.5 67t71 43.5t95.5 17t96 -18.5
t71 -47.5t49 -74t31.5 -86.5t17 -96.5t8 -94.5t1.5 -88.5zM227 547h213q-6 110 -17 151q-26 87 -89 88q-94 0 -106 -227q-1 -8 -1 -12zM559 1120l-84 -69l-141 151l-131 -151l-94 69l227 254z" />
    <glyph glyph-name="edieresis" unicode="&#xeb;" horiz-adv-x="667" 
d="M612 424h-385q0 -293 117 -293q32 0 54 17.5t32.5 46.5t14.5 56.5t4 57.5h157q-4 -120 -35 -184q-32 -67 -92.5 -103t-136.5 -36q-54 0 -97 16t-72 42t-50 65t-32.5 78t-18.5 89.5t-9 90t-2 88.5q0 47 2 86.5t8.5 90t18 90.5t32.5 80.5t49.5 67t71 43.5t95.5 17t96 -18.5
t71 -47.5t49 -74t31.5 -86.5t17 -96.5t8 -94.5t1.5 -88.5zM227 547h213q-6 110 -17 151q-26 87 -89 88q-94 0 -106 -227q-1 -8 -1 -12zM578 1153q0 -43 -30 -72.5t-73 -29.5t-72.5 29.5t-29.5 72.5t29.5 72.5t72.5 29.5t73 -29.5t30 -72.5zM274 1153q0 -43 -29.5 -72.5
t-72.5 -29.5t-72.5 29.5t-29.5 72.5t29.5 72.5t72.5 29.5t72.5 -29.5t29.5 -72.5z" />
    <glyph glyph-name="igrave" unicode="&#xec;" horiz-adv-x="360" 
d="M264 0h-168v915h168v-915zM285 1108l-97 -57l-219 235l140 86z" />
    <glyph glyph-name="iacute" unicode="&#xed;" horiz-adv-x="360" 
d="M264 0h-168v915h168v-915zM74 1108l176 264l139 -86l-219 -235z" />
    <glyph glyph-name="icircumflex" unicode="&#xee;" horiz-adv-x="360" 
d="M264 0h-168v915h168v-915zM406 1120l-84 -69l-142 151l-131 -151l-94 69l227 254z" />
    <glyph glyph-name="idieresis" unicode="&#xef;" horiz-adv-x="360" 
d="M264 0h-168v915h168v-915zM424 1153q0 -43 -29.5 -72.5t-72.5 -29.5t-73 29.5t-30 72.5t30 72.5t73 29.5t72.5 -29.5t29.5 -72.5zM121 1153q0 -43 -30 -72.5t-73 -29.5t-72.5 29.5t-29.5 72.5t29.5 72.5t72.5 29.5t73 -29.5t30 -72.5z" />
    <glyph glyph-name="eth" unicode="&#xf0;" horiz-adv-x="698" 
d="M559 1382l-145 -100q119 -149 171 -364t52 -445q0 -60 -3 -108t-12.5 -108.5t-29.5 -105t-50.5 -84t-80 -60.5t-113.5 -21q-62 0 -110 20t-78.5 57.5t-51 80.5t-30.5 100t-13.5 104.5t-3.5 104.5q0 50 2 91t9 92t19 90.5t34 79t51.5 65.5t73.5 42.5t98 16.5q30 0 60 -6
q-18 82 -45.5 143.5t-73.5 130.5l-158 -108l-63 94l153 104q-83 76 -145 121l94 107q113 -82 168 -142l154 111zM463 401v103q0 272 -109 272q-29 0 -50.5 -19t-32.5 -46t-17.5 -69.5t-8 -77t-1.5 -81.5v-82q0 -262 110 -262q109 0 109 262z" />
    <glyph glyph-name="ntilde" unicode="&#xf1;" horiz-adv-x="733" 
d="M637 0h-168v594q-1 30 -1.5 45.5t-3.5 42t-9.5 40.5t-16.5 30t-27 23t-40 7q-26 0 -45 -8t-30 -24.5t-18 -32.5t-10 -42t-3.5 -41.5t-0.5 -41.5v-592h-168v915h168v-106q38 62 80.5 91.5t108.5 29.5q46 0 80 -14.5t53.5 -37.5t31 -57.5t15.5 -68t4 -76.5v-676zM494 1231
h100q0 -78 -31 -129t-104 -51q-34 0 -87.5 28.5t-80.5 28.5q-41 0 -41 -49h-111q4 76 35.5 128t101.5 52q42 0 100 -30.5t81 -30.5q9 0 15 3t9.5 9.5t5.5 11.5t4 15.5t3 13.5z" />
    <glyph glyph-name="ograve" unicode="&#xf2;" horiz-adv-x="698" 
d="M637 457q0 -48 -2 -89t-9.5 -91t-20 -89.5t-34.5 -78.5t-51.5 -65t-73.5 -42t-98 -16q-62 0 -110.5 20.5t-79 58.5t-50.5 81.5t-30 101t-13.5 105t-3.5 104.5q0 49 2 89.5t9.5 91t19.5 90t34 78.5t51.5 65.5t73 42.5t97.5 16t98 -16t73.5 -42.5t51.5 -65.5t34.5 -79
t20 -90t9.5 -91t2 -89zM461 403v111q0 262 -109 262q-108 0 -108 -260v-110q0 -263 108 -263q109 0 109 260zM459 1108l-97 -57l-219 235l140 86z" />
    <glyph glyph-name="oacute" unicode="&#xf3;" horiz-adv-x="698" 
d="M637 457q0 -48 -2 -89t-9.5 -91t-20 -89.5t-34.5 -78.5t-51.5 -65t-73.5 -42t-98 -16q-62 0 -110.5 20.5t-79 58.5t-50.5 81.5t-30 101t-13.5 105t-3.5 104.5q0 49 2 89.5t9.5 91t19.5 90t34 78.5t51.5 65.5t73 42.5t97.5 16t98 -16t73.5 -42.5t51.5 -65.5t34.5 -79
t20 -90t9.5 -91t2 -89zM461 403v111q0 262 -109 262q-108 0 -108 -260v-110q0 -263 108 -263q109 0 109 260zM248 1108l176 264l139 -86l-219 -235z" />
    <glyph glyph-name="ocircumflex" unicode="&#xf4;" horiz-adv-x="698" 
d="M637 457q0 -48 -2 -89t-9.5 -91t-20 -89.5t-34.5 -78.5t-51.5 -65t-73.5 -42t-98 -16q-62 0 -110.5 20.5t-79 58.5t-50.5 81.5t-30 101t-13.5 105t-3.5 104.5q0 49 2 89.5t9.5 91t19.5 90t34 78.5t51.5 65.5t73 42.5t97.5 16t98 -16t73.5 -42.5t51.5 -65.5t34.5 -79
t20 -90t9.5 -91t2 -89zM461 403v111q0 262 -109 262q-108 0 -108 -260v-110q0 -263 108 -263q109 0 109 260zM575 1120l-83 -69l-142 151l-131 -151l-94 69l227 254z" />
    <glyph glyph-name="otilde" unicode="&#xf5;" horiz-adv-x="698" 
d="M637 457q0 -48 -2 -89t-9.5 -91t-20 -89.5t-34.5 -78.5t-51.5 -65t-73.5 -42t-98 -16q-62 0 -110.5 20.5t-79 58.5t-50.5 81.5t-30 101t-13.5 105t-3.5 104.5q0 49 2 89.5t9.5 91t19.5 90t34 78.5t51.5 65.5t73 42.5t97.5 16t98 -16t73.5 -42.5t51.5 -65.5t34.5 -79
t20 -90t9.5 -91t2 -89zM461 403v111q0 262 -109 262q-108 0 -108 -260v-110q0 -263 108 -263q109 0 109 260zM487 1231h101q0 -78 -31 -129t-104 -51q-34 0 -87.5 28.5t-80.5 28.5q-41 0 -41 -49h-111q4 76 35.5 128t101.5 52q42 0 100 -30.5t81 -30.5q11 0 18 6t9 10.5
t5 19.5t4 17z" />
    <glyph glyph-name="odieresis" unicode="&#xf6;" horiz-adv-x="698" 
d="M637 457q0 -48 -2 -89t-9.5 -91t-20 -89.5t-34.5 -78.5t-51.5 -65t-73.5 -42t-98 -16q-62 0 -110.5 20.5t-79 58.5t-50.5 81.5t-30 101t-13.5 105t-3.5 104.5q0 49 2 89.5t9.5 91t19.5 90t34 78.5t51.5 65.5t73 42.5t97.5 16t98 -16t73.5 -42.5t51.5 -65.5t34.5 -79
t20 -90t9.5 -91t2 -89zM461 403v111q0 262 -109 262q-108 0 -108 -260v-110q0 -263 108 -263q109 0 109 260zM594 1153q0 -43 -29.5 -72.5t-72.5 -29.5t-73 29.5t-30 72.5t30 72.5t73 29.5t72.5 -29.5t29.5 -72.5zM291 1153q0 -43 -30 -72.5t-73 -29.5t-72.5 29.5
t-29.5 72.5t29.5 72.5t72.5 29.5t73 -29.5t30 -72.5z" />
    <glyph glyph-name="divide" unicode="&#xf7;" 
d="M621 1053q0 -44 -32.5 -76.5t-76.5 -32.5t-76.5 32.5t-32.5 76.5t32.5 76t76.5 32t76.5 -32t32.5 -76zM956 606h-888v156h888v-156zM621 315q0 -44 -32.5 -76t-76.5 -32t-76.5 32t-32.5 76t32.5 76.5t76.5 32.5t76.5 -32.5t32.5 -76.5z" />
    <glyph glyph-name="oslash" unicode="&#xf8;" horiz-adv-x="747" 
d="M686 903l-80 -131q49 -121 49 -336q0 -48 -2.5 -88.5t-10.5 -88t-20.5 -85.5t-34.5 -74t-51.5 -60.5t-72.5 -39t-96 -14.5q-114 0 -189 75l-47 -77l-70 45l70 112q-51 118 -51 334q0 56 4 103.5t14 102.5t30.5 97t51 77.5t78.5 55t109 19.5q60 0 102.5 -17.5t85.5 -58.5
l57 92zM264 356l191 342q-14 39 -32.5 58.5t-55.5 19.5q-107 0 -107 -252q0 -58 4 -168zM475 559l-192 -344q22 -84 90 -84q19 0 35 7t26.5 22t19 30t13 40t7.5 42t4 45.5t1.5 41.5t0 40t-0.5 31q0 43 -4 129z" />
    <glyph glyph-name="ugrave" unicode="&#xf9;" horiz-adv-x="735" 
d="M641 915v-618q0 -161 -62 -237t-219 -76q-143 0 -213 92q-51 66 -51 221v618h168v-548q0 -10 1 -32t1 -32q1 -30 2 -46.5t7 -41t16 -37.5t30 -23t48 -10q26 0 45.5 7t30.5 22.5t17.5 30.5t8.5 39.5t2 40.5t-1 43t-1 39v548h170zM479 1108l-96 -57l-219 235l139 86z" />
    <glyph glyph-name="uacute" unicode="&#xfa;" horiz-adv-x="735" 
d="M641 915v-618q0 -161 -62 -237t-219 -76q-143 0 -213 92q-51 66 -51 221v618h168v-548q0 -10 1 -32t1 -32q1 -30 2 -46.5t7 -41t16 -37.5t30 -23t48 -10q26 0 45.5 7t30.5 22.5t17.5 30.5t8.5 39.5t2 40.5t-1 43t-1 39v548h170zM258 1108l176 264l139 -86l-219 -235z" />
    <glyph glyph-name="ucircumflex" unicode="&#xfb;" horiz-adv-x="735" 
d="M641 915v-618q0 -161 -62 -237t-219 -76q-143 0 -213 92q-51 66 -51 221v618h168v-548q0 -10 1 -32t1 -32q1 -30 2 -46.5t7 -41t16 -37.5t30 -23t48 -10q26 0 45.5 7t30.5 22.5t17.5 30.5t8.5 39.5t2 40.5t-1 43t-1 39v548h170zM594 1120l-84 -69l-141 151l-131 -151
l-95 69l228 254z" />
    <glyph glyph-name="udieresis" unicode="&#xfc;" horiz-adv-x="735" 
d="M641 915v-618q0 -161 -62 -237t-219 -76q-143 0 -213 92q-51 66 -51 221v618h168v-548q0 -10 1 -32t1 -32q1 -30 2 -46.5t7 -41t16 -37.5t30 -23t48 -10q26 0 45.5 7t30.5 22.5t17.5 30.5t8.5 39.5t2 40.5t-1 43t-1 39v548h170zM612 1153q0 -43 -29.5 -72.5t-72.5 -29.5
t-72.5 29.5t-29.5 72.5t29.5 72.5t72.5 29.5t72.5 -29.5t29.5 -72.5zM309 1153q0 -43 -29.5 -72.5t-72.5 -29.5t-73 29.5t-30 72.5t30 72.5t73 29.5t72.5 -29.5t29.5 -72.5z" />
    <glyph glyph-name="yacute" unicode="&#xfd;" horiz-adv-x="667" 
d="M662 915l-379 -1300h-179l146 459l-244 841h193l133 -639l157 639h173zM244 1108l176 264l139 -86l-219 -235z" />
    <glyph glyph-name="thorn" unicode="&#xfe;" horiz-adv-x="714" 
d="M266 1493v-696q32 68 67.5 100.5t102.5 32.5q44 0 79.5 -20t57.5 -49t38.5 -76t24 -85.5t12 -94t5 -85.5t0.5 -74t-0.5 -74.5t-5 -82.5t-13 -89t-24.5 -80t-39 -70t-58.5 -45.5t-80.5 -18.5q-62 0 -98 27.5t-68 88.5v-487h-170v1878h170zM479 459q0 3 0.5 31t0 41
t-1.5 44t-4.5 49t-8 45t-13 43t-20 32.5t-27.5 24t-36 7.5q-111 0 -109 -303v-14q0 -151 17 -218q26 -102 92 -102q20 0 36 7.5t27.5 24.5t20 33t13 43.5t8 45.5t4.5 49t1.5 44.5t0 41.5t-0.5 31z" />
    <glyph glyph-name="ydieresis" unicode="&#xff;" horiz-adv-x="667" 
d="M662 915l-379 -1300h-179l146 459l-244 841h193l133 -639l157 639h173zM578 1153q0 -43 -30 -72.5t-73 -29.5t-72.5 29.5t-29.5 72.5t29.5 72.5t72.5 29.5t73 -29.5t30 -72.5zM274 1153q0 -43 -29.5 -72.5t-72.5 -29.5t-72.5 29.5t-29.5 72.5t29.5 72.5t72.5 29.5
t72.5 -29.5t29.5 -72.5z" />
    <glyph glyph-name="Amacron" unicode="&#x100;" horiz-adv-x="737" 
d="M735 0h-182l-51 266h-271l-51 -266h-178l297 1366h145zM258 408h217q-79 439 -106 692q-21 -213 -111 -692zM598 1499h-459v127h459v-127z" />
    <glyph glyph-name="amacron" unicode="&#x101;" horiz-adv-x="714" 
d="M618 0h-169v117q-30 -66 -66.5 -98.5t-101.5 -32.5q-45 0 -80.5 19.5t-58 48.5t-39 75t-24.5 85t-12.5 94t-5 85.5t-0.5 75.5q0 44 1 75t5.5 83t12.5 89t24.5 80t39.5 70t58.5 45.5t80.5 18.5q59 0 97.5 -30t68.5 -89v104h169v-915zM455 408v98q0 270 -109 270
q-110 0 -110 -256v-125q0 -258 110 -258q109 0 109 271zM588 1087h-459v127h459v-127z" />
    <glyph glyph-name="Abreve" unicode="&#x102;" horiz-adv-x="737" 
d="M735 0h-182l-51 266h-271l-51 -266h-178l297 1366h145zM258 408h217q-79 439 -106 692q-21 -213 -111 -692zM508 1661h113q-10 -94 -81 -142.5t-171 -48.5t-171 48.5t-81 142.5h112q33 -72 140 -72q106 0 139 72z" />
    <glyph glyph-name="abreve" unicode="&#x103;" horiz-adv-x="714" 
d="M618 0h-169v117q-30 -66 -66.5 -98.5t-101.5 -32.5q-45 0 -80.5 19.5t-58 48.5t-39 75t-24.5 85t-12.5 94t-5 85.5t-0.5 75.5q0 44 1 75t5.5 83t12.5 89t24.5 80t39.5 70t58.5 45.5t80.5 18.5q59 0 97.5 -30t68.5 -89v104h169v-915zM455 408v98q0 270 -109 270
q-110 0 -110 -256v-125q0 -258 110 -258q109 0 109 271zM487 1241h113q-10 -94 -81 -142t-171 -48t-171 48t-81 142h113q33 -72 139 -72t139 72z" />
    <glyph glyph-name="Aogonek" unicode="&#x104;" horiz-adv-x="731" 
d="M299 1366h145l291 -1366h-90q-20 -21 -55 -74q-27 -46 -27 -76q0 -26 17 -43q15 -18 49 -18q39 0 69 23v-105q-40 -24 -92 -24q-64 0 -104 32q-47 38 -47 103q0 46 30 98q26 42 68 84l-51 266h-271l-51 -266h-178zM258 408h217l-12 67q-10 52 -47 279q-27 164 -47 346
q-9 -110 -43 -322q-12 -78 -33.5 -189.5t-24.5 -125.5z" />
    <glyph glyph-name="aogonek" unicode="&#x105;" horiz-adv-x="714" 
d="M449 915h169v-915h-75q-29 -38 -47 -74q-23 -41 -23 -78q0 -30 16 -43q19 -16 50 -16q39 0 75 23v-105q-50 -24 -96 -24q-64 0 -104 32q-49 38 -49 105q0 47 28 98q16 31 56 82v117q-23 -57 -56 -90q-41 -41 -112 -41q-69 0 -117 45q-62 59 -82.5 171.5t-20.5 266.5v47
q0 266 95 363q51 51 127 51q61 0 106 -37q33 -26 60 -82v104zM455 408v98q0 192 -54 246q-24 24 -55 24q-36 0 -61 -28q-49 -58 -49 -228v-125q0 -180 53 -233q25 -25 57 -25q33 0 53 23q56 60 56 248z" />
    <glyph glyph-name="Cacute" unicode="&#x106;" horiz-adv-x="690" 
d="M641 188v-168q-40 -24 -69.5 -31t-79.5 -7q-414 0 -414 677q0 70 3 129.5t13 136.5t27 138t48 123.5t73 104t104.5 67.5t140.5 26q47 0 79.5 -9t74.5 -32v-165q-63 34 -119 34q-40 0 -73.5 -13.5t-58 -34t-43.5 -55t-31.5 -66t-21 -76.5t-13 -78.5t-6.5 -80.5t-2.5 -72.5
t-0.5 -65.5q0 -47 1.5 -85t7.5 -93t16 -97.5t29.5 -88t46 -75.5t67.5 -49.5t92 -19.5q56 0 109 26zM391 1546l176 264l140 -86l-220 -235z" />
    <glyph glyph-name="cacute" unicode="&#x107;" horiz-adv-x="518" 
d="M469 180v-157q-36 -22 -64.5 -29.5t-70.5 -7.5q-273 0 -273 467q0 47 2 86.5t8.5 90.5t18 91t32.5 80.5t49.5 67.5t71 44t95.5 17q69 0 131 -33v-172q-34 43 -84 43q-28 0 -50.5 -12.5t-37 -30.5t-24.5 -47t-15.5 -53t-8 -58.5t-3 -54t-0.5 -47.5q0 -320 137 -320
q45 0 86 35zM238 1108l176 264l139 -86l-219 -235z" />
    <glyph glyph-name="Ccircumflex" unicode="&#x108;" horiz-adv-x="690" 
d="M641 188v-168q-40 -24 -69.5 -31t-79.5 -7q-414 0 -414 677q0 70 3 129.5t13 136.5t27 138t48 123.5t73 104t104.5 67.5t140.5 26q47 0 79.5 -9t74.5 -32v-165q-63 34 -119 34q-40 0 -73.5 -13.5t-58 -34t-43.5 -55t-31.5 -66t-21 -76.5t-13 -78.5t-6.5 -80.5t-2.5 -72.5
t-0.5 -65.5q0 -47 1.5 -85t7.5 -93t16 -97.5t29.5 -88t46 -75.5t67.5 -49.5t92 -19.5q56 0 109 26zM717 1559l-84 -70l-141 151l-132 -151l-94 70l228 253z" />
    <glyph glyph-name="ccircumflex" unicode="&#x109;" horiz-adv-x="518" 
d="M469 180v-157q-36 -22 -64.5 -29.5t-70.5 -7.5q-273 0 -273 467q0 47 2 86.5t8.5 90.5t18 91t32.5 80.5t49.5 67.5t71 44t95.5 17q69 0 131 -33v-172q-34 43 -84 43q-28 0 -50.5 -12.5t-37 -30.5t-24.5 -47t-15.5 -53t-8 -58.5t-3 -54t-0.5 -47.5q0 -320 137 -320
q45 0 86 35zM553 1120l-84 -69l-141 151l-131 -151l-95 69l228 254z" />
    <glyph glyph-name="Cdotaccent" unicode="&#x10a;" horiz-adv-x="690" 
d="M641 188v-168q-40 -24 -69.5 -31t-79.5 -7q-414 0 -414 677q0 70 3 129.5t13 136.5t27 138t48 123.5t73 104t104.5 67.5t140.5 26q47 0 79.5 -9t74.5 -32v-165q-63 34 -119 34q-40 0 -73.5 -13.5t-58 -34t-43.5 -55t-31.5 -66t-21 -76.5t-13 -78.5t-6.5 -80.5t-2.5 -72.5
t-0.5 -65.5q0 -47 1.5 -85t7.5 -93t16 -97.5t29.5 -88t46 -75.5t67.5 -49.5t92 -19.5q56 0 109 26zM588 1583q0 -44 -32 -75t-77 -31q-44 0 -76 31t-32 75t32 76.5t76 32.5t76.5 -32.5t32.5 -76.5z" />
    <glyph glyph-name="cdotaccent" unicode="&#x10b;" horiz-adv-x="518" 
d="M469 180v-157q-36 -22 -64.5 -29.5t-70.5 -7.5q-273 0 -273 467q0 47 2 86.5t8.5 90.5t18 91t32.5 80.5t49.5 67.5t71 44t95.5 17q69 0 131 -33v-172q-34 43 -84 43q-28 0 -50.5 -12.5t-37 -30.5t-24.5 -47t-15.5 -53t-8 -58.5t-3 -54t-0.5 -47.5q0 -320 137 -320
q45 0 86 35zM446 1157q0 -44 -32 -75t-76 -31q-45 0 -77 31t-32 75t32.5 76.5t76.5 32.5t76 -32.5t32 -76.5z" />
    <glyph glyph-name="Ccaron" unicode="&#x10c;" horiz-adv-x="690" 
d="M641 188v-168q-40 -24 -69.5 -31t-79.5 -7q-414 0 -414 677q0 70 3 129.5t13 136.5t27 138t48 123.5t73 104t104.5 67.5t140.5 26q47 0 79.5 -9t74.5 -32v-165q-63 34 -119 34q-40 0 -73.5 -13.5t-58 -34t-43.5 -55t-31.5 -66t-21 -76.5t-13 -78.5t-6.5 -80.5t-2.5 -72.5
t-0.5 -65.5q0 -47 1.5 -85t7.5 -93t16 -97.5t29.5 -88t46 -75.5t67.5 -49.5t92 -19.5q56 0 109 26zM717 1743l-223 -254l-228 254l94 69l132 -151l141 151z" />
    <glyph glyph-name="ccaron" unicode="&#x10d;" horiz-adv-x="518" 
d="M469 180v-157q-36 -22 -64.5 -29.5t-70.5 -7.5q-273 0 -273 467q0 47 2 86.5t8.5 90.5t18 91t32.5 80.5t49.5 67.5t71 44t95.5 17q69 0 131 -33v-172q-34 43 -84 43q-28 0 -50.5 -12.5t-37 -30.5t-24.5 -47t-15.5 -53t-8 -58.5t-3 -54t-0.5 -47.5q0 -320 137 -320
q45 0 86 35zM563 1305l-223 -254l-227 254l94 69l131 -151l141 151z" />
    <glyph glyph-name="Dcaron" unicode="&#x10e;" horiz-adv-x="841" 
d="M104 1366h228q109 0 178.5 -25t130.5 -100q42 -51 69 -122t37.5 -157.5t13.5 -147.5t3 -150q0 -83 -3.5 -144t-15 -144.5t-40 -151.5t-72.5 -115q-64 -68 -157.5 -88.5t-221.5 -20.5h-150v1366zM289 160h8q126 0 182.5 57t77.5 186q14 98 14 254q0 161 -12 267
q-8 67 -21.5 112.5t-40 88.5t-73 64t-113.5 21h-22v-1050zM614 1743l-223 -254l-227 254l94 69l131 -151l141 151z" />
    <glyph glyph-name="dcaron" unicode="&#x10f;" horiz-adv-x="907" 
d="M618 0h-169v117q-30 -66 -66.5 -98.5t-101.5 -32.5q-45 0 -80.5 19.5t-58 48.5t-39 75t-24.5 85t-12.5 94t-5 85.5t-0.5 75.5q0 44 1 75.5t5.5 83.5t12.5 89t25 80t40 70t59 45t81 18q61 0 97.5 -29t66.5 -90v682h169v-1493zM455 408v98q0 270 -109 270q-110 0 -110 -256
v-125q0 -258 110 -258q109 0 109 271zM928 1366l-146 -387l-92 27l90 403z" />
    <glyph glyph-name="Dcroat" unicode="&#x110;" horiz-adv-x="841" 
d="M104 1366h228q110 0 180 -24.5t129 -100.5q41 -53 67.5 -123.5t37.5 -153t14.5 -146t3.5 -148.5q0 -84 -3.5 -145.5t-15 -146t-40 -153.5t-72.5 -116q-64 -68 -157.5 -88.5t-221.5 -20.5h-150v676h-102v141h102v549zM289 676v-516q129 -1 188 55t80 186q14 98 14 256
q0 159 -12 265q-8 68 -21.5 114.5t-40.5 89t-74 63.5t-114 21h-20v-393h178v-141h-178z" />
    <glyph glyph-name="dcroat" unicode="&#x111;" horiz-adv-x="731" 
d="M618 1067v-1067h-169v117q-30 -66 -66.5 -98.5t-101.5 -32.5q-45 0 -80.5 19.5t-58 48.5t-39 74t-24.5 83t-12.5 90t-5 80.5t-0.5 67.5q0 37 1 64.5t5.5 75.5t12.5 84t25 77.5t40 68t59 44.5t81 18q61 0 97.5 -29t66.5 -90v305h-218v131h218v295h169v-295h103v-131h-103z
M455 408v49q0 270 -109 270q-110 0 -110 -256v-76q0 -258 110 -258q109 0 109 271z" />
    <glyph glyph-name="Emacron" unicode="&#x112;" horiz-adv-x="657" 
d="M594 0h-490v1366h490v-156h-305v-434h270v-155h-270v-465h305v-156zM578 1499h-459v127h459v-127z" />
    <glyph glyph-name="emacron" unicode="&#x113;" horiz-adv-x="667" 
d="M612 424h-385q0 -293 117 -293q32 0 54 17.5t32.5 46.5t14.5 56.5t4 57.5h157q-4 -120 -35 -184q-32 -67 -92.5 -103t-136.5 -36q-54 0 -97 16t-72 42t-50 65t-32.5 78t-18.5 89.5t-9 90t-2 88.5q0 47 2 86.5t8.5 90t18 90.5t32.5 80.5t49.5 67t71 43.5t95.5 17t96 -18.5
t71 -47.5t49 -74t31.5 -86.5t17 -96.5t8 -94.5t1.5 -88.5zM227 547h213q-6 110 -17 151q-26 87 -89 88q-94 0 -106 -227q-1 -8 -1 -12zM563 1087h-459v127h459v-127z" />
    <glyph glyph-name="Edotaccent" unicode="&#x116;" horiz-adv-x="657" 
d="M594 0h-490v1366h490v-156h-305v-434h270v-155h-270v-465h305v-156zM457 1583q0 -44 -32 -75t-77 -31q-44 0 -76 31t-32 75t32 76.5t76 32.5t76.5 -32.5t32.5 -76.5z" />
    <glyph glyph-name="edotaccent" unicode="&#x117;" horiz-adv-x="667" 
d="M612 424h-385q0 -293 117 -293q32 0 54 17.5t32.5 46.5t14.5 56.5t4 57.5h157q-4 -120 -35 -184q-32 -67 -92.5 -103t-136.5 -36q-54 0 -97 16t-72 42t-50 65t-32.5 78t-18.5 89.5t-9 90t-2 88.5q0 47 2 86.5t8.5 90t18 90.5t32.5 80.5t49.5 67t71 43.5t95.5 17t96 -18.5
t71 -47.5t49 -74t31.5 -86.5t17 -96.5t8 -94.5t1.5 -88.5zM227 547h213q-6 110 -17 151q-26 87 -89 88q-94 0 -106 -227q-1 -8 -1 -12zM442 1157q0 -44 -32 -75t-76 -31q-45 0 -77 31t-32 75t32.5 76.5t76.5 32.5t76 -32.5t32 -76.5z" />
    <glyph glyph-name="Eogonek" unicode="&#x118;" horiz-adv-x="657" 
d="M104 1366h490v-156h-305v-434h270v-155h-270v-465h305v-156h-53q-23 -25 -56 -74q-26 -44 -26 -76q0 -27 16 -43q15 -18 49 -18q40 0 70 23v-105q-40 -24 -92 -24q-65 0 -105 32q-47 38 -47 103q0 45 31 98q26 42 68 84h-345v1366z" />
    <glyph glyph-name="eogonek" unicode="&#x119;" horiz-adv-x="667" 
d="M612 424h-385v-8q0 -204 60 -262q26 -23 57 -23q36 0 59 23q46 41 46 155h157q0 -83 -22 -157q-18 -60 -76 -125q-8 -10 -30.5 -34t-39 -43t-28.5 -36q-25 -37 -25 -66q0 -24 14 -41q14 -18 47 -18q35 0 80 23v-105q-40 -24 -92 -24q-68 0 -108 32q-50 39 -50 105
q0 44 35 98q18 28 60 70q-14 -2 -39 -2q-101 0 -166 65q-105 105 -105 404q0 300 105 407q65 68 174 68q95 0 160 -62q112 -108 112 -397v-47zM227 547h213q-3 56 -5.5 84.5t-14.5 71t-33 63.5q-20 20 -51 20q-36 0 -57 -24q-26 -27 -37.5 -76.5t-14.5 -138.5z" />
    <glyph glyph-name="Ecaron" unicode="&#x11a;" horiz-adv-x="657" 
d="M594 0h-490v1366h490v-156h-305v-434h270v-155h-270v-465h305v-156zM573 1743l-223 -254l-227 254l94 69l131 -151l141 151z" />
    <glyph glyph-name="ecaron" unicode="&#x11b;" horiz-adv-x="667" 
d="M612 424h-385q0 -293 117 -293q32 0 54 17.5t32.5 46.5t14.5 56.5t4 57.5h157q-4 -120 -35 -184q-32 -67 -92.5 -103t-136.5 -36q-54 0 -97 16t-72 42t-50 65t-32.5 78t-18.5 89.5t-9 90t-2 88.5q0 47 2 86.5t8.5 90t18 90.5t32.5 80.5t49.5 67t71 43.5t95.5 17t96 -18.5
t71 -47.5t49 -74t31.5 -86.5t17 -96.5t8 -94.5t1.5 -88.5zM227 547h213q-6 110 -17 151q-26 87 -89 88q-94 0 -106 -227q-1 -8 -1 -12zM559 1305l-223 -254l-227 254l94 69l131 -151l141 151z" />
    <glyph glyph-name="Gcircumflex" unicode="&#x11c;" horiz-adv-x="843" 
d="M766 719v-53q0 -112 -1 -162.5t-10 -142t-28 -158.5q-62 -221 -289 -221q-68 0 -121.5 19t-89.5 51t-62 80t-41 99.5t-26 116.5q-20 136 -20 328q0 317 49 483q68 223 303 223q139 0 213 -68.5t115 -209.5l-172 -72q-7 34 -12.5 56t-17.5 49.5t-27.5 44t-41.5 28
t-59 11.5q-41 0 -65.5 -16.5t-45.5 -55.5q-49 -91 -49 -467q0 -241 25 -375q14 -74 44 -113.5t97 -39.5q37 0 65 14.5t44.5 42t27 55.5t15 68.5t5.5 66t1 62.5v100h-160v156h334zM647 1559l-84 -70l-141 151l-131 -151l-94 70l227 253z" />
    <glyph glyph-name="gcircumflex" unicode="&#x11d;" horiz-adv-x="714" 
d="M621 915v-976q0 -164 -63.5 -244t-223.5 -80q-117 0 -188.5 70.5t-71.5 187.5q0 5 1 15.5t1 15.5h164q0 -148 108 -148q28 0 48 10t30.5 24t16.5 37.5t7 42t1 46.5v197q-27 -62 -65.5 -94.5t-100.5 -32.5q-45 0 -81 18.5t-59 46.5t-40 72t-25 82t-12.5 90.5t-5.5 84
t-1 75.5q0 46 0.5 77t5 85.5t13 92t25 82.5t39.5 72.5t59 46.5t82 19q60 0 96 -31t70 -94v110h170zM453 469q0 307 -113 307q-19 0 -34.5 -8.5t-26 -27t-18.5 -37t-12.5 -48t-7.5 -50t-4 -53.5t-1.5 -49t0 -45t0.5 -32q0 -289 114 -289q22 0 39 8.5t27.5 27.5t17 34t10 43.5
t4.5 40.5t3 39q2 47 2 139zM584 1120l-84 -69l-142 151l-131 -151l-94 69l227 254z" />
    <glyph glyph-name="Gbreve" unicode="&#x11e;" horiz-adv-x="843" 
d="M766 719v-53q0 -112 -1 -162.5t-10 -142t-28 -158.5q-62 -221 -289 -221q-68 0 -121.5 19t-89.5 51t-62 80t-41 99.5t-26 116.5q-20 136 -20 328q0 317 49 483q68 223 303 223q139 0 213 -68.5t115 -209.5l-172 -72q-7 34 -12.5 56t-17.5 49.5t-27.5 44t-41.5 28
t-59 11.5q-41 0 -65.5 -16.5t-45.5 -55.5q-49 -91 -49 -467q0 -241 25 -375q14 -74 44 -113.5t97 -39.5q37 0 65 14.5t44.5 42t27 55.5t15 68.5t5.5 66t1 62.5v100h-160v156h334zM561 1661h113q-10 -94 -81 -142.5t-171 -48.5t-171 48.5t-81 142.5h113q33 -72 139 -72
t139 72z" />
    <glyph glyph-name="gbreve" unicode="&#x11f;" horiz-adv-x="714" 
d="M621 915v-976q0 -164 -63.5 -244t-223.5 -80q-117 0 -188.5 70.5t-71.5 187.5q0 5 1 15.5t1 15.5h164q0 -148 108 -148q28 0 48 10t30.5 24t16.5 37.5t7 42t1 46.5v197q-27 -62 -65.5 -94.5t-100.5 -32.5q-45 0 -81 18.5t-59 46.5t-40 72t-25 82t-12.5 90.5t-5.5 84
t-1 75.5q0 46 0.5 77t5 85.5t13 92t25 82.5t39.5 72.5t59 46.5t82 19q60 0 96 -31t70 -94v110h170zM453 469q0 307 -113 307q-19 0 -34.5 -8.5t-26 -27t-18.5 -37t-12.5 -48t-7.5 -50t-4 -53.5t-1.5 -49t0 -45t0.5 -32q0 -289 114 -289q22 0 39 8.5t27.5 27.5t17 34t10 43.5
t4.5 40.5t3 39q2 47 2 139zM487 1241h113q-10 -94 -81 -142t-171 -48t-171 48t-81 142h113q33 -72 139 -72t139 72z" />
    <glyph glyph-name="Gdotaccent" unicode="&#x120;" horiz-adv-x="843" 
d="M766 719v-53q0 -112 -1 -162.5t-10 -142t-28 -158.5q-62 -221 -289 -221q-68 0 -121.5 19t-89.5 51t-62 80t-41 99.5t-26 116.5q-20 136 -20 328q0 317 49 483q68 223 303 223q139 0 213 -68.5t115 -209.5l-172 -72q-7 34 -12.5 56t-17.5 49.5t-27.5 44t-41.5 28
t-59 11.5q-41 0 -65.5 -16.5t-45.5 -55.5q-49 -91 -49 -467q0 -241 25 -375q14 -74 44 -113.5t97 -39.5q37 0 65 14.5t44.5 42t27 55.5t15 68.5t5.5 66t1 62.5v100h-160v156h334zM530 1583q0 -44 -32 -75t-76 -31q-45 0 -77 31t-32 75t32.5 76.5t76.5 32.5t76 -32.5
t32 -76.5z" />
    <glyph glyph-name="gdotaccent" unicode="&#x121;" horiz-adv-x="714" 
d="M621 915v-976q0 -164 -63.5 -244t-223.5 -80q-117 0 -188.5 70.5t-71.5 187.5q0 5 1 15.5t1 15.5h164q0 -148 108 -148q28 0 48 10t30.5 24t16.5 37.5t7 42t1 46.5v197q-27 -62 -65.5 -94.5t-100.5 -32.5q-45 0 -81 18.5t-59 46.5t-40 72t-25 82t-12.5 90.5t-5.5 84
t-1 75.5q0 46 0.5 77t5 85.5t13 92t25 82.5t39.5 72.5t59 46.5t82 19q60 0 96 -31t70 -94v110h170zM453 469q0 307 -113 307q-19 0 -34.5 -8.5t-26 -27t-18.5 -37t-12.5 -48t-7.5 -50t-4 -53.5t-1.5 -49t0 -45t0.5 -32q0 -289 114 -289q22 0 39 8.5t27.5 27.5t17 34t10 43.5
t4.5 40.5t3 39q2 47 2 139zM426 1157q0 -44 -32 -75t-77 -31q-44 0 -76 31t-32 75t32 76.5t76 32.5t76.5 -32.5t32.5 -76.5z" />
    <glyph glyph-name="Gcommaaccent" unicode="&#x122;" horiz-adv-x="843" 
d="M766 719v-53q0 -112 -1 -162.5t-10 -142t-28 -158.5q-62 -221 -289 -221q-68 0 -121.5 19t-89.5 51t-62 80t-41 99.5t-26 116.5q-20 136 -20 328q0 317 49 483q68 223 303 223q139 0 213 -68.5t115 -209.5l-172 -72q-7 34 -12.5 56t-17.5 49.5t-27.5 44t-41.5 28
t-59 11.5q-41 0 -65.5 -16.5t-45.5 -55.5q-49 -91 -49 -467q0 -241 25 -375q14 -74 44 -113.5t97 -39.5q37 0 65 14.5t44.5 42t27 55.5t15 68.5t5.5 66t1 62.5v100h-160v156h334zM524 -141l-131 -342l-92 26l76 359z" />
    <glyph glyph-name="gcommaaccent" unicode="&#x123;" horiz-adv-x="714" 
d="M621 915v-976q0 -164 -63.5 -244t-223.5 -80q-117 0 -188.5 70.5t-71.5 187.5q0 5 1 15.5t1 15.5h164q0 -148 108 -148q28 0 48 10t30.5 24t16.5 37.5t7 42t1 46.5v197q-27 -62 -65.5 -94.5t-100.5 -32.5q-45 0 -81 18.5t-59 46.5t-40 72t-25 82t-12.5 90.5t-5.5 84
t-1 75.5q0 46 0.5 77t5 85.5t13 92t25 82.5t39.5 72.5t59 46.5t82 19q60 0 96 -31t70 -94v110h170zM453 469q0 307 -113 307q-19 0 -34.5 -8.5t-26 -27t-18.5 -37t-12.5 -48t-7.5 -50t-4 -53.5t-1.5 -49t0 -45t0.5 -32q0 -289 114 -289q22 0 39 8.5t27.5 27.5t17 34t10 43.5
t4.5 40.5t3 39q2 47 2 139zM240 1038l129 338l92 -26l-74 -355z" />
    <glyph glyph-name="Hcircumflex" unicode="&#x124;" horiz-adv-x="847" 
d="M743 0h-184v676h-270v-676h-185v1366h185v-535h270v535h184v-1366zM649 1559l-84 -70l-141 151l-131 -151l-94 70l227 253z" />
    <glyph glyph-name="hcircumflex" unicode="&#x125;" horiz-adv-x="733" 
d="M637 0h-168v610q-1 25 -1.5 38t-3.5 37.5t-9.5 38t-16.5 29t-27 22.5t-40 7q-26 0 -45 -8t-30 -24.5t-18 -32.5t-10 -42t-3.5 -41.5t-0.5 -41.5v-592h-168v1493h168v-684q38 62 80.5 91.5t108.5 29.5q46 0 80 -14.5t53.5 -37.5t31 -57.5t15.5 -68t4 -76.5v-676zM399 1612
l-84 -70l-141 152l-131 -152l-94 70l227 254z" />
    <glyph glyph-name="Hbar" unicode="&#x126;" horiz-adv-x="847" 
d="M743 0h-184v676h-270v-676h-185v1126h-98v131h98v109h185v-109h270v109h184v-109h99v-131h-99v-1126zM559 1126h-270v-295h270v295z" />
    <glyph glyph-name="hbar" unicode="&#x127;" horiz-adv-x="759" 
d="M664 0h-168v563q0 35 -2.5 57.5t-10.5 52t-29.5 45t-54.5 15.5q-26 0 -45.5 -8t-31 -25t-18.5 -32t-9.5 -42t-3 -41t-0.5 -42v-543h-168v1067h-103v131h103v295h168v-295h217v-131h-217v-307q38 62 80 91.5t108 29.5q46 0 80 -14.5t53.5 -37.5t31.5 -57.5t16 -68t4 -76.5
v-627z" />
    <glyph glyph-name="Imacron" unicode="&#x12a;" horiz-adv-x="395" 
d="M289 0h-185v1366h185v-1366zM420 1499h-459v127h459v-127z" />
    <glyph glyph-name="imacron" unicode="&#x12b;" horiz-adv-x="360" 
d="M264 0h-168v915h168v-915zM410 1087h-459v127h459v-127z" />
    <glyph glyph-name="Iogonek" unicode="&#x12e;" horiz-adv-x="395" 
d="M109 1366h184v-1366q-42 -34 -68 -66q-35 -44 -35 -84q0 -22 17 -43q15 -18 49 -18q37 0 70 23v-105q-40 -24 -93 -24q-62 0 -104 34q-47 38 -47 99q0 53 37 104q31 42 82 80h-92v1366z" />
    <glyph glyph-name="iogonek" unicode="&#x12f;" horiz-adv-x="360" 
d="M96 915h168v-915q-51 -64 -55 -70q-35 -50 -35 -82q0 -24 14 -41q16 -18 48 -18q34 0 79 23v-105q-40 -24 -92 -24q-68 0 -108 32q-49 38 -49 105q0 49 34 98q26 36 72 82h-76v915zM59 1190q0 46 34.5 80.5t80.5 34.5t80.5 -34.5t34.5 -80.5t-34.5 -80.5t-80.5 -34.5
t-80.5 34.5t-34.5 80.5z" />
    <glyph glyph-name="Idotaccent" unicode="&#x130;" horiz-adv-x="395" 
d="M289 0h-185v1366h185v-1366zM307 1583q0 -44 -32 -75t-76 -31q-45 0 -77 31t-32 75t32.5 76.5t76.5 32.5t76 -32.5t32 -76.5z" />
    <glyph glyph-name="dotlessi" unicode="&#x131;" horiz-adv-x="360" 
d="M264 0h-168v915h168v-915z" />
    <glyph glyph-name="Jcircumflex" unicode="&#x134;" horiz-adv-x="530" 
d="M424 1366v-1061q0 -102 -21 -164q-28 -80 -94 -119.5t-155 -39.5q-93 0 -158 36v185q28 -16 41 -23.5t37 -15.5t45 -8q29 0 51 8t34.5 25.5t20.5 33.5t11 45t3.5 45.5t0.5 47.5v8v997h184zM543 1559l-84 -70l-142 151l-131 -151l-94 70l227 253z" />
    <glyph glyph-name="jcircumflex" unicode="&#x135;" horiz-adv-x="360" 
d="M264 -385h-168v1300h168v-1300zM399 1120l-84 -69l-141 151l-131 -151l-94 69l227 254z" />
    <glyph glyph-name="Kcommaaccent" unicode="&#x136;" horiz-adv-x="761" 
d="M752 0h-207l-256 670v-670h-185v1366h185v-627l256 627h186l-276 -661zM512 -141l-131 -342l-92 26l76 359z" />
    <glyph glyph-name="kcommaaccent" unicode="&#x137;" horiz-adv-x="708" 
d="M700 0h-196l-240 446v-446h-168v1493h168v-973l215 395h191l-244 -417zM463 -141l-129 -338l-92 26l73 355z" />
    <glyph glyph-name="Lacute" unicode="&#x139;" horiz-adv-x="600" 
d="M590 0h-486v1366h185v-1210h301v-156zM115 1546l176 264l139 -86l-219 -235z" />
    <glyph glyph-name="lacute" unicode="&#x13a;" horiz-adv-x="360" 
d="M264 0h-168v1493h168v-1493zM90 1620l176 264l140 -86l-220 -235z" />
    <glyph glyph-name="Lcommaaccent" unicode="&#x13b;" horiz-adv-x="600" 
d="M590 0h-486v1366h185v-1210h301v-156zM430 -141l-131 -342l-92 26l76 359z" />
    <glyph glyph-name="lcommaaccent" unicode="&#x13c;" horiz-adv-x="360" 
d="M264 0h-168v1493h168v-1493zM268 -141l-129 -338l-92 26l74 355z" />
    <glyph glyph-name="Lcaron" unicode="&#x13d;" horiz-adv-x="600" 
d="M590 0h-486v1366h185v-1210h301v-156zM641 1366l-141 -387l-92 27l86 403z" />
    <glyph glyph-name="lcaron" unicode="&#x13e;" horiz-adv-x="559" 
d="M264 0h-168v1493h168v-1493zM580 1366l-146 -387l-92 27l90 403z" />
    <glyph glyph-name="Ldot" unicode="&#x13f;" horiz-adv-x="600" 
d="M590 0h-486v1366h185v-1210h301v-156zM616 684q0 -44 -32 -75t-76 -31q-45 0 -77 31t-32 75t32.5 76.5t76.5 32.5t76 -32.5t32 -76.5z" />
    <glyph glyph-name="ldot" unicode="&#x140;" horiz-adv-x="540" 
d="M264 0h-168v1493h168v-1493zM559 748q0 -44 -32 -75.5t-76 -31.5t-76.5 31.5t-32.5 75.5t32.5 76t76.5 32t76 -32t32 -76z" />
    <glyph glyph-name="Lslash" unicode="&#x141;" horiz-adv-x="600" 
d="M590 0h-486v471l-104 -115v181l104 114v715h185v-543l227 248v-180l-227 -248v-487h301v-156z" />
    <glyph glyph-name="lslash" unicode="&#x142;" horiz-adv-x="393" 
d="M283 1493v-573l110 118v-161l-110 -119v-758h-170v598l-113 -121v162l113 121v733h170z" />
    <glyph glyph-name="Nacute" unicode="&#x143;" horiz-adv-x="845" 
d="M741 0h-172q-163 483 -225 678q-39 119 -51 168q-6 26 -20.5 96.5t-24.5 108.5q7 -46 16 -207q15 -257 23 -844h-183v1366h172q9 -25 67.5 -195.5t76.5 -226.5t60 -186t69 -229t51 -201q-43 322 -43 520v518h184v-1366zM334 1546l176 264l139 -86l-219 -235z" />
    <glyph glyph-name="nacute" unicode="&#x144;" horiz-adv-x="733" 
d="M637 0h-168v594q-1 30 -1.5 45.5t-3.5 42t-9.5 40.5t-16.5 30t-27 23t-40 7q-26 0 -45 -8t-30 -24.5t-18 -32.5t-10 -42t-3.5 -41.5t-0.5 -41.5v-592h-168v915h168v-106q38 62 80.5 91.5t108.5 29.5q46 0 80 -14.5t53.5 -37.5t31 -57.5t15.5 -68t4 -76.5v-676zM299 1108
l176 264l139 -86l-219 -235z" />
    <glyph glyph-name="Ncommaaccent" unicode="&#x145;" horiz-adv-x="845" 
d="M741 0h-172q-163 483 -225 678q-39 119 -51 168q-6 26 -20.5 96.5t-24.5 108.5q7 -46 16 -207q15 -257 23 -844h-183v1366h172q9 -25 67.5 -195.5t76.5 -226.5t60 -186t69 -229t51 -201q-43 322 -43 520v518h184v-1366zM524 -141l-131 -342l-92 26l76 359z" />
    <glyph glyph-name="ncommaaccent" unicode="&#x146;" horiz-adv-x="733" 
d="M637 0h-168v594q-1 30 -1.5 45.5t-3.5 42t-9.5 40.5t-16.5 30t-27 23t-40 7q-26 0 -45 -8t-30 -24.5t-18 -32.5t-10 -42t-3.5 -41.5t-0.5 -41.5v-592h-168v915h168v-106q38 62 80.5 91.5t108.5 29.5q46 0 80 -14.5t53.5 -37.5t31 -57.5t15.5 -68t4 -76.5v-676zM473 -141
l-129 -338l-92 26l74 355z" />
    <glyph glyph-name="Ncaron" unicode="&#x147;" horiz-adv-x="845" 
d="M741 0h-172q-163 483 -225 678q-39 119 -51 168q-6 26 -20.5 96.5t-24.5 108.5q7 -46 16 -207q15 -257 23 -844h-183v1366h172q9 -25 67.5 -195.5t76.5 -226.5t60 -186t69 -229t51 -201q-43 322 -43 520v518h184v-1366zM649 1743l-223 -254l-227 254l94 69l131 -151
l141 151z" />
    <glyph glyph-name="ncaron" unicode="&#x148;" horiz-adv-x="733" 
d="M637 0h-168v594q-1 30 -1.5 45.5t-3.5 42t-9.5 40.5t-16.5 30t-27 23t-40 7q-26 0 -45 -8t-30 -24.5t-18 -32.5t-10 -42t-3.5 -41.5t-0.5 -41.5v-592h-168v915h168v-106q38 62 80.5 91.5t108.5 29.5q46 0 80 -14.5t53.5 -37.5t31 -57.5t15.5 -68t4 -76.5v-676zM614 1305
l-223 -254l-227 254l94 69l131 -151l141 151z" />
    <glyph glyph-name="Omacron" unicode="&#x14c;" horiz-adv-x="866" 
d="M788 657q0 -189 -20 -321q-13 -82 -34.5 -141.5t-58.5 -110t-97 -76.5t-142 -26q-190 0 -274 153q-84 152 -84 580q0 103 3.5 173t20.5 166t50 163q42 87 110.5 126t169.5 39q182 0 268 -145q39 -67 60 -183t24.5 -199t3.5 -198zM596 709q0 255 -29 378q-28 130 -135 130
q-66 0 -106 -58q-56 -79 -56 -397v-70v-76.5t1 -68.5t3 -76.5t5.5 -67.5t9.5 -73q6 -37 14.5 -64.5t24.5 -55.5t43 -43t63 -15q89 0 127 98q35 98 35 459zM664 1499h-459v127h459v-127z" />
    <glyph glyph-name="omacron" unicode="&#x14d;" horiz-adv-x="698" 
d="M637 457q0 -48 -2 -89t-9.5 -91t-20 -89.5t-34.5 -78.5t-51.5 -65t-73.5 -42t-98 -16q-62 0 -110.5 20.5t-79 58.5t-50.5 81.5t-30 101t-13.5 105t-3.5 104.5q0 49 2 89.5t9.5 91t19.5 90t34 78.5t51.5 65.5t73 42.5t97.5 16t98 -16t73.5 -42.5t51.5 -65.5t34.5 -79
t20 -90t9.5 -91t2 -89zM461 403v111q0 262 -109 262q-108 0 -108 -260v-110q0 -263 108 -263q109 0 109 260zM580 1087h-459v127h459v-127z" />
    <glyph glyph-name="Obreve" unicode="&#x14e;" horiz-adv-x="866" 
d="M788 657q0 -189 -20 -321q-13 -82 -34.5 -141.5t-58.5 -110t-97 -76.5t-142 -26q-190 0 -274 153q-84 152 -84 580q0 103 3.5 173t20.5 166t50 163q42 87 110.5 126t169.5 39q182 0 268 -145q39 -67 60 -183t24.5 -199t3.5 -198zM596 709q0 255 -29 378q-28 130 -135 130
q-66 0 -106 -58q-56 -79 -56 -397v-70v-76.5t1 -68.5t3 -76.5t5.5 -67.5t9.5 -73q6 -37 14.5 -64.5t24.5 -55.5t43 -43t63 -15q89 0 127 98q35 98 35 459zM573 1661h113q-10 -94 -81 -142.5t-171 -48.5t-171 48.5t-81 142.5h113q33 -72 139 -72t139 72z" />
    <glyph glyph-name="obreve" unicode="&#x14f;" horiz-adv-x="698" 
d="M637 457q0 -48 -2 -89t-9.5 -91t-20 -89.5t-34.5 -78.5t-51.5 -65t-73.5 -42t-98 -16q-62 0 -110.5 20.5t-79 58.5t-50.5 81.5t-30 101t-13.5 105t-3.5 104.5q0 49 2 89.5t9.5 91t19.5 90t34 78.5t51.5 65.5t73 42.5t97.5 16t98 -16t73.5 -42.5t51.5 -65.5t34.5 -79
t20 -90t9.5 -91t2 -89zM461 403v111q0 262 -109 262q-108 0 -108 -260v-110q0 -263 108 -263q109 0 109 260zM489 1241h113q-10 -94 -81 -142t-171 -48t-171 48t-81 142h113q33 -72 139 -72t139 72z" />
    <glyph glyph-name="Ohungarumlaut" unicode="&#x150;" horiz-adv-x="866" 
d="M788 657q0 -189 -20 -321q-13 -82 -34.5 -141.5t-58.5 -110t-97 -76.5t-142 -26q-190 0 -274 153q-84 152 -84 580q0 103 3.5 173t20.5 166t50 163q42 87 110.5 126t169.5 39q182 0 268 -145q39 -67 60 -183t24.5 -199t3.5 -198zM596 709q0 255 -29 378q-28 130 -135 130
q-66 0 -106 -58q-56 -79 -56 -397v-70v-76.5t1 -68.5t3 -76.5t5.5 -67.5t9.5 -73q6 -37 14.5 -64.5t24.5 -55.5t43 -43t63 -15q89 0 127 98q35 98 35 459zM717 1745l-158 -258l-80 43l125 282zM485 1745l-157 -258l-82 43l125 282z" />
    <glyph glyph-name="ohungarumlaut" unicode="&#x151;" horiz-adv-x="698" 
d="M637 457q0 -48 -2 -89t-9.5 -91t-20 -89.5t-34.5 -78.5t-51.5 -65t-73.5 -42t-98 -16q-62 0 -110.5 20.5t-79 58.5t-50.5 81.5t-30 101t-13.5 105t-3.5 104.5q0 49 2 89.5t9.5 91t19.5 90t34 78.5t51.5 65.5t73 42.5t97.5 16t98 -16t73.5 -42.5t51.5 -65.5t34.5 -79
t20 -90t9.5 -91t2 -89zM461 403v111q0 262 -109 262q-108 0 -108 -260v-110q0 -263 108 -263q109 0 109 260zM623 1307l-158 -258l-80 43l125 282zM391 1307l-158 -258l-81 43l124 282z" />
    <glyph glyph-name="OE" unicode="&#x152;" horiz-adv-x="1155" 
d="M1077 0h-475v106q-36 -64 -84.5 -94t-120.5 -30q-52 0 -95 17t-74 42.5t-55.5 69t-40 82t-26.5 97t-16.5 99t-8 102.5t-3 92.5t-0.5 84.5v6q0 331 51 495q31 98 98 155.5t166 57.5q139 0 201 -122v106h473v-156h-301v-434h276v-155h-276v-465h311v-156zM594 541v286v39
t-1 44.5t-3 52t-5 51t-9.5 53.5t-14.5 47t-20 44t-27 32.5t-35.5 23.5t-44.5 7q-29 0 -53 -13.5t-39.5 -30.5t-28 -50t-18.5 -54.5t-12 -63t-7 -55.5t-4 -51q-6 -108 -6 -219q0 -108 6 -219q12 -152 40 -218q41 -96 122 -97q29 0 53 11.5t40.5 35t28.5 47t19 61t11 63
t5.5 66.5t2 57.5t0.5 49.5z" />
    <glyph glyph-name="oe" unicode="&#x153;" horiz-adv-x="1073" 
d="M1012 424h-387q6 -129 19 -181q29 -112 101 -112q41 0 66 32t32 68.5t7 77.5h158q-2 -66 -18 -122t-47 -102t-83 -72.5t-121 -26.5q-72 0 -116.5 29.5t-81.5 95.5q-32 -67 -78 -96t-121 -29q-54 0 -97 17t-71.5 44t-50 68t-33 81.5t-18.5 92t-9 92t-2 88.5q0 250 76 356
q35 49 92 77t119 28q141 0 195 -123q60 123 196 123q54 0 97 -19t71 -47.5t48.5 -73.5t31 -86.5t16.5 -97t7.5 -94t1.5 -88.5zM629 541h209q-3 125 -22 175q-27 71 -85 72q-102 0 -102 -194v-53zM461 457q0 319 -111 319q-115 0 -114 -310v-3v-3v-3v-36.5t1 -45t4 -54
t7.5 -52t13 -52t19.5 -40t28 -30.5t37 -10q28 0 48.5 16t32.5 47t19.5 59.5t10.5 71.5t3.5 64t0.5 54v8z" />
    <glyph glyph-name="Racute" unicode="&#x154;" horiz-adv-x="763" 
d="M727 0h-188l-250 637v-637h-185v1366h244q67 0 112 -9.5t87 -41.5q117 -89 117 -305q0 -55 -9 -106t-29 -102t-61 -88t-98 -50zM289 1214v-454q94 0 133 33q63 53 63 184q0 119 -36 180q-21 35 -52 46t-78 11h-30zM258 1546l176 264l139 -86l-219 -235z" />
    <glyph glyph-name="racute" unicode="&#x155;" horiz-adv-x="483" 
d="M463 936v-176q-10 2 -31 2q-97 0 -132.5 -52t-35.5 -155v-555h-168v915h168v-114q41 69 83.5 100t115.5 35zM166 1108l176 264l139 -86l-219 -235z" />
    <glyph glyph-name="Rcommaaccent" unicode="&#x156;" horiz-adv-x="763" 
d="M727 0h-188l-250 637v-637h-185v1366h244q67 0 112 -9.5t87 -41.5q117 -89 117 -305q0 -55 -9 -106t-29 -102t-61 -88t-98 -50zM289 1214v-454q94 0 133 33q63 53 63 184q0 119 -36 180q-21 35 -52 46t-78 11h-30zM500 -141l-131 -342l-93 26l76 359z" />
    <glyph glyph-name="rcommaaccent" unicode="&#x157;" horiz-adv-x="483" 
d="M463 936v-176q-10 2 -31 2q-97 0 -132.5 -52t-35.5 -155v-555h-168v915h168v-114q41 69 83.5 100t115.5 35zM360 -141l-129 -338l-92 26l74 355z" />
    <glyph glyph-name="Rcaron" unicode="&#x158;" horiz-adv-x="763" 
d="M727 0h-188l-250 637v-637h-185v1366h244q67 0 112 -9.5t87 -41.5q117 -89 117 -305q0 -55 -9 -106t-29 -102t-61 -88t-98 -50zM289 1214v-454q94 0 133 33q63 53 63 184q0 119 -36 180q-21 35 -52 46t-78 11h-30zM573 1743l-223 -254l-227 254l94 69l131 -151l141 151z
" />
    <glyph glyph-name="rcaron" unicode="&#x159;" horiz-adv-x="483" 
d="M463 936v-176q-10 2 -31 2q-97 0 -132.5 -52t-35.5 -155v-555h-168v915h168v-114q41 69 83.5 100t115.5 35zM492 1305l-224 -254l-227 254l94 69l131 -151l142 151z" />
    <glyph glyph-name="Sacute" unicode="&#x15a;" horiz-adv-x="675" 
d="M561 1337l-2 -180q-80 62 -149 62q-75 0 -120.5 -53t-45.5 -130q0 -51 21 -97.5t54.5 -84.5t74.5 -77t81.5 -82.5t74 -92t54.5 -115t21 -143.5q0 -150 -85.5 -256t-232.5 -106q-117 0 -201 65v182q95 -71 179 -71q78 0 119.5 53t41.5 133q0 57 -21 107.5t-55 89.5
t-74.5 77.5t-81.5 80t-75 88t-55 110t-21 137.5q0 154 79.5 251t230.5 97q57 0 97 -9.5t91 -35.5zM289 1546l176 264l139 -86l-219 -235z" />
    <glyph glyph-name="sacute" unicode="&#x15b;" horiz-adv-x="532" 
d="M449 897v-158q-57 45 -130 45q-44 0 -76 -29.5t-32 -72.5q0 -41 29 -76t70.5 -65t83.5 -65t71 -91.5t29 -128.5q0 -121 -71.5 -195.5t-191.5 -74.5q-47 0 -77 9t-72 34v164q73 -56 139 -56q55 0 86 30t31 85q0 45 -29.5 83.5t-71.5 70t-84.5 66.5t-72 90t-29.5 124
q0 110 68.5 180t177.5 70q81 0 152 -39zM197 1108l176 264l139 -86l-219 -235z" />
    <glyph glyph-name="Scircumflex" unicode="&#x15c;" horiz-adv-x="675" 
d="M561 1337l-2 -180q-80 62 -149 62q-75 0 -120.5 -53t-45.5 -130q0 -51 21 -97.5t54.5 -84.5t74.5 -77t81.5 -82.5t74 -92t54.5 -115t21 -143.5q0 -150 -85.5 -256t-232.5 -106q-117 0 -201 65v182q95 -71 179 -71q78 0 119.5 53t41.5 133q0 57 -21 107.5t-55 89.5
t-74.5 77.5t-81.5 80t-75 88t-55 110t-21 137.5q0 154 79.5 251t230.5 97q57 0 97 -9.5t91 -35.5zM604 1559l-84 -70l-141 151l-131 -151l-94 70l227 253z" />
    <glyph glyph-name="scircumflex" unicode="&#x15d;" horiz-adv-x="532" 
d="M449 897v-158q-57 45 -130 45q-44 0 -76 -29.5t-32 -72.5q0 -41 29 -76t70.5 -65t83.5 -65t71 -91.5t29 -128.5q0 -121 -71.5 -195.5t-191.5 -74.5q-47 0 -77 9t-72 34v164q73 -56 139 -56q55 0 86 30t31 85q0 45 -29.5 83.5t-71.5 70t-84.5 66.5t-72 90t-29.5 124
q0 110 68.5 180t177.5 70q81 0 152 -39zM512 1120l-84 -69l-141 151l-131 -151l-95 69l228 254z" />
    <glyph glyph-name="Scedilla" unicode="&#x15e;" horiz-adv-x="675" 
d="M561 1337l-2 -180q-80 62 -149 62q-75 0 -120.5 -53t-45.5 -130q0 -51 21 -97.5t54.5 -84.5t74.5 -77t81.5 -82.5t74 -92t54.5 -115t21 -143.5q0 -150 -85.5 -256t-232.5 -106q-117 0 -201 65v182q95 -71 179 -71q78 0 119.5 53t41.5 133q0 57 -21 107.5t-55 89.5
t-74.5 77.5t-81.5 80t-75 88t-55 110t-21 137.5q0 154 79.5 251t230.5 97q57 0 97 -9.5t91 -35.5zM438 -147l-149 -242l-101 47l111 256z" />
    <glyph glyph-name="scedilla" unicode="&#x15f;" horiz-adv-x="532" 
d="M449 897v-158q-57 45 -130 45q-44 0 -76 -29.5t-32 -72.5q0 -41 29 -76t70.5 -65t83.5 -65t71 -91.5t29 -128.5q0 -121 -71.5 -195.5t-191.5 -74.5q-47 0 -77 9t-72 34v164q73 -56 139 -56q55 0 86 30t31 85q0 45 -29.5 83.5t-71.5 70t-84.5 66.5t-72 90t-29.5 124
q0 110 68.5 180t177.5 70q81 0 152 -39zM360 -152l-155 -239l-78 41l113 258z" />
    <glyph glyph-name="Scaron" unicode="&#x160;" horiz-adv-x="675" 
d="M561 1337l-2 -180q-80 62 -149 62q-75 0 -120.5 -53t-45.5 -130q0 -51 21 -97.5t54.5 -84.5t74.5 -77t81.5 -82.5t74 -92t54.5 -115t21 -143.5q0 -150 -85.5 -256t-232.5 -106q-117 0 -201 65v182q95 -71 179 -71q78 0 119.5 53t41.5 133q0 57 -21 107.5t-55 89.5
t-74.5 77.5t-81.5 80t-75 88t-55 110t-21 137.5q0 154 79.5 251t230.5 97q57 0 97 -9.5t91 -35.5zM604 1743l-223 -254l-227 254l94 69l131 -151l141 151z" />
    <glyph glyph-name="scaron" unicode="&#x161;" horiz-adv-x="532" 
d="M449 897v-158q-57 45 -130 45q-44 0 -76 -29.5t-32 -72.5q0 -41 29 -76t70.5 -65t83.5 -65t71 -91.5t29 -128.5q0 -121 -71.5 -195.5t-191.5 -74.5q-47 0 -77 9t-72 34v164q73 -56 139 -56q55 0 86 30t31 85q0 45 -29.5 83.5t-71.5 70t-84.5 66.5t-72 90t-29.5 124
q0 110 68.5 180t177.5 70q81 0 152 -39zM522 1305l-223 -254l-227 254l94 69l131 -151l141 151z" />
    <glyph glyph-name="Tcedilla" unicode="&#x162;" horiz-adv-x="589" 
d="M594 1204h-209v-1204h-180v1204h-209v162h598v-162zM430 -147l-149 -242l-101 47l111 256z" />
    <glyph glyph-name="tcedilla" unicode="&#x163;" horiz-adv-x="401" 
d="M377 784h-92v-784h-168v784h-94v131h94v261h168v-261h92v-131zM317 -152l-155 -239l-78 41l113 258z" />
    <glyph glyph-name="Tcaron" unicode="&#x164;" horiz-adv-x="589" 
d="M385 1204h209v162h-598v-162h209v-1204h180v1204zM522 1743l-223 -254l-227 254l94 69l131 -151l141 151z" />
    <glyph glyph-name="tcaron" unicode="&#x165;" horiz-adv-x="569" 
d="M377 784h-92v-784h-168v784h-94v131h94v261h168v-261h92v-131zM590 1366l-146 -387l-92 27l90 403z" />
    <glyph glyph-name="Utilde" unicode="&#x168;" horiz-adv-x="837" 
d="M733 1366v-1004q0 -96 -12.5 -160.5t-46 -117t-97.5 -77.5t-161 -25q-91 0 -153.5 27t-96.5 79t-48 116.5t-14 151.5v1010h181v-1004q0 -36 1.5 -60.5t9.5 -54.5t22 -48t40.5 -30.5t63.5 -12.5q27 0 48.5 6.5t35 15t23 25.5t14.5 30.5t7 38t2.5 39t0.5 42.5v9v1004h180z
M545 1669h100q0 -78 -31 -129t-104 -51q-34 0 -87.5 28.5t-80.5 28.5q-41 0 -41 -49h-111q4 76 36 128t102 52q42 0 99.5 -30.5t80.5 -30.5q9 0 15 3t9.5 9.5t5.5 11.5t4 15.5t3 13.5z" />
    <glyph glyph-name="utilde" unicode="&#x169;" horiz-adv-x="735" 
d="M641 915v-618q0 -161 -62 -237t-219 -76q-143 0 -213 92q-51 66 -51 221v618h168v-548q0 -10 1 -32t1 -32q1 -30 2 -46.5t7 -41t16 -37.5t30 -23t48 -10q26 0 45.5 7t30.5 22.5t17.5 30.5t8.5 39.5t2 40.5t-1 43t-1 39v548h170zM494 1231h100q0 -78 -31 -129t-104 -51
q-34 0 -87.5 28.5t-80.5 28.5q-41 0 -41 -49h-111q4 76 35.5 128t101.5 52q42 0 100 -30.5t81 -30.5q9 0 15 3t9.5 9.5t5.5 11.5t4 15.5t3 13.5z" />
    <glyph glyph-name="Umacron" unicode="&#x16a;" horiz-adv-x="837" 
d="M733 1366v-1004q0 -96 -12.5 -160.5t-46 -117t-97.5 -77.5t-161 -25q-91 0 -153.5 27t-96.5 79t-48 116.5t-14 151.5v1010h181v-1004q0 -36 1.5 -60.5t9.5 -54.5t22 -48t40.5 -30.5t63.5 -12.5q27 0 48.5 6.5t35 15t23 25.5t14.5 30.5t7 38t2.5 39t0.5 42.5v9v1004h180z
M649 1499h-459v127h459v-127z" />
    <glyph glyph-name="umacron" unicode="&#x16b;" horiz-adv-x="735" 
d="M641 915v-618q0 -161 -62 -237t-219 -76q-143 0 -213 92q-51 66 -51 221v618h168v-548q0 -10 1 -32t1 -32q1 -30 2 -46.5t7 -41t16 -37.5t30 -23t48 -10q26 0 45.5 7t30.5 22.5t17.5 30.5t8.5 39.5t2 40.5t-1 43t-1 39v548h170zM588 1087h-459v127h459v-127z" />
    <glyph glyph-name="Ubreve" unicode="&#x16c;" horiz-adv-x="837" 
d="M733 1366v-1004q0 -96 -12.5 -160.5t-46 -117t-97.5 -77.5t-161 -25q-91 0 -153.5 27t-96.5 79t-48 116.5t-14 151.5v1010h181v-1004q0 -36 1.5 -60.5t9.5 -54.5t22 -48t40.5 -30.5t63.5 -12.5q27 0 48.5 6.5t35 15t23 25.5t14.5 30.5t7 38t2.5 39t0.5 42.5v9v1004h180z
M559 1661h113q-10 -94 -81 -142.5t-171 -48.5t-171 48.5t-81 142.5h113q33 -72 139 -72t139 72z" />
    <glyph glyph-name="ubreve" unicode="&#x16d;" horiz-adv-x="735" 
d="M641 915v-618q0 -161 -62 -237t-219 -76q-143 0 -213 92q-51 66 -51 221v618h168v-548q0 -10 1 -32t1 -32q1 -30 2 -46.5t7 -41t16 -37.5t30 -23t48 -10q26 0 45.5 7t30.5 22.5t17.5 30.5t8.5 39.5t2 40.5t-1 43t-1 39v548h170zM508 1241h113q-10 -94 -81 -142t-171 -48
t-171 48t-81 142h112q33 -72 140 -72q106 0 139 72z" />
    <glyph glyph-name="Uring" unicode="&#x16e;" horiz-adv-x="837" 
d="M733 1366v-1004q0 -96 -12.5 -160.5t-46 -117t-97.5 -77.5t-161 -25q-91 0 -153.5 27t-96.5 79t-48 116.5t-14 151.5v1010h181v-1004q0 -36 1.5 -60.5t9.5 -54.5t22 -48t40.5 -30.5t63.5 -12.5q27 0 48.5 6.5t35 15t23 25.5t14.5 30.5t7 38t2.5 39t0.5 42.5v9v1004h180z
M246 1636q0 74 50 124t124 50t124 -50t50 -124t-50 -124t-124 -50t-124 50t-50 124zM338 1636q0 -35 23.5 -58.5t58.5 -23.5t58.5 23.5t23.5 58.5t-23.5 58.5t-58.5 23.5t-58.5 -23.5t-23.5 -58.5z" />
    <glyph glyph-name="uring" unicode="&#x16f;" horiz-adv-x="735" 
d="M641 915v-618q0 -161 -62 -237t-219 -76q-143 0 -213 92q-51 66 -51 221v618h168v-548q0 -10 1 -32t1 -32q1 -30 2 -46.5t7 -41t16 -37.5t30 -23t48 -10q26 0 45.5 7t30.5 22.5t17.5 30.5t8.5 39.5t2 40.5t-1 43t-1 39v548h170zM195 1229q0 73 50.5 123.5t123.5 50.5
t123.5 -50.5t50.5 -123.5t-50.5 -123.5t-123.5 -50.5t-123.5 50.5t-50.5 123.5zM287 1229q0 -35 23.5 -58.5t58.5 -23.5t58.5 23.5t23.5 58.5t-23.5 58.5t-58.5 23.5t-58.5 -23.5t-23.5 -58.5z" />
    <glyph glyph-name="Uhungarumlaut" unicode="&#x170;" horiz-adv-x="837" 
d="M733 1366v-1004q0 -96 -12.5 -160.5t-46 -117t-97.5 -77.5t-161 -25q-91 0 -153.5 27t-96.5 79t-48 116.5t-14 151.5v1010h181v-1004q0 -36 1.5 -60.5t9.5 -54.5t22 -48t40.5 -30.5t63.5 -12.5q27 0 48.5 6.5t35 15t23 25.5t14.5 30.5t7 38t2.5 39t0.5 42.5v9v1004h180z
M672 1745l-158 -258l-80 43l125 282zM440 1745l-157 -258l-82 43l125 282z" />
    <glyph glyph-name="uhungarumlaut" unicode="&#x171;" horiz-adv-x="735" 
d="M641 915v-618q0 -161 -62 -237t-219 -76q-143 0 -213 92q-51 66 -51 221v618h168v-548q0 -10 1 -32t1 -32q1 -30 2 -46.5t7 -41t16 -37.5t30 -23t48 -10q26 0 45.5 7t30.5 22.5t17.5 30.5t8.5 39.5t2 40.5t-1 43t-1 39v548h170zM631 1307l-158 -258l-80 43l125 282z
M399 1307l-157 -258l-82 43l125 282z" />
    <glyph glyph-name="Uogonek" unicode="&#x172;" horiz-adv-x="837" 
d="M733 1366v-1004q0 -129 -28 -194q-29 -69 -105 -141q-76 -71 -94 -93q-33 -41 -33 -81q0 -30 16 -46q15 -18 52 -18q34 0 67 23v-105q-47 -24 -94 -24q-65 0 -102 30q-47 41 -47 105q0 40 28 90q19 34 56 74h-19q-171 0 -246 75q-80 80 -80 305v1004h181v-1012
q0 -128 34 -166q30 -32 101 -32q68 0 98 32q35 39 35 166v1012h180z" />
    <glyph glyph-name="uogonek" unicode="&#x173;" horiz-adv-x="735" 
d="M641 915v-626q0 -43 -1.5 -68.5t-14 -68.5t-37.5 -78q-31 -45 -88 -86q-51 -40 -72 -72q-25 -35 -25 -68q0 -22 15 -41q16 -18 47 -18q35 0 80 23v-105q-40 -24 -92 -24q-69 0 -109 32q-49 38 -49 105q0 44 35 98q20 31 59 70q-12 -2 -43 -2q-120 0 -180 65
q-70 72 -70 238v626h170v-634q0 -80 31 -111q25 -25 72 -25q46 0 71 25q31 31 31 111v634h170z" />
    <glyph glyph-name="Ydieresis" unicode="&#x178;" horiz-adv-x="698" 
d="M702 1366l-237 -778v-588h-184v588l-285 778h194l111 -367q49 -158 68 -266q23 138 53 271l90 362h190zM594 1579q0 -43 -29.5 -72.5t-72.5 -29.5t-73 29.5t-30 72.5t30 72.5t73 29.5t72.5 -29.5t29.5 -72.5zM291 1579q0 -43 -30 -72.5t-73 -29.5t-72.5 29.5t-29.5 72.5
t29.5 72.5t72.5 29.5t73 -29.5t30 -72.5z" />
    <glyph glyph-name="Zacute" unicode="&#x179;" horiz-adv-x="684" 
d="M674 1366l-412 -1204h389v-162h-628l413 1210h-364v156h602zM258 1546l176 264l139 -86l-219 -235z" />
    <glyph glyph-name="zacute" unicode="&#x17a;" horiz-adv-x="610" 
d="M584 915l-308 -761h291v-154h-540l317 766h-293v149h533zM207 1108l176 264l139 -86l-219 -235z" />
    <glyph glyph-name="Zdotaccent" unicode="&#x17b;" horiz-adv-x="684" 
d="M674 1366l-412 -1204h389v-162h-628l413 1210h-364v156h602zM485 1583q0 -44 -32 -75t-76 -31q-45 0 -77 31t-32 75t32.5 76.5t76.5 32.5t76 -32.5t32 -76.5z" />
    <glyph glyph-name="zdotaccent" unicode="&#x17c;" horiz-adv-x="610" 
d="M584 915l-308 -761h291v-154h-540l317 766h-293v149h533zM428 1157q0 -44 -32 -75t-77 -31q-44 0 -76 31t-32 75t32 76.5t76 32.5t76.5 -32.5t32.5 -76.5z" />
    <glyph glyph-name="Zcaron" unicode="&#x17d;" horiz-adv-x="684" 
d="M674 1366l-412 -1204h389v-162h-628l413 1210h-364v156h602zM584 1743l-224 -254l-227 254l94 69l131 -151l142 151z" />
    <glyph glyph-name="zcaron" unicode="&#x17e;" horiz-adv-x="610" 
d="M584 915l-308 -761h291v-154h-540l317 766h-293v149h533zM543 1305l-224 -254l-227 254l94 69l131 -151l142 151z" />
    <glyph glyph-name="uni018F" unicode="&#x18f;" horiz-adv-x="841" 
d="M78 719h497q-3 166 -14 276q-12 144 -65 193q-35 33 -90 33q-58 0 -91 -31q-47 -42 -65 -158l-172 72q13 51 41.5 108t62.5 91q79 79 221 79t226 -82q46 -44 75.5 -110t42 -153t16 -157t3.5 -171q0 -513 -141 -650q-79 -77 -219 -77q-132 0 -207 75q-74 76 -97.5 211
t-23.5 348v103zM573 563h-321v-100q0 -208 63 -273q36 -36 95 -36q56 0 88 30q41 39 59 162q12 86 16 217z" />
    <glyph glyph-name="florin" unicode="&#x192;" horiz-adv-x="778" 
d="M791 1491l-35 -172q-36 22 -72 22q-18 0 -32.5 -6t-25 -19.5t-17.5 -24.5t-13 -33t-8.5 -32t-7 -35t-5.5 -28l-49 -248h142l-25 -124h-141l-121 -635q-32 -167 -57 -234q-68 -178 -221 -193q-15 -1 -31 -1q-56 0 -115 22l31 156q47 -15 75 -15q23 0 42 8.5t32 26.5
t22.5 34t17 43.5t10.5 41.5t8 41l135 705h-123l24 124h123l49 248q1 4 2 13q29 149 59 210q63 130 216 130q54 0 111 -25z" />
    <glyph glyph-name="uni01CF" unicode="&#x1cf;" horiz-adv-x="395" 
d="M289 0h-185v1366h185v-1366zM414 1743l-224 -254l-227 254l94 69l131 -151l142 151z" />
    <glyph glyph-name="uni01D0" unicode="&#x1d0;" horiz-adv-x="360" 
d="M264 0h-168v915h168v-915zM406 1305l-224 -254l-227 254l94 69l131 -151l142 151z" />
    <glyph glyph-name="uni01DD" unicode="&#x1dd;" horiz-adv-x="667" 
d="M61 508h385v8q0 195 -59 246q-25 22 -57 22q-38 0 -60 -22q-23 -22 -36 -66.5t-15 -89.5l-158 33q24 152 89 219q69 72 182 72q110 0 176 -66q104 -102 104 -403q0 -302 -104 -408q-64 -67 -174 -67q-96 0 -160 61q-113 109 -113 397v64zM446 385h-213q4 -185 54 -235
q21 -21 51 -21q35 0 57 25q25 26 37.5 78.5t13.5 152.5z" />
    <glyph glyph-name="Gcaron" unicode="&#x1e6;" horiz-adv-x="843" 
d="M766 719v-53q0 -112 -1 -162.5t-10 -142t-28 -158.5q-62 -221 -289 -221q-68 0 -121.5 19t-89.5 51t-62 80t-41 99.5t-26 116.5q-20 136 -20 328q0 317 49 483q68 223 303 223q139 0 213 -68.5t115 -209.5l-172 -72q-7 34 -12.5 56t-17.5 49.5t-27.5 44t-41.5 28
t-59 11.5q-41 0 -65.5 -16.5t-45.5 -55.5q-49 -91 -49 -467q0 -241 25 -375q14 -74 44 -113.5t97 -39.5q37 0 65 14.5t44.5 42t27 55.5t15 68.5t5.5 66t1 62.5v100h-160v156h334zM647 1743l-223 -254l-227 254l94 69l131 -151l141 151z" />
    <glyph glyph-name="gcaron" unicode="&#x1e7;" horiz-adv-x="714" 
d="M621 915v-976q0 -164 -63.5 -244t-223.5 -80q-117 0 -188.5 70.5t-71.5 187.5q0 5 1 15.5t1 15.5h164q0 -148 108 -148q28 0 48 10t30.5 24t16.5 37.5t7 42t1 46.5v197q-27 -62 -65.5 -94.5t-100.5 -32.5q-45 0 -81 18.5t-59 46.5t-40 72t-25 82t-12.5 90.5t-5.5 84
t-1 75.5q0 46 0.5 77t5 85.5t13 92t25 82.5t39.5 72.5t59 46.5t82 19q60 0 96 -31t70 -94v110h170zM453 469q0 307 -113 307q-19 0 -34.5 -8.5t-26 -27t-18.5 -37t-12.5 -48t-7.5 -50t-4 -53.5t-1.5 -49t0 -45t0.5 -32q0 -289 114 -289q22 0 39 8.5t27.5 27.5t17 34t10 43.5
t4.5 40.5t3 39q2 47 2 139zM563 1305l-223 -254l-227 254l94 69l131 -151l141 151z" />
    <glyph glyph-name="AEacute" unicode="&#x1fc;" horiz-adv-x="1046" 
d="M1044 0h-475l-55 268h-283l-49 -268h-180l291 1366h452l35 -156h-297l92 -434h271l37 -155h-271l105 -465h291zM489 408l-65 309q-27 131 -55 389q-4 -68 -37 -293q-29 -195 -74 -405h231zM432 1546l176 264l140 -86l-220 -235z" />
    <glyph glyph-name="aeacute" unicode="&#x1fd;" horiz-adv-x="1034" 
d="M811 313h162q-4 -72 -17 -126t-41 -102t-80 -73.5t-126 -25.5q-82 0 -134 34t-83 109q-33 -76 -79.5 -109.5t-127.5 -33.5q-63 0 -108.5 24.5t-70 67.5t-35 93t-10.5 110q0 59 11 111t35.5 98t70.5 73t109 27q91 0 143 -60q-1 13 -1.5 36t-1 35.5t-2.5 32.5t-4.5 31.5
t-8 27.5t-13 25t-18.5 19.5t-25.5 16t-33.5 9t-43 3.5q-90 0 -173 -53v172q55 25 93 35t92 10q77 0 129.5 -26.5t87.5 -90.5q36 61 82 89t115 28q54 0 96.5 -19t70.5 -48t47.5 -75t30 -86.5t16 -97.5t6.5 -93.5t1 -88.5h-377v-37q0 -35 1 -59.5t7.5 -66t17.5 -67.5
t34.5 -46.5t56.5 -20.5q98 0 98 188zM803 545v41q0 32 -3.5 62t-13 65t-32 56.5t-54.5 21.5t-54 -21.5t-31.5 -56.5t-13 -64t-3.5 -61v-43h205zM442 291q0 166 -106 166q-105 0 -105 -158q0 -178 105 -178q32 0 54.5 16t33 43.5t14.5 54t4 56.5zM426 1108l176 264l139 -86
l-219 -235z" />
    <glyph glyph-name="Scommaaccent" unicode="&#x218;" horiz-adv-x="675" 
d="M561 1337l-2 -180q-80 62 -149 62q-75 0 -120.5 -53t-45.5 -130q0 -51 21 -97.5t54.5 -84.5t74.5 -77t81.5 -82.5t74 -92t54.5 -115t21 -143.5q0 -150 -85.5 -256t-232.5 -106q-117 0 -201 65v182q95 -71 179 -71q78 0 119.5 53t41.5 133q0 57 -21 107.5t-55 89.5
t-74.5 77.5t-81.5 80t-75 88t-55 110t-21 137.5q0 154 79.5 251t230.5 97q57 0 97 -9.5t91 -35.5zM422 -141l-131 -342l-92 26l75 359z" />
    <glyph glyph-name="scommaaccent" unicode="&#x219;" horiz-adv-x="532" 
d="M449 897v-158q-57 45 -130 45q-44 0 -76 -29.5t-32 -72.5q0 -41 29 -76t70.5 -65t83.5 -65t71 -91.5t29 -128.5q0 -121 -71.5 -195.5t-191.5 -74.5q-47 0 -77 9t-72 34v164q73 -56 139 -56q55 0 86 30t31 85q0 45 -29.5 83.5t-71.5 70t-84.5 66.5t-72 90t-29.5 124
q0 110 68.5 180t177.5 70q81 0 152 -39zM371 -141l-129 -338l-92 26l73 355z" />
    <glyph glyph-name="Tcommaaccent" unicode="&#x21a;" horiz-adv-x="589" 
d="M594 1204h-209v-1204h-180v1204h-209v162h598v-162zM369 -141l-131 -342l-93 26l76 359z" />
    <glyph glyph-name="tcommaaccent" unicode="&#x21b;" horiz-adv-x="401" 
d="M377 784h-92v-784h-168v784h-94v131h94v261h168v-261h92v-131zM279 -141l-129 -338l-93 26l74 355z" />
    <glyph glyph-name="uni0228" unicode="&#x228;" horiz-adv-x="657" 
d="M594 0h-490v1366h490v-156h-305v-434h270v-155h-270v-465h305v-156zM485 -147l-149 -242l-100 47l110 256z" />
    <glyph glyph-name="uni0229" unicode="&#x229;" horiz-adv-x="667" 
d="M612 424h-385q0 -293 117 -293q32 0 54 17.5t32.5 46.5t14.5 56.5t4 57.5h157q-4 -120 -35 -184q-32 -67 -92.5 -103t-136.5 -36q-54 0 -97 16t-72 42t-50 65t-32.5 78t-18.5 89.5t-9 90t-2 88.5q0 47 2 86.5t8.5 90t18 90.5t32.5 80.5t49.5 67t71 43.5t95.5 17t96 -18.5
t71 -47.5t49 -74t31.5 -86.5t17 -96.5t8 -94.5t1.5 -88.5zM227 547h213q-6 110 -17 151q-26 87 -89 88q-94 0 -106 -227q-1 -8 -1 -12zM451 -152l-156 -239l-78 41l113 258z" />
    <glyph glyph-name="uni0237" unicode="&#x237;" horiz-adv-x="360" 
d="M264 -385h-168v1300h168v-1300z" />
    <glyph glyph-name="uni0259" unicode="&#x259;" horiz-adv-x="667" 
d="M61 508h385v8q0 195 -59 246q-25 22 -57 22q-38 0 -60 -22q-23 -22 -36 -66.5t-15 -89.5l-158 33q24 152 89 219q69 72 182 72q110 0 176 -66q104 -102 104 -403q0 -302 -104 -408q-64 -67 -174 -67q-96 0 -160 61q-113 109 -113 397v64zM446 385h-213q4 -185 54 -235
q21 -21 51 -21q35 0 57 25q25 26 37.5 78.5t13.5 152.5z" />
    <glyph glyph-name="afii57929" unicode="&#x2bc;" horiz-adv-x="401" 
d="M334 1366l-146 -387l-92 27l90 403z" />
    <glyph glyph-name="circumflex" unicode="&#x2c6;" 
d="M737 1120l-84 -69l-141 151l-131 -151l-94 69l227 254z" />
    <glyph glyph-name="caron" unicode="&#x2c7;" 
d="M737 1305l-223 -254l-227 254l94 69l131 -151l141 151z" />
    <glyph glyph-name="uni02C9" unicode="&#x2c9;" 
d="M741 1087h-458v127h458v-127z" />
    <glyph glyph-name="breve" unicode="&#x2d8;" 
d="M651 1241h113q-10 -94 -81 -142t-171 -48t-171 48t-81 142h113q33 -72 139 -72t139 72z" />
    <glyph glyph-name="dotaccent" unicode="&#x2d9;" 
d="M621 1157q0 -44 -32 -75t-77 -31t-77 31t-32 75t32.5 76.5t76.5 32.5t76.5 -32.5t32.5 -76.5z" />
    <glyph glyph-name="ring" unicode="&#x2da;" 
d="M338 1229q0 73 50 123.5t124 50.5t124 -50.5t50 -123.5t-50 -123.5t-124 -50.5t-124 50.5t-50 123.5zM430 1229q0 -35 23.5 -58.5t58.5 -23.5t58.5 23.5t23.5 58.5t-23.5 58.5t-58.5 23.5t-58.5 -23.5t-23.5 -58.5z" />
    <glyph glyph-name="ogonek" unicode="&#x2db;" 
d="M829 -188v-105q-34 -24 -92 -24q-86 0 -133 43q-41 38 -41 98q0 43 25 94q22 42 53 82h92q-24 -36 -39 -66q-22 -44 -22 -79q0 -32 16 -48q18 -18 57 -18q35 0 84 23z" />
    <glyph glyph-name="tilde" unicode="&#x2dc;" 
d="M639 1231h100q0 -78 -31 -129t-104 -51q-34 0 -87.5 28.5t-80.5 28.5q-41 0 -41 -49h-110q4 76 35.5 128t101.5 52q42 0 99.5 -30.5t80.5 -30.5q9 0 15 3t9.5 9.5t5.5 11.5t4 15.5t3 13.5z" />
    <glyph glyph-name="hungarumlaut" unicode="&#x2dd;" 
d="M795 1307l-158 -258l-80 43l125 282zM563 1307l-157 -258l-82 43l125 282z" />
    <glyph glyph-name="acutecomb" unicode="&#x301;" horiz-adv-x="4" 
d="M-432 1108l176 264l139 -86l-219 -235z" />
    <glyph glyph-name="uni0394" unicode="&#x394;" horiz-adv-x="1366" 
d="M1313 0h-1260l537 1366h180zM1069 154l-389 1007l-387 -1009z" />
    <glyph glyph-name="uni0394" unicode="&#x2206;" horiz-adv-x="1366" 
d="M1313 0h-1260l537 1366h180zM1069 154l-389 1007l-387 -1009z" />
    <glyph glyph-name="uni03A9" unicode="&#x3a9;" horiz-adv-x="1363" 
d="M1307 0h-537v135q363 203 363 590q0 77 -19.5 152.5t-58.5 142t-92 117.5t-125.5 80.5t-153.5 29.5q-104 0 -191 -44.5t-143.5 -118t-87.5 -166.5t-31 -193q0 -386 365 -590v-135h-539v152h355q-177 105 -266 249t-89 344q0 132 47 251.5t128.5 208.5t198.5 141.5
t251 52.5q135 0 252 -52t198.5 -140.5t128 -208.5t46.5 -253q0 -385 -353 -593h353v-152z" />
    <glyph glyph-name="uni03A9" unicode="&#x2126;" horiz-adv-x="1363" 
d="M1307 0h-537v135q363 203 363 590q0 77 -19.5 152.5t-58.5 142t-92 117.5t-125.5 80.5t-153.5 29.5q-104 0 -191 -44.5t-143.5 -118t-87.5 -166.5t-31 -193q0 -386 365 -590v-135h-539v152h355q-177 105 -266 249t-89 344q0 132 47 251.5t128.5 208.5t198.5 141.5
t251 52.5q135 0 252 -52t198.5 -140.5t128 -208.5t46.5 -253q0 -385 -353 -593h353v-152z" />
    <glyph glyph-name="pi" unicode="&#x3c0;" horiz-adv-x="1216" 
d="M1157 766h-151v-766h-168v766h-457v-766h-168v766h-154v149h1098v-149z" />
    <glyph glyph-name="afii10023" unicode="&#x401;" horiz-adv-x="661" 
d="M594 0h-490v1366h490v-156h-305v-434h270v-155h-270v-465h305v-156zM315 1556q0 -43 -29.5 -72.5t-72.5 -29.5t-72.5 29.5t-29.5 72.5t29.5 73t72.5 30t72.5 -30t29.5 -73zM598 1556q0 -43 -29.5 -72.5t-72.5 -29.5t-73 29.5t-30 72.5t30 73t73 30t72.5 -30t29.5 -73z
" />
    <glyph glyph-name="afii10051" unicode="&#x402;" horiz-adv-x="907" 
d="M201 0v1204h-181v162h613v-162h-248v-407q70 34 145 34q138 0 224 -83q112 -109 112 -340q0 -102 -26 -205.5t-90 -163.5q-62 -57 -162 -57q-75 0 -144 28l41 178q36 -36 82 -36q48 0 72 41q35 54 35 192q0 169 -70 236q-41 41 -102 41q-64 0 -117 -39v-623h-184z" />
    <glyph glyph-name="afii10052" unicode="&#x403;" horiz-adv-x="632" 
d="M596 1210h-307v-1210h-185v1366h492v-156zM248 1546l176 264l139 -86l-219 -235z" />
    <glyph glyph-name="afii10053" unicode="&#x404;" horiz-adv-x="755" 
d="M678 236v-191q-74 -65 -197 -65q-137 0 -231 86q-172 159 -172 661q0 417 155 567q52 51 110.5 70.5t133.5 19.5q120 0 201 -63v-191q-75 84 -168 84q-81 0 -133 -55q-33 -33 -55 -88t-31 -114t-12 -96.5t-3 -69.5h316v-156h-318q0 -111 25.5 -239.5t83.5 -184.5
q53 -51 133 -51q107 0 162 76z" />
    <glyph glyph-name="afii10054" unicode="&#x405;" horiz-adv-x="675" 
d="M561 1337l-2 -180q-80 62 -149 62q-75 0 -120.5 -53t-45.5 -130q0 -51 21 -97.5t54.5 -84.5t74.5 -77t81.5 -82.5t74 -92t54.5 -115t21 -143.5q0 -150 -85.5 -256t-232.5 -106q-117 0 -201 65v182q95 -71 179 -71q78 0 119.5 53t41.5 133q0 57 -21 107.5t-55 89.5
t-74.5 77.5t-81.5 80t-75 88t-55 110t-21 137.5q0 154 79.5 251t230.5 97q57 0 97 -9.5t91 -35.5z" />
    <glyph glyph-name="afii10055" unicode="&#x406;" horiz-adv-x="395" 
d="M289 0h-185v1366h185v-1366z" />
    <glyph glyph-name="afii10056" unicode="&#x407;" horiz-adv-x="395" 
d="M289 0h-185v1366h185v-1366zM369 1579q0 -42 -21.5 -72t-50.5 -30q-31 0 -51.5 29.5t-20.5 72.5t20.5 72.5t51.5 29.5q29 0 50.5 -30t21.5 -72zM172 1579q0 -43 -20.5 -72.5t-51.5 -29.5t-52 29.5t-21 72.5t21 72.5t52 29.5t51.5 -29.5t20.5 -72.5z" />
    <glyph glyph-name="afii10057" unicode="&#x408;" horiz-adv-x="530" 
d="M424 1366v-1061q0 -102 -21 -164q-28 -80 -94 -119.5t-155 -39.5q-93 0 -158 36v185q28 -16 41 -23.5t37 -15.5t45 -8q29 0 51 8t34.5 25.5t20.5 33.5t11 45t3.5 45.5t0.5 47.5v8v997h184z" />
    <glyph glyph-name="afii10058" unicode="&#x409;" horiz-adv-x="1257" 
d="M795 782h26q52 0 91 -4t93.5 -25.5t92.5 -60.5q94 -96 94 -309t-90 -303q-80 -80 -232 -80h-260v1210h-231v-696q0 -188 -12 -258q-24 -141 -84 -203q-65 -67 -170 -67q-61 0 -105 18v186q26 -30 76 -30q42 0 68 26q34 34 43.5 107t9.5 203v870h590v-584zM795 627v-471h8
q32 0 50.5 1.5t47 10.5t47.5 27q51 49 51 190q0 148 -57 201q-45 41 -141 41h-6z" />
    <glyph glyph-name="afii10059" unicode="&#x40a;" horiz-adv-x="1206" 
d="M743 795h27q177 0 270 -93q101 -101 101 -321q0 -211 -90 -301q-80 -80 -232 -80h-260v639h-270v-639h-185v1366h185v-571h270v571h184v-571zM743 639v-483h9q32 0 50.5 1.5t47 10.5t47.5 27q51 47 51 194q0 154 -55 207q-45 43 -143 43h-7z" />
    <glyph glyph-name="afii10060" unicode="&#x40b;" horiz-adv-x="923" 
d="M201 0v1204h-181v162h613v-162h-248v-393q68 20 145 20q124 0 203 -51q65 -43 87 -107t22 -169v-504h-187v492q0 98 -37 135t-116 37q-47 0 -117 -19v-645h-184z" />
    <glyph glyph-name="afii10061" unicode="&#x40c;" horiz-adv-x="761" 
d="M752 0h-207l-256 670v-670h-185v1366h185v-627l256 627h186l-276 -661zM309 1546l176 264l140 -86l-219 -235z" />
    <glyph glyph-name="afii10062" unicode="&#x40e;" horiz-adv-x="735" 
d="M16 1366h193l84 -322q58 -228 82 -358q34 195 78 363l82 317h184l-375 -1366h-180l125 436zM508 1694l154 -62q-29 -89 -103 -139q-68 -47 -182 -47t-182 47q-74 50 -103 139l154 62q12 -50 43 -78q31 -29 88 -29t88 29q33 30 43 78z" />
    <glyph glyph-name="afii10145" unicode="&#x40f;" horiz-adv-x="839" 
d="M104 1366h185v-1210h262v1210h184v-1366h-227v-266h-176v266h-228v1366z" />
    <glyph glyph-name="afii10017" unicode="&#x410;" horiz-adv-x="737" 
d="M735 0h-182l-51 266h-271l-51 -266h-178l297 1366h145zM258 408h217q-79 439 -106 692q-21 -213 -111 -692z" />
    <glyph glyph-name="afii10018" unicode="&#x411;" horiz-adv-x="745" 
d="M104 1366h502v-156h-317v-430h30q181 0 269 -90q92 -94 92 -309q0 -211 -90 -301q-80 -80 -232 -80h-254v1366zM289 625v-469h12q98 0 139 39q49 47 49 188q0 150 -55 201q-47 41 -135 41h-10z" />
    <glyph glyph-name="afii10019" unicode="&#x412;" horiz-adv-x="745" 
d="M104 1366h250q67 0 118.5 -19t84 -51t53 -79t29 -99.5t8.5 -116.5q0 -145 -51 -223q-22 -33 -49.5 -51t-71.5 -33q83 -31 121 -71q72 -77 72 -248q0 -178 -74.5 -276.5t-247.5 -98.5h-242v1366zM279 764h12q46 0 79 12.5t52 32t30 52t14 64t3 76.5q0 43 -7.5 79t-24.5 68
t-49.5 50.5t-78.5 18.5h-30v-453zM279 618v-460q79 0 114 16q84 39 84 207q0 124 -40 180.5t-158 56.5z" />
    <glyph glyph-name="afii10020" unicode="&#x413;" horiz-adv-x="632" 
d="M596 1210h-307v-1210h-185v1366h492v-156z" />
    <glyph glyph-name="afii10021" unicode="&#x414;" horiz-adv-x="907" 
d="M193 1366h585v-1210h109v-422h-168v266h-543v-266h-168v422q79 40 119 106q66 104 66 377v727zM365 1210v-510q0 -265 -33 -376q-32 -99 -109 -168h371v1054h-229z" />
    <glyph glyph-name="afii10022" unicode="&#x415;" horiz-adv-x="657" 
d="M594 0h-490v1366h490v-156h-305v-434h270v-155h-270v-465h305v-156z" />
    <glyph glyph-name="afii10024" unicode="&#x416;" horiz-adv-x="1056" 
d="M1047 0h-191l-238 674v-674h-180v674l-237 -674h-191l271 705l-258 661h178l237 -631v631h180v-631l238 631h178l-258 -661z" />
    <glyph glyph-name="afii10025" unicode="&#x417;" horiz-adv-x="727" 
d="M197 784h20q105 0 158 47q57 50 57 160q0 115 -51 172q-45 49 -121 49q-100 0 -174 -92v191q90 71 211 71q138 0 219 -75q100 -96 100 -291q0 -159 -73 -236q-42 -45 -97 -57q67 -9 121 -59q90 -86 90 -263q0 -214 -118 -329q-92 -90 -246 -90q-132 0 -215 71v193
q86 -88 192 -88q82 0 133 47q64 60 64 192q0 131 -61 185q-51 47 -166 47h-43v155z" />
    <glyph glyph-name="afii10026" unicode="&#x418;" horiz-adv-x="839" 
d="M104 0v1366h181v-559q0 -239 -39 -481q22 72 57.5 198t63.5 213l204 629h164v-1366h-180v608q0 124 37 445q-16 -56 -38 -137.5t-36 -132t-31 -101.5l-219 -682h-164z" />
    <glyph glyph-name="afii10027" unicode="&#x419;" horiz-adv-x="839" 
d="M104 0v1366h181v-559q0 -239 -39 -481q22 72 57.5 198t63.5 213l204 629h164v-1366h-180v608q0 124 37 445q-16 -56 -38 -137.5t-36 -132t-31 -101.5l-219 -682h-164zM551 1694l154 -62q-29 -89 -103 -139q-68 -47 -182 -47t-182 47q-74 50 -103 139l154 62
q12 -50 43 -78q31 -29 88 -29t88 29q33 30 43 78z" />
    <glyph glyph-name="afii10028" unicode="&#x41a;" horiz-adv-x="761" 
d="M752 0h-207l-256 670v-670h-185v1366h185v-627l256 627h186l-276 -661z" />
    <glyph glyph-name="afii10029" unicode="&#x41b;" horiz-adv-x="899" 
d="M205 1366h590v-1366h-185v1210h-231v-696q0 -188 -12 -258q-24 -141 -84 -203q-65 -67 -170 -67q-61 0 -105 18v186q26 -30 76 -30q42 0 68 26q34 34 43.5 107t9.5 203v870z" />
    <glyph glyph-name="afii10030" unicode="&#x41c;" horiz-adv-x="1032" 
d="M987 0h-178q-33 511 -35 567q-1 31 -4 92t-4 91q-1 35 0 63t-0.5 63.5t-5.5 63.5q-22 -141 -49.5 -292.5t-68 -356.5t-56.5 -291h-123q-9 44 -48 223t-54.5 256t-39.5 213t-38 248l-54 -940h-172l113 1366h158l118 -557q3 -17 11.5 -49t11.5 -49q30 -169 51 -332
q2 29 7 61.5t13 71t11 59.5q4 25 11 75.5t11 74.5q3 16 10.5 47.5t10.5 48.5l106 549h160z" />
    <glyph glyph-name="afii10031" unicode="&#x41d;" horiz-adv-x="847" 
d="M743 0h-184v676h-270v-676h-185v1366h185v-535h270v535h184v-1366z" />
    <glyph glyph-name="afii10032" unicode="&#x41e;" horiz-adv-x="866" 
d="M788 682q0 -99 -3.5 -168.5t-15.5 -163.5t-41 -166t-75 -118q-84 -84 -219 -84q-137 0 -221 84q-45 46 -74 118t-41.5 164t-16 163t-3.5 167q0 101 3.5 171t15.5 164.5t41 166.5t75 118q84 84 221 84q135 0 219 -84q45 -45 74 -116.5t41.5 -164.5t16 -165t3.5 -170z
M270 649q0 -389 76 -465q32 -32 88 -32q54 0 86 32q76 76 76 465v103q0 361 -76 432q-33 33 -86 33q-55 0 -88 -33q-76 -71 -76 -432v-103z" />
    <glyph glyph-name="afii10033" unicode="&#x41f;" horiz-adv-x="827" 
d="M723 0h-184v1210h-250v-1210h-185v1366h619v-1366z" />
    <glyph glyph-name="afii10034" unicode="&#x420;" horiz-adv-x="718" 
d="M104 1366h242q68 0 111.5 -7.5t89.5 -35.5q135 -81 135 -338q0 -223 -119 -317q-52 -40 -117 -51t-157 -11v-606h-185v1366zM289 764h16q106 0 145 53.5t39 163.5q0 50 -7.5 88.5t-26.5 71.5t-54.5 51t-87.5 18h-24v-446z" />
    <glyph glyph-name="afii10035" unicode="&#x421;" horiz-adv-x="690" 
d="M641 188v-168q-40 -24 -69.5 -31t-79.5 -7q-414 0 -414 677q0 70 3 129.5t13 136.5t27 138t48 123.5t73 104t104.5 67.5t140.5 26q47 0 79.5 -9t74.5 -32v-165q-63 34 -119 34q-40 0 -73.5 -13.5t-58 -34t-43.5 -55t-31.5 -66t-21 -76.5t-13 -78.5t-6.5 -80.5t-2.5 -72.5
t-0.5 -65.5q0 -47 1.5 -85t7.5 -93t16 -97.5t29.5 -88t46 -75.5t67.5 -49.5t92 -19.5q56 0 109 26z" />
    <glyph glyph-name="afii10036" unicode="&#x422;" horiz-adv-x="589" 
d="M594 1204h-209v-1204h-180v1204h-209v162h598v-162z" />
    <glyph glyph-name="afii10037" unicode="&#x423;" horiz-adv-x="735" 
d="M16 1366h193l84 -322q58 -228 82 -358q34 195 78 363l82 317h184l-375 -1366h-180l125 436z" />
    <glyph glyph-name="afii10038" unicode="&#x424;" horiz-adv-x="1077" 
d="M446 0v168q-147 15 -247 115q-138 134 -138 438q0 305 140 440q101 97 245 105v155h185v-155q145 -8 246 -105q139 -134 139 -430q0 -311 -137 -448q-100 -100 -248 -115v-168h-185zM618 1110v-786q73 11 123 57q54 52 72 137t18 207q0 245 -81 328q-50 54 -132 57z
M459 324v786q-81 -3 -131 -57q-82 -84 -82 -328q0 -122 18 -207t72 -137q50 -46 123 -57z" />
    <glyph glyph-name="afii10039" unicode="&#x425;" horiz-adv-x="679" 
d="M684 0h-184q-14 42 -43 123t-47 132t-38 122t-32 133q-7 -65 -55 -211q-57 -183 -95 -299h-194l260 694l-244 672h178q10 -28 42 -112t52 -138t41 -125.5t27 -118.5q17 76 40 154.5t59 188.5t49 151h184l-252 -672z" />
    <glyph glyph-name="afii10040" unicode="&#x426;" horiz-adv-x="884" 
d="M104 1366h185v-1210h262v1210h184v-1210h121v-422h-176v266h-576v1366z" />
    <glyph glyph-name="afii10041" unicode="&#x427;" horiz-adv-x="829" 
d="M725 1366v-1366h-184v653q-68 -16 -148 -16q-131 0 -198 49q-62 43 -82.5 115t-20.5 182v383h187v-389q0 -105 40 -141q33 -31 113 -31q51 0 109 14v547h184z" />
    <glyph glyph-name="afii10042" unicode="&#x428;" horiz-adv-x="1249" 
d="M104 1366h181v-1210h250v1210h180v-1210h250v1210h180v-1366h-1041v1366z" />
    <glyph glyph-name="afii10043" unicode="&#x429;" horiz-adv-x="1310" 
d="M104 1366h181v-1210h250v1210h180v-1210h250v1210h180v-1210h137v-422h-176v266h-1002v1366z" />
    <glyph glyph-name="afii10044" unicode="&#x42a;" horiz-adv-x="843" 
d="M381 780h27q52 0 91 -4t93 -25.5t92 -60.5q94 -96 94 -311q0 -211 -90 -299q-80 -80 -231 -80h-260v1204h-177v162h361v-586zM381 627v-471h8q32 0 50.5 1.5t47.5 10.5t48 27q51 49 51 190q0 147 -58 201q-45 41 -141 41h-6z" />
    <glyph glyph-name="afii10045" unicode="&#x42b;" horiz-adv-x="1052" 
d="M946 0h-184v1366h184v-1366zM104 1366h185v-584h20q187 0 277 -90q94 -96 94 -307q0 -215 -90 -305q-80 -80 -232 -80h-254v1366zM289 627v-471h8q32 0 50.5 1.5t47 10.5t47.5 27q52 50 52 188q0 149 -58 203q-45 41 -141 41h-6z" />
    <glyph glyph-name="afii10046" unicode="&#x42c;" horiz-adv-x="751" 
d="M104 1366h185v-584h26q52 0 91 -4t93.5 -25.5t92.5 -60.5q94 -96 94 -309t-90 -303q-80 -80 -231 -80h-261v1366zM289 627v-471h8q32 0 50.5 1.5t47 10.5t47.5 27q52 50 52 190q0 147 -58 201q-45 41 -141 41h-6z" />
    <glyph glyph-name="afii10047" unicode="&#x42d;" horiz-adv-x="755" 
d="M78 45v191q55 -76 162 -76q82 0 133 51q58 57 83 184t25 240h-317v156h315q-2 270 -100 368q-55 55 -133 55q-93 0 -168 -84v191q84 63 203 63q148 0 241 -90q156 -152 156 -538q0 -519 -172 -686q-93 -90 -232 -90q-117 0 -196 65z" />
    <glyph glyph-name="afii10048" unicode="&#x42e;" horiz-adv-x="1222" 
d="M1145 682q0 -99 -3.5 -168.5t-15.5 -163.5t-41 -166t-75 -118q-84 -84 -219 -84q-138 0 -222 84q-78 78 -104.5 221.5t-26.5 363.5v15h-149v-666h-185v1366h185v-545h151q0 348 129 477q84 84 222 84q135 0 219 -84q45 -45 74 -116.5t41.5 -164.5t16 -165t3.5 -170z
M627 649q0 -390 75 -465q32 -32 89 -32q54 0 86 32q75 75 75 465v103q0 362 -75 432q-33 33 -86 33q-56 0 -89 -33q-75 -70 -75 -432v-103z" />
    <glyph glyph-name="afii10049" unicode="&#x42f;" horiz-adv-x="729" 
d="M41 0l223 633q-81 13 -135 67q-86 83 -86 277q0 227 107 323q33 31 77.5 46.5t73.5 17.5t80 2h244v-1366h-185v623l-211 -623h-188zM440 1214h-49q-72 0 -110 -32q-60 -53 -60 -201q0 -62 14.5 -108t26 -61.5t23.5 -23.5q40 -32 127 -32h28v458z" />
    <glyph glyph-name="afii10065" unicode="&#x430;" horiz-adv-x="714" 
d="M618 0h-169v117q-30 -66 -66.5 -98.5t-101.5 -32.5q-45 0 -80.5 19.5t-58 48.5t-39 75t-24.5 85t-12.5 94t-5 85.5t-0.5 75.5q0 44 1 75t5.5 83t12.5 89t24.5 80t39.5 70t58.5 45.5t80.5 18.5q59 0 97.5 -30t68.5 -89v104h169v-915zM455 408v98q0 270 -109 270
q-110 0 -110 -256v-125q0 -258 110 -258q109 0 109 271z" />
    <glyph glyph-name="afii10066" unicode="&#x431;" horiz-adv-x="722" 
d="M481 393v113q0 186 -51 237q-25 25 -57 25q-33 0 -58 -25q-51 -51 -51 -237v-113q0 -174 51 -225q25 -25 58 -25q32 0 57 25q51 51 51 225zM449 1157l-50 -24q-90 -44 -131 -132q-36 -77 -32 -202q16 54 53 86q48 45 121 45q88 0 149 -64q58 -62 78 -162.5t20 -242.5
q0 -138 -23 -239.5t-91 -168.5q-70 -67 -174 -67q-108 0 -176 65q-38 37 -62 92t-33.5 127t-12.5 127.5t-3 137.5q0 201 18 374q22 204 121 301q42 42 144 90q13 6 36 15.5t33 14t24.5 12t23.5 14t16 14.5q24 28 24 64h150q-7 -122 -78 -189q-16 -16 -36.5 -29.5t-35 -21.5
t-38.5 -19.5t-35 -17.5z" />
    <glyph glyph-name="afii10067" unicode="&#x432;" horiz-adv-x="677" 
d="M96 915h226q147 0 210 -63q60 -60 60 -180q0 -96 -45 -148q-37 -41 -92 -49q61 -14 104 -57q57 -57 57 -162q0 -130 -71 -193q-66 -63 -195 -63h-254v915zM264 532h21q71 0 106 33q37 33 37 97q0 60 -35 92q-28 26 -100 26h-29v-248zM264 135h31q64 0 98 25q43 31 43 110
q0 75 -45 113q-39 31 -104 31h-23v-279z" />
    <glyph glyph-name="afii10068" unicode="&#x433;" horiz-adv-x="534" 
d="M510 766h-246v-766h-168v915h414v-149z" />
    <glyph glyph-name="afii10069" unicode="&#x434;" horiz-adv-x="727" 
d="M139 915h492v-763h80v-365h-152v213h-399v-213h-152v365q49 18 80 59q29 36 40 85t11 124v495zM463 152v612h-168v-324q0 -117 -21 -178q-18 -58 -67 -110h256z" />
    <glyph glyph-name="afii10070" unicode="&#x435;" horiz-adv-x="667" 
d="M612 424h-385q0 -293 117 -293q32 0 54 17.5t32.5 46.5t14.5 56.5t4 57.5h157q-4 -120 -35 -184q-32 -67 -92.5 -103t-136.5 -36q-54 0 -97 16t-72 42t-50 65t-32.5 78t-18.5 89.5t-9 90t-2 88.5q0 47 2 86.5t8.5 90t18 90.5t32.5 80.5t49.5 67t71 43.5t95.5 17t96 -18.5
t71 -47.5t49 -74t31.5 -86.5t17 -96.5t8 -94.5t1.5 -88.5zM227 547h213q-6 110 -17 151q-26 87 -89 88q-94 0 -106 -227q-1 -8 -1 -12z" />
    <glyph glyph-name="afii10072" unicode="&#x436;" horiz-adv-x="921" 
d="M913 0h-188l-182 418v-418h-164v418l-182 -418h-189l213 471l-211 444h191l178 -419v419h164v-419l178 419h190l-211 -444z" />
    <glyph glyph-name="afii10073" unicode="&#x437;" horiz-adv-x="600" 
d="M61 694v172q36 31 72 43q56 21 121 21q127 0 197 -70q65 -65 65 -176q0 -81 -39 -137q-32 -47 -88 -68q65 -21 105 -61q55 -59 55 -154q0 -133 -84 -211q-72 -67 -201 -67q-123 0 -203 57v178q28 -32 64 -51q43 -25 102 -25q68 0 103 35t35 92q0 67 -52 99
q-36 24 -120 24h-37v144h37q80 0 116 36q31 31 31 82q0 56 -37 88q-33 29 -84 29q-55 0 -96 -26q-29 -17 -62 -54z" />
    <glyph glyph-name="afii10074" unicode="&#x438;" horiz-adv-x="757" 
d="M96 915h168v-456q0 -49 -6 -166q10 43 51 153l189 469h164v-915h-168v455q0 81 6 161q-14 -61 -56 -167l-184 -449h-164v915z" />
    <glyph glyph-name="afii10075" unicode="&#x439;" horiz-adv-x="757" 
d="M96 915h168v-456q0 -49 -6 -166q10 43 51 153l189 469h164v-915h-168v455q0 81 6 161q-14 -61 -56 -167l-184 -449h-164v915zM496 1264l141 -50q-29 -86 -90 -133q-62 -47 -168 -47t-168 47q-61 47 -90 133l141 50q10 -42 39 -68q29 -25 78 -25t78 25q29 26 39 68z" />
    <glyph glyph-name="afii10076" unicode="&#x43a;" horiz-adv-x="692" 
d="M684 0h-197l-223 416v-416h-168v915h168v-415l215 415h199l-250 -444z" />
    <glyph glyph-name="afii10077" unicode="&#x43b;" horiz-adv-x="763" 
d="M668 915v-915h-168v764h-185v-361q0 -88 -3.5 -143t-24 -121.5t-58.5 -101.5q-51 -49 -141 -49q-40 0 -80 12v160q27 -17 53 -17q33 0 56 23q25 25 32 74t7 147v528h512z" />
    <glyph glyph-name="afii10078" unicode="&#x43c;" horiz-adv-x="872" 
d="M498 0h-123l-80 322q-40 165 -64 323q0 -119 -12 -315l-22 -330h-160l96 913h164l80 -376q5 -23 59 -281q17 81 35 163t25 118l79 376h164l97 -913h-160l-23 330q-12 196 -12 315q-25 -169 -63 -323z" />
    <glyph glyph-name="afii10079" unicode="&#x43d;" horiz-adv-x="733" 
d="M264 915v-350h205v350h168v-915h-168v414h-205v-414h-168v915h168z" />
    <glyph glyph-name="afii10080" unicode="&#x43e;" horiz-adv-x="698" 
d="M461 393v121q0 187 -51 238q-24 24 -58 24q-33 0 -57 -24q-51 -51 -51 -238v-121q0 -174 51 -225q25 -25 57 -25q33 0 58 25q51 51 51 225zM637 457q0 -62 -3.5 -109t-14 -106t-34.5 -107.5t-61 -83.5q-68 -65 -174 -65q-108 0 -176 65q-37 35 -61 83.5t-34.5 107.5
t-14 106t-3.5 109t3.5 109.5t14 106.5t34.5 107.5t61 83.5q69 66 176 66q105 0 174 -66q37 -35 61 -83.5t34.5 -107.5t14 -106.5t3.5 -109.5z" />
    <glyph glyph-name="afii10081" unicode="&#x43f;" horiz-adv-x="720" 
d="M96 0v915h529v-915h-168v764h-193v-764h-168z" />
    <glyph glyph-name="afii10082" unicode="&#x440;" horiz-adv-x="714" 
d="M264 915v-118q30 66 67.5 99.5t102.5 33.5q45 0 80.5 -20t58 -48.5t38.5 -75t24 -85t12.5 -94t5 -85.5t0.5 -76q0 -45 -1 -76t-5.5 -83.5t-12.5 -89t-24.5 -79.5t-40 -69.5t-59.5 -44.5t-82 -18q-61 0 -97.5 28.5t-66.5 87.5v-487h-168v1300h168zM477 395v125
q0 256 -110 256q-107 0 -107 -272v-94q0 -273 107 -273q110 0 110 258z" />
    <glyph glyph-name="afii10083" unicode="&#x441;" horiz-adv-x="518" 
d="M469 180v-157q-36 -22 -64.5 -29.5t-70.5 -7.5q-273 0 -273 467q0 47 2 86.5t8.5 90.5t18 91t32.5 80.5t49.5 67.5t71 44t95.5 17q69 0 131 -33v-172q-34 43 -84 43q-28 0 -50.5 -12.5t-37 -30.5t-24.5 -47t-15.5 -53t-8 -58.5t-3 -54t-0.5 -47.5q0 -320 137 -320
q45 0 86 35z" />
    <glyph glyph-name="afii10084" unicode="&#x442;" horiz-adv-x="536" 
d="M520 766h-168v-766h-168v766h-168v149h504v-149z" />
    <glyph glyph-name="afii10085" unicode="&#x443;" horiz-adv-x="667" 
d="M662 915l-379 -1300h-179l146 459l-244 841h193l133 -639l157 639h173z" />
    <glyph glyph-name="afii10086" unicode="&#x444;" horiz-adv-x="937" 
d="M385 -385v377q-133 10 -219 100q-109 118 -109 363q0 261 109 370q87 87 219 99v442h168v-442q132 -12 219 -99q109 -113 109 -368q0 -251 -109 -365q-86 -90 -219 -100v-377h-168zM541 772v-629q63 0 108 41q72 67 72 277q0 200 -70 268q-46 43 -110 43zM397 143v629
q-64 0 -110 -43q-70 -68 -70 -272q0 -203 72 -273q45 -41 108 -41z" />
    <glyph glyph-name="afii10087" unicode="&#x445;" horiz-adv-x="679" 
d="M674 0h-203q-6 13 -29 62.5t-38.5 83.5t-35 80.5t-31.5 83t-15 61.5q-5 -38 -22.5 -92t-34.5 -93.5t-44.5 -102t-36.5 -83.5h-178l230 483l-230 432h201q4 -9 27 -58.5t31 -67.5t24.5 -56.5t27 -69t19.5 -61.5q9 38 25 84.5t25 70t36 86t31 72.5h178l-207 -432z" />
    <glyph glyph-name="afii10088" unicode="&#x446;" horiz-adv-x="751" 
d="M96 915h168v-763h201v763h168v-763h98v-365h-156v213h-479v915z" />
    <glyph glyph-name="afii10089" unicode="&#x447;" horiz-adv-x="690" 
d="M426 0v399q-64 -22 -135 -22q-111 0 -168 55q-27 26 -42 63.5t-17.5 65t-2.5 68.5v286h164v-268q0 -67 27 -94q25 -25 80 -25q52 0 94 19v368h168v-915h-168z" />
    <glyph glyph-name="afii10090" unicode="&#x448;" horiz-adv-x="1089" 
d="M96 915h168v-763h197v763h168v-763h196v763h168v-915h-897v915z" />
    <glyph glyph-name="afii10091" unicode="&#x449;" horiz-adv-x="1112" 
d="M96 915h168v-763h197v763h168v-763h196v763h168v-763h99v-365h-156v213h-840v915z" />
    <glyph glyph-name="afii10092" unicode="&#x44a;" horiz-adv-x="731" 
d="M328 565h32q168 0 248 -82q72 -72 72 -213q0 -135 -74 -204q-70 -66 -215 -66h-231v766h-140v149h308v-350zM328 143h41q71 0 102 29q33 33 33 102q0 74 -37 111t-119 37h-20v-279z" />
    <glyph glyph-name="afii10093" unicode="&#x44b;" horiz-adv-x="942" 
d="M846 0h-168v915h168v-915zM264 915v-350h29q168 0 248 -82q71 -71 71 -209q0 -141 -73 -208q-70 -66 -215 -66h-228v915h168zM264 143h41q72 0 103 29q32 32 32 102q0 74 -37 111t-118 37h-21v-279z" />
    <glyph glyph-name="afii10094" unicode="&#x44c;" horiz-adv-x="667" 
d="M264 915v-350h33q168 0 248 -82q71 -71 71 -209q0 -141 -73 -208q-70 -66 -215 -66h-232v915h168zM264 143h41q72 0 103 29q32 32 32 102q0 74 -37 111t-118 37h-21v-279z" />
    <glyph glyph-name="afii10095" unicode="&#x44d;" horiz-adv-x="608" 
d="M74 31v178q23 -27 49 -43q34 -21 82 -21q57 0 92 33q65 60 65 215h-223v152h221q-4 127 -63 186q-37 37 -94 37q-43 0 -84 -27q-23 -17 -45 -43v183q66 49 164 49q123 0 196 -76q113 -118 113 -381q0 -301 -119 -418q-41 -40 -86.5 -54.5t-105.5 -14.5q-100 0 -162 45z
" />
    <glyph glyph-name="afii10096" unicode="&#x44e;" horiz-adv-x="1007" 
d="M770 393v121q0 187 -51 238q-24 24 -57 24q-34 0 -58 -24q-51 -51 -51 -238v-121q0 -172 51 -225q21 -25 58 -25q32 0 57 25q51 51 51 225zM946 457q0 -134 -21.5 -236.5t-90.5 -169.5q-70 -65 -181 -65q-107 0 -172 65q-104 104 -104 350h-113v-401h-168v915h168v-362
h117q0 212 104 311q69 66 172 66q108 0 177 -66q37 -35 61 -83.5t34.5 -107.5t13.5 -106t3 -110z" />
    <glyph glyph-name="afii10097" unicode="&#x44f;" horiz-adv-x="661" 
d="M41 0l180 367q-74 15 -121 69q-51 60 -51 174q0 149 76 228q47 48 107.5 62.5t136.5 14.5h196v-915h-168v375l-170 -375h-186zM397 483v285h-37q-67 0 -100 -33q-39 -35 -39 -114q0 -75 39 -107q39 -31 102 -31h35z" />
    <glyph glyph-name="afii10071" unicode="&#x451;" horiz-adv-x="667" 
d="M612 424h-385q0 -293 117 -293q32 0 54 17.5t32.5 46.5t14.5 56.5t4 57.5h157q-4 -120 -35 -184q-32 -67 -92.5 -103t-136.5 -36q-54 0 -97 16t-72 42t-50 65t-32.5 78t-18.5 89.5t-9 90t-2 88.5q0 47 2 86.5t8.5 90t18 90.5t32.5 80.5t49.5 67t71 43.5t95.5 17t96 -18.5
t71 -47.5t49 -74t31.5 -86.5t17 -96.5t8 -94.5t1.5 -88.5zM227 547h213q-6 110 -17 151q-26 87 -89 88q-94 0 -106 -227q-1 -8 -1 -12zM588 1153q0 -43 -30 -72.5t-73 -29.5t-72.5 29.5t-29.5 72.5t29.5 72.5t72.5 29.5t73 -29.5t30 -72.5zM285 1153q0 -43 -30 -72.5
t-73 -29.5t-72.5 29.5t-29.5 72.5t29.5 72.5t72.5 29.5t73 -29.5t30 -72.5z" />
    <glyph glyph-name="afii10099" unicode="&#x452;" horiz-adv-x="759" 
d="M123 1493h168v-295h217v-131h-217v-307q32 55 69 84q51 37 121 37q75 0 121 -41q62 -58 62 -213v-717q0 -78 -14 -138t-60 -102q-59 -55 -154 -55q-48 0 -106 20v158q28 -20 69 -20q40 0 64 20q15 14 23 37.5t9 42t1 55.5v656q0 34 -1 54.5t-9.5 49t-24.5 43.5
q-28 23 -64 23q-42 0 -69 -27q-37 -39 -37 -164v-563h-168v1067h-103v131h103v295z" />
    <glyph glyph-name="afii10100" unicode="&#x453;" horiz-adv-x="534" 
d="M510 766h-246v-766h-168v915h414v-149zM207 1108l176 264l139 -86l-219 -235z" />
    <glyph glyph-name="afii10101" unicode="&#x454;" horiz-adv-x="608" 
d="M535 209v-178q-62 -45 -162 -45q-122 0 -193 69q-119 116 -119 402q0 281 113 397q73 76 193 76q103 0 168 -49v-183q-20 24 -46 43q-42 27 -86 27q-55 0 -92 -37q-59 -59 -63 -186h221v-152h-223q0 -155 65 -215q35 -33 92 -33q48 0 82 21q28 18 50 43z" />
    <glyph glyph-name="afii10102" unicode="&#x455;" horiz-adv-x="532" 
d="M449 897v-158q-57 45 -130 45q-44 0 -76 -29.5t-32 -72.5q0 -41 29 -76t70.5 -65t83.5 -65t71 -91.5t29 -128.5q0 -121 -71.5 -195.5t-191.5 -74.5q-47 0 -77 9t-72 34v164q73 -56 139 -56q55 0 86 30t31 85q0 45 -29.5 83.5t-71.5 70t-84.5 66.5t-72 90t-29.5 124
q0 110 68.5 180t177.5 70q81 0 152 -39z" />
    <glyph glyph-name="afii10103" unicode="&#x456;" horiz-adv-x="360" 
d="M287 1190q0 -46 -33.5 -80.5t-79.5 -34.5q-47 0 -81 34t-34 81t34 81t81 34q46 0 79.5 -34.5t33.5 -80.5zM264 0h-168v915h168v-915z" />
    <glyph glyph-name="afii10104" unicode="&#x457;" horiz-adv-x="360" 
d="M264 0h-168v915h168v-915zM340 1202q0 -43 -19.5 -72.5t-48.5 -29.5t-49 29.5t-20 72.5t20 73t49 30t48.5 -30t19.5 -73zM158 1202q0 -43 -19.5 -72.5t-48.5 -29.5t-49.5 29.5t-20.5 72.5t20.5 73t49.5 30t48.5 -30t19.5 -73z" />
    <glyph glyph-name="afii10105" unicode="&#x458;" horiz-adv-x="360" 
d="M287 1190q0 -46 -33.5 -80.5t-79.5 -34.5q-47 0 -81 34t-34 81t34 81t81 34q46 0 79.5 -34.5t33.5 -80.5zM264 -385h-168v1300h168v-1300z" />
    <glyph glyph-name="afii10106" unicode="&#x459;" horiz-adv-x="1071" 
d="M668 565h32q168 0 248 -82q72 -72 72 -202q0 -147 -74 -215q-70 -66 -215 -66h-231v764h-185v-361q0 -88 -3.5 -143t-24 -121.5t-58.5 -101.5q-51 -49 -141 -49q-40 0 -80 12v160q27 -17 53 -17q33 0 56 23q25 25 32 74t7 147v528h512v-350zM668 143h41q71 0 102 29
q33 33 33 102q0 74 -37 111t-119 37h-20v-279z" />
    <glyph glyph-name="afii10107" unicode="&#x45a;" horiz-adv-x="1040" 
d="M637 915v-350h33q168 0 248 -82q71 -71 71 -209q0 -140 -74 -208q-70 -66 -215 -66h-231v422h-205v-422h-168v915h168v-350h205v350h168zM637 143h41q71 0 102 29q33 33 33 102q0 74 -37 111t-119 37h-20v-279z" />
    <glyph glyph-name="afii10108" unicode="&#x45b;" horiz-adv-x="759" 
d="M664 0h-168v563q0 35 -2.5 57.5t-10.5 52t-29.5 45t-54.5 15.5q-26 0 -45.5 -8t-31 -25t-18.5 -32t-9.5 -42t-3 -41t-0.5 -42v-543h-168v1067h-103v131h103v295h168v-295h217v-131h-217v-307q38 62 80 91.5t108 29.5q46 0 80 -14.5t53.5 -37.5t31.5 -57.5t16 -68t4 -76.5
v-627z" />
    <glyph glyph-name="afii10109" unicode="&#x45c;" horiz-adv-x="692" 
d="M684 0h-197l-223 416v-416h-168v915h168v-415l215 415h199l-250 -444zM268 1108l176 264l140 -86l-219 -235z" />
    <glyph glyph-name="afii10110" unicode="&#x45e;" horiz-adv-x="667" 
d="M662 915l-379 -1300h-179l146 459l-244 841h193l133 -639l157 639h173zM461 1264l141 -50q-29 -86 -90 -133q-62 -47 -168 -47t-168 47q-61 47 -90 133l141 50q10 -42 39 -68q29 -25 78 -25t78 25q29 26 39 68z" />
    <glyph glyph-name="afii10193" unicode="&#x45f;" horiz-adv-x="729" 
d="M96 915h168v-763h201v763h168v-915h-191v-213h-155v213h-191v915z" />
    <glyph glyph-name="afii10146" unicode="&#x462;" horiz-adv-x="825" 
d="M178 0v1073h-147v154h147v194h184v-194h228v-154h-228v-291h27q52 0 91 -4t93.5 -25.5t92.5 -60.5q94 -96 94 -309t-90 -303q-80 -80 -232 -80h-260zM362 627v-471h9q32 0 50.5 1.5t47 10.5t47.5 27q51 49 51 190q0 148 -57 201q-45 41 -148 41z" />
    <glyph glyph-name="afii10194" unicode="&#x463;" horiz-adv-x="706" 
d="M135 0v776h-115v139h115v451h168v-451h180v-139h-180v-211h33q168 0 248 -82q71 -71 71 -209q0 -141 -73 -208q-70 -66 -215 -66h-232zM303 143h41q71 0 102 29q33 33 33 102q0 74 -37 111t-118 37h-21v-279z" />
    <glyph glyph-name="afii10147" unicode="&#x472;" horiz-adv-x="866" 
d="M788 676q0 -226 -28 -378.5t-107 -231.5q-84 -84 -219 -84q-137 0 -221 84q-45 45 -74 117t-41.5 164.5t-16 163.5t-3.5 167q0 101 4 175.5t16.5 166t41.5 162.5t73 116q84 84 221 84q135 0 219 -84q78 -79 106.5 -231t28.5 -391zM270 791h326q2 103 -16.5 227.5
t-59.5 165.5q-33 33 -86 33q-55 0 -88 -33q-76 -74 -76 -393zM596 635h-326q-5 -370 76 -451q32 -32 88 -32q54 0 86 32q7 7 14 17t19.5 43.5t21.5 79t15.5 127.5t5.5 184z" />
    <glyph glyph-name="afii10195" unicode="&#x473;" horiz-adv-x="698" 
d="M242 393q0 -57 12 -125.5t41 -99.5q22 -25 57 -25t58 23q28 26 40.5 98t12.5 129h-221zM242 545h221q-9 163 -53 207q-24 24 -58 24q-33 0 -57 -24q-43 -43 -53 -207zM637 457q0 -133 -22 -236t-91 -170q-68 -65 -174 -65q-108 0 -176 65q-64 61 -88.5 160.5t-24.5 239.5
q0 89 6.5 155t33 139.5t73.5 118.5q69 66 176 66q105 0 174 -66q39 -36 63.5 -86t34.5 -111t12.5 -104.5t2.5 -105.5z" />
    <glyph glyph-name="afii10148" unicode="&#x474;" horiz-adv-x="669" 
d="M674 1366l-268 -1366h-146l-264 1366h182q85 -519 125 -795q27 -177 33 -233q2 45 31 221q5 30 21 137.5t26 165.5l88 504h172z" />
    <glyph glyph-name="afii10196" unicode="&#x475;" horiz-adv-x="614" 
d="M608 915l-239 -915h-115l-248 915h182q5 -22 21.5 -95.5t23 -103t20 -93.5t20 -103t15.5 -94.5t14.5 -104.5t8.5 -98q6 23 27 168q9 62 23 135t25.5 125t30 136.5t27.5 127.5h164z" />
    <glyph glyph-name="afii10050" unicode="&#x490;" horiz-adv-x="698" 
d="M104 1366l381 2v256h177v-414h-373v-1210h-185v1366z" />
    <glyph glyph-name="afii10098" unicode="&#x491;" horiz-adv-x="581" 
d="M96 0v915h305v205h156v-354h-293v-766h-168z" />
    <glyph glyph-name="uni0492" unicode="&#x492;" horiz-adv-x="661" 
d="M625 1210h-308v-432h258v-155h-258v-623h-184v623h-102v155h102v588h492v-156z" />
    <glyph glyph-name="uni0493" unicode="&#x493;" horiz-adv-x="548" 
d="M524 766h-245v-250h190v-149h-190v-367h-168v367h-91v149h91v399h413v-149z" />
    <glyph glyph-name="uni0494" unicode="&#x494;" horiz-adv-x="811" 
d="M596 1210h-307v-413q70 34 145 34q137 0 223 -83q56 -54 84.5 -143.5t28.5 -196.5q0 -101 -26.5 -205t-90.5 -164q-62 -57 -161 -57q-75 0 -144 28l41 178q36 -36 82 -36q48 0 72 41q35 54 35 192q0 169 -70 236q-41 41 -102 41q-64 0 -117 -39v-623h-185v1366h492v-156z
" />
    <glyph glyph-name="uni0495" unicode="&#x495;" horiz-adv-x="657" 
d="M510 766h-246v-217h12q154 0 236 -84q57 -59 75.5 -147.5t18.5 -198.5q0 -279 -125 -402q-93 -93 -235 -102v176q61 6 100 45q80 75 80 279q0 193 -61 245q-35 31 -101 31v-391h-168v915h414v-149z" />
    <glyph glyph-name="uni0496" unicode="&#x496;" horiz-adv-x="1118" 
d="M776 705l211 -549h121v-422h-176v266h-76l-238 674v-674h-180v674l-237 -674h-191l271 705l-258 661h178l237 -631v631h180v-631l238 631h178z" />
    <glyph glyph-name="uni0497" unicode="&#x497;" horiz-adv-x="954" 
d="M10 915h191l178 -419v419h164v-419l178 419h190l-211 -444l148 -319h98v-365h-155v213h-66l-182 418v-418h-164v418l-182 -418h-189l213 471z" />
    <glyph glyph-name="uni0498" unicode="&#x498;" horiz-adv-x="727" 
d="M197 784h20q105 0 158 47q57 50 57 160q0 115 -51 172q-45 49 -121 49q-100 0 -174 -92v191q90 71 211 71q138 0 219 -75q100 -96 100 -291q0 -159 -73 -236q-42 -45 -97 -57q71 -10 125 -64q86 -86 86 -253q0 -178 -79 -293q-68 -99 -185 -121v-258h-176v256
q-80 10 -139 63v193q79 -88 192 -88q82 0 133 47q64 60 64 192q0 131 -61 185q-51 47 -166 47h-43v155z" />
    <glyph glyph-name="uni0499" unicode="&#x499;" horiz-adv-x="600" 
d="M61 694v172q36 31 72 43q56 21 121 21q127 0 197 -70q65 -65 65 -176q0 -81 -39 -137q-32 -47 -88 -68q65 -21 105 -61q55 -59 55 -156q0 -129 -84 -209q-51 -51 -129 -61v-205h-156v207q-67 6 -119 49v178q37 -37 64 -51q45 -25 96 -25q74 0 109 35t35 92q0 67 -52 99
q-36 24 -120 24h-37v144h37q80 0 116 36q31 31 31 82q0 56 -37 88q-33 29 -84 29q-55 0 -96 -26q-29 -17 -62 -54z" />
    <glyph glyph-name="uni049A" unicode="&#x49a;" horiz-adv-x="813" 
d="M104 1366h185v-627l256 627h186l-276 -661l233 -549h121v-422h-176v266h-88l-256 670v-670h-185v1366z" />
    <glyph glyph-name="uni049B" unicode="&#x49b;" horiz-adv-x="708" 
d="M96 915h168v-415l215 415h199l-250 -444l174 -319h98v-365h-155v213h-58l-223 416v-416h-168v915z" />
    <glyph glyph-name="uni049C" unicode="&#x49c;" horiz-adv-x="950" 
d="M289 664v-664h-185v1366h185v-547h82v293h129v-354l235 608h189l-252 -631l268 -735h-201l-239 692v-358h-129v330h-82z" />
    <glyph glyph-name="uni049D" unicode="&#x49d;" horiz-adv-x="802" 
d="M264 418v-418h-168v915h168v-354h62v232h123v-265l151 387h191l-191 -426l195 -489h-189l-157 432v-262h-123v248h-62z" />
    <glyph glyph-name="uni04A0" unicode="&#x4a0;" horiz-adv-x="901" 
d="M891 0h-207l-256 670v-670h-184v1210h-234v156h418v-627l256 627h186l-276 -661z" />
    <glyph glyph-name="uni04A1" unicode="&#x4a1;" horiz-adv-x="811" 
d="M803 0h-197l-223 416v-416h-168v766h-205v149h373v-415l215 415h199l-250 -444z" />
    <glyph glyph-name="uni04A2" unicode="&#x4a2;" horiz-adv-x="892" 
d="M104 1366h185v-535h270v535h184v-1210h121v-422h-176v266h-129v676h-270v-676h-185v1366z" />
    <glyph glyph-name="uni04A3" unicode="&#x4a3;" horiz-adv-x="755" 
d="M264 915v-350h205v350h168v-763h98v-365h-155v213h-111v414h-205v-414h-168v915h168z" />
    <glyph glyph-name="uni04A4" unicode="&#x4a4;" horiz-adv-x="1032" 
d="M104 1366h185v-535h270v535h453v-156h-269v-1210h-184v676h-270v-676h-185v1366z" />
    <glyph glyph-name="uni04A5" unicode="&#x4a5;" horiz-adv-x="847" 
d="M264 915v-350h205v350h369v-149h-201v-766h-168v414h-205v-414h-168v915h168z" />
    <glyph glyph-name="uni04AA" unicode="&#x4aa;" horiz-adv-x="690" 
d="M641 188v-168q-32 -23 -63 -28v-258h-177v258q-88 16 -159 84q-51 50 -85.5 119t-50.5 150.5t-22 154t-6 159.5q0 465 160 627q98 98 249 98q81 0 154 -41v-165q-60 34 -119 34q-87 0 -143 -61q-57 -62 -82 -178.5t-25 -302.5q0 -333 105 -443q62 -65 155 -65
q64 0 109 26z" />
    <glyph glyph-name="uni04AB" unicode="&#x4ab;" horiz-adv-x="518" 
d="M469 180v-157q-32 -21 -66 -29v-207h-155v215q-59 19 -103 74q-48 62 -66 157t-18 236q0 288 105 393q68 68 178 68q65 0 125 -33v-172q-30 43 -84 43q-50 0 -82 -37q-57 -63 -57 -266q0 -104 13 -177.5t54 -113.5q29 -29 70 -29q51 0 86 35z" />
    <glyph glyph-name="uni04AE" unicode="&#x4ae;" horiz-adv-x="698" 
d="M702 1366l-237 -778v-588h-184v588l-285 778h194l111 -367q49 -158 68 -266q23 138 53 271l90 362h190z" />
    <glyph glyph-name="uni04AF" unicode="&#x4af;" horiz-adv-x="663" 
d="M6 915h180l146 -579l145 579h180l-245 -798v-502h-160v502z" />
    <glyph glyph-name="uni04B0" unicode="&#x4b0;" horiz-adv-x="698" 
d="M702 1366l-237 -778v-56h190v-143h-190v-389h-184v389h-191v143h191v56l-285 778h194l111 -367q55 -181 70 -266q19 125 49 260q12 52 63 258l29 115h190z" />
    <glyph glyph-name="uni04B1" unicode="&#x4b1;" horiz-adv-x="663" 
d="M6 915h180l146 -542l145 542h180l-245 -745v-39h188v-131h-188v-385h-160v385h-189v131h189v39z" />
    <glyph glyph-name="uni04B2" unicode="&#x4b2;" horiz-adv-x="743" 
d="M190 1366q10 -28 42 -112t52 -138t41 -125.5t27 -118.5q17 76 40 154.5t59 188.5t49 151h184l-252 -672l195 -538h108v-422h-176v266h-59q-14 42 -43 123t-47 132t-38 122t-32 133q-7 -65 -55 -211q-57 -183 -95 -299h-194l260 694l-244 672h178z" />
    <glyph glyph-name="uni04B3" unicode="&#x4b3;" horiz-adv-x="694" 
d="M6 915h201q4 -9 27 -58.5t31 -67.5t24.5 -56.5t27 -69t19.5 -61.5q9 38 25 84.5t25 70t36 86t31 72.5h178l-207 -432l166 -331h98v-365h-156v213h-67q-10 25 -47.5 109.5t-64 153.5t-31.5 108q-5 -38 -22.5 -92t-34.5 -93.5t-44.5 -102t-36.5 -83.5h-178l230 483z" />
    <glyph glyph-name="uni04B6" unicode="&#x4b6;" horiz-adv-x="874" 
d="M725 1366v-1210h121v-422h-176v266h-129v653q-68 -16 -148 -16q-131 0 -198 49q-62 43 -82.5 115t-20.5 182v383h187v-389q0 -105 40 -141q33 -31 113 -31q51 0 109 14v547h184z" />
    <glyph glyph-name="uni04B7" unicode="&#x4b7;" horiz-adv-x="712" 
d="M537 0h-111v399q-64 -22 -135 -22q-111 0 -168 55q-27 26 -42 63.5t-17.5 65t-2.5 68.5v286h164v-268q0 -67 27 -94q25 -25 80 -25q52 0 94 19v368h168v-763h98v-365h-155v213z" />
    <glyph glyph-name="uni04B8" unicode="&#x4b8;" horiz-adv-x="878" 
d="M774 1366v-1366h-184v653q-38 -9 -82 -12v-291h-129v287q-105 0 -176 45q-37 24 -61 60.5t-34 81.5t-13 79.5t-3 79.5v383h187v-403q0 -89 26 -121q26 -33 74 -33v303h129v-307q38 0 82 14v547h184z" />
    <glyph glyph-name="uni04B9" unicode="&#x4b9;" horiz-adv-x="751" 
d="M487 0v399q-33 -13 -61 -16v-197h-123v193q-53 -4 -103 13t-81 48q-58 58 -58 187v288h164v-282q0 -62 27 -86q18 -15 51 -19v273h123v-271q34 3 61 17v368h168v-915h-168z" />
    <glyph glyph-name="uni04BA" unicode="&#x4ba;" horiz-adv-x="827" 
d="M104 0v1366h185v-555q68 20 147 20q125 0 201 -51q64 -43 86 -106.5t22 -169.5v-504h-186v492q0 98 -37 135t-116 37q-47 0 -117 -19v-645h-185z" />
    <glyph glyph-name="uni04BB" unicode="&#x4bb;" horiz-adv-x="733" 
d="M637 0h-168v610q-1 25 -1.5 38t-3.5 37.5t-9.5 38t-16.5 29t-27 22.5t-40 7q-26 0 -45 -8t-30 -24.5t-18 -32.5t-10 -42t-3.5 -41.5t-0.5 -41.5v-592h-168v1493h168v-684q38 62 80.5 91.5t108.5 29.5q46 0 80 -14.5t53.5 -37.5t31 -57.5t15.5 -68t4 -76.5v-676z" />
    <glyph glyph-name="uni04C0" unicode="&#x4c0;" horiz-adv-x="360" 
d="M264 0h-168v1366h168v-1366z" />
    <glyph glyph-name="uni04C1" unicode="&#x4c1;" horiz-adv-x="1056" 
d="M1047 0h-191l-238 674v-674h-180v674l-237 -674h-191l271 705l-258 661h178l237 -631v631h180v-631l238 631h178l-258 -661zM659 1694l154 -62q-30 -90 -102 -139q-68 -47 -183 -47q-114 0 -182 47q-72 49 -102 139l153 62q12 -50 43 -78q31 -29 88 -29t88 29
q33 30 43 78z" />
    <glyph glyph-name="uni04C2" unicode="&#x4c2;" horiz-adv-x="921" 
d="M913 0h-188l-182 418v-418h-164v418l-182 -418h-189l213 471l-211 444h191l178 -419v419h164v-419l178 419h190l-211 -444zM578 1264l141 -50q-29 -86 -90 -133q-62 -47 -168 -47t-168 47q-61 47 -90 133l141 50q10 -42 39 -68q29 -25 78 -25t78 25q29 26 39 68z" />
    <glyph glyph-name="uni04C3" unicode="&#x4c3;" horiz-adv-x="823" 
d="M104 1366h185v-661l256 661h186l-235 -573q95 -15 159 -82q103 -110 103 -371v-180q0 -317 -111 -424q-67 -64 -170 -64q-66 0 -133 29l41 178q37 -37 78 -37q46 0 72 41q38 56 38 250v191q0 69 -2 105.5t-17.5 89t-47.5 81.5q-45 41 -109 41q-49 0 -108 -27v-614h-185
v1366z" />
    <glyph glyph-name="uni04C4" unicode="&#x4c4;" horiz-adv-x="686" 
d="M96 915h168v-444l215 444h199l-238 -413q58 -19 99 -60q49 -49 67.5 -122t18.5 -179q0 -299 -125 -424q-93 -93 -236 -102v176q62 6 101 45q48 43 63.5 119.5t15.5 185.5q0 158 -59 213q-41 37 -121 37v-391h-168v915z" />
    <glyph glyph-name="uni04C7" unicode="&#x4c7;" horiz-adv-x="847" 
d="M104 1366h185v-535h270v535h184v-1427q0 -105 -20 -164q-28 -80 -94.5 -120t-155.5 -40q-91 0 -158 37v184q76 -45 123 -45q29 0 51 8.5t34.5 26.5t20.5 35t11 46.5t3.5 46.5t0.5 48v674h-270v-676h-185v1366z" />
    <glyph glyph-name="uni04C8" unicode="&#x4c8;" horiz-adv-x="733" 
d="M264 915v-350h205v350h168v-1005q0 -78 -14 -138t-60 -102q-59 -55 -153 -55q-49 0 -107 20v158q28 -20 70 -20q39 0 63 20q15 14 23 37.5t9 42t1 55.5v486h-205v-414h-168v915h168z" />
    <glyph glyph-name="uni04D0" unicode="&#x4d0;" horiz-adv-x="737" 
d="M735 0h-182l-51 266h-271l-51 -266h-178l297 1366h145zM258 408h217q-79 439 -106 692q-21 -213 -111 -692zM500 1694l153 -62q-30 -90 -102 -139q-68 -47 -182 -47q-115 0 -183 47q-72 49 -102 139l154 62q12 -50 43 -78q31 -29 88 -29t88 29q33 30 43 78z" />
    <glyph glyph-name="uni04D1" unicode="&#x4d1;" horiz-adv-x="714" 
d="M618 0h-169v117q-30 -66 -66.5 -98.5t-101.5 -32.5q-45 0 -80.5 19.5t-58 48.5t-39 75t-24.5 85t-12.5 94t-5 85.5t-0.5 75.5q0 44 1 75t5.5 83t12.5 89t24.5 80t39.5 70t58.5 45.5t80.5 18.5q59 0 97.5 -30t68.5 -89v104h169v-915zM455 408v98q0 270 -109 270
q-110 0 -110 -256v-125q0 -258 110 -258q109 0 109 271zM473 1264l141 -50q-29 -86 -90 -133q-62 -47 -168 -47t-168 47q-61 47 -90 133l142 50q10 -42 39 -68q29 -25 77 -25q49 0 78 25q29 26 39 68z" />
    <glyph glyph-name="uni04D2" unicode="&#x4d2;" horiz-adv-x="737" 
d="M735 0h-182l-51 266h-271l-51 -266h-178l297 1366h145zM258 408h217q-79 439 -106 692q-21 -213 -111 -692zM612 1579q0 -43 -29.5 -72.5t-72.5 -29.5t-72.5 29.5t-29.5 72.5t29.5 72.5t72.5 29.5t72.5 -29.5t29.5 -72.5zM309 1579q0 -43 -29.5 -72.5t-72.5 -29.5
t-73 29.5t-30 72.5t30 72.5t73 29.5t72.5 -29.5t29.5 -72.5z" />
    <glyph glyph-name="uni04D3" unicode="&#x4d3;" horiz-adv-x="714" 
d="M618 0h-169v117q-30 -66 -66.5 -98.5t-101.5 -32.5q-45 0 -80.5 19.5t-58 48.5t-39 75t-24.5 85t-12.5 94t-5 85.5t-0.5 75.5q0 44 1 75t5.5 83t12.5 89t24.5 80t39.5 70t58.5 45.5t80.5 18.5q59 0 97.5 -30t68.5 -89v104h169v-915zM455 408v98q0 270 -109 270
q-110 0 -110 -256v-125q0 -258 110 -258q109 0 109 271zM602 1153q0 -43 -29.5 -72.5t-72.5 -29.5t-73 29.5t-30 72.5t30 72.5t73 29.5t72.5 -29.5t29.5 -72.5zM299 1153q0 -43 -29.5 -72.5t-72.5 -29.5t-73 29.5t-30 72.5t30 72.5t73 29.5t72.5 -29.5t29.5 -72.5z" />
    <glyph glyph-name="uni04D4" unicode="&#x4d4;" horiz-adv-x="1046" 
d="M1044 0h-475l-55 268h-283l-49 -268h-180l291 1366h452l35 -156h-297l92 -434h271l37 -155h-271l105 -465h291zM489 408l-65 309q-27 131 -55 389q-4 -68 -37 -293q-29 -195 -74 -405h231z" />
    <glyph glyph-name="uni04D5" unicode="&#x4d5;" horiz-adv-x="1034" 
d="M811 313h162q-4 -72 -17 -126t-41 -102t-80 -73.5t-126 -25.5q-82 0 -134 34t-83 109q-33 -76 -79.5 -109.5t-127.5 -33.5q-63 0 -108.5 24.5t-70 67.5t-35 93t-10.5 110q0 59 11 111t35.5 98t70.5 73t109 27q91 0 143 -60q-1 13 -1.5 36t-1 35.5t-2.5 32.5t-4.5 31.5
t-8 27.5t-13 25t-18.5 19.5t-25.5 16t-33.5 9t-43 3.5q-90 0 -173 -53v172q55 25 93 35t92 10q77 0 129.5 -26.5t87.5 -90.5q36 61 82 89t115 28q54 0 96.5 -19t70.5 -48t47.5 -75t30 -86.5t16 -97.5t6.5 -93.5t1 -88.5h-377v-37q0 -35 1 -59.5t7.5 -66t17.5 -67.5
t34.5 -46.5t56.5 -20.5q98 0 98 188zM803 545v41q0 32 -3.5 62t-13 65t-32 56.5t-54.5 21.5t-54 -21.5t-31.5 -56.5t-13 -64t-3.5 -61v-43h205zM442 291q0 166 -106 166q-105 0 -105 -158q0 -178 105 -178q32 0 54.5 16t33 43.5t14.5 54t4 56.5z" />
    <glyph glyph-name="uni04D6" unicode="&#x4d6;" horiz-adv-x="657" 
d="M594 0h-490v1366h490v-156h-305v-434h270v-155h-270v-465h305v-156zM477 1694l154 -62q-29 -89 -103 -139q-68 -47 -182 -47t-182 47q-74 50 -103 139l154 62q12 -50 43 -78q31 -29 88 -29t88 29q33 30 43 78z" />
    <glyph glyph-name="uni04D7" unicode="&#x4d7;" horiz-adv-x="667" 
d="M612 424h-385q0 -293 117 -293q32 0 54 17.5t32.5 46.5t14.5 56.5t4 57.5h157q-4 -120 -35 -184q-32 -67 -92.5 -103t-136.5 -36q-54 0 -97 16t-72 42t-50 65t-32.5 78t-18.5 89.5t-9 90t-2 88.5q0 47 2 86.5t8.5 90t18 90.5t32.5 80.5t49.5 67t71 43.5t95.5 17t96 -18.5
t71 -47.5t49 -74t31.5 -86.5t17 -96.5t8 -94.5t1.5 -88.5zM227 547h213q-6 110 -17 151q-26 87 -89 88q-94 0 -106 -227q-1 -8 -1 -12zM451 1264l141 -50q-29 -86 -90 -133q-62 -47 -168 -47t-168 47q-61 47 -90 133l141 50q10 -42 39 -68q29 -25 78 -25t78 25q29 26 39 68z
" />
    <glyph glyph-name="uni04D8" unicode="&#x4d8;" horiz-adv-x="841" 
d="M78 719h497q-3 166 -14 276q-12 144 -65 193q-35 33 -90 33q-58 0 -91 -31q-47 -42 -65 -158l-172 72q13 51 41.5 108t62.5 91q79 79 221 79t226 -82q46 -44 75.5 -110t42 -153t16 -157t3.5 -171q0 -513 -141 -650q-79 -77 -219 -77q-132 0 -207 75q-74 76 -97.5 211
t-23.5 348v103zM573 563h-321v-100q0 -208 63 -273q36 -36 95 -36q56 0 88 30q41 39 59 162q12 86 16 217z" />
    <glyph glyph-name="afii10846" unicode="&#x4d9;" horiz-adv-x="667" 
d="M61 508h385v8q0 195 -59 246q-25 22 -57 22q-38 0 -60 -22q-23 -22 -36 -66.5t-15 -89.5l-158 33q24 152 89 219q69 72 182 72q110 0 176 -66q104 -102 104 -403q0 -302 -104 -408q-64 -67 -174 -67q-96 0 -160 61q-113 109 -113 397v64zM446 385h-213q4 -185 54 -235
q21 -21 51 -21q35 0 57 25q25 26 37.5 78.5t13.5 152.5z" />
    <glyph glyph-name="uni04DA" unicode="&#x4da;" horiz-adv-x="841" 
d="M78 719h497q-3 166 -14 276q-12 144 -65 193q-35 33 -90 33q-58 0 -91 -31q-47 -42 -65 -158l-172 72q13 51 41.5 108t62.5 91q79 79 221 79t226 -82q46 -44 75.5 -110t42 -153t16 -157t3.5 -171q0 -513 -141 -650q-79 -77 -219 -77q-132 0 -207 75q-74 76 -97.5 211
t-23.5 348v103zM573 563h-321v-100q0 -208 63 -273q36 -36 95 -36q56 0 88 30q41 39 59 162q12 86 16 217zM655 1579q0 -43 -29.5 -72.5t-72.5 -29.5t-72.5 29.5t-29.5 72.5t29.5 72.5t72.5 29.5t72.5 -29.5t29.5 -72.5zM352 1579q0 -43 -29.5 -72.5t-72.5 -29.5t-73 29.5
t-30 72.5t30 72.5t73 29.5t72.5 -29.5t29.5 -72.5z" />
    <glyph glyph-name="uni04DB" unicode="&#x4db;" horiz-adv-x="667" 
d="M61 508h385v8q0 195 -59 246q-25 22 -57 22q-38 0 -60 -22q-23 -22 -36 -66.5t-15 -89.5l-158 33q24 152 89 219q69 72 182 72q110 0 176 -66q104 -102 104 -403q0 -302 -104 -408q-64 -67 -174 -67q-96 0 -160 61q-113 109 -113 397v64zM446 385h-213q4 -185 54 -235
q21 -21 51 -21q35 0 57 25q25 26 37.5 78.5t13.5 152.5zM592 1153q0 -43 -30 -72.5t-73 -29.5t-72.5 29.5t-29.5 72.5t29.5 72.5t72.5 29.5t73 -29.5t30 -72.5zM289 1153q0 -43 -30 -72.5t-73 -29.5t-72.5 29.5t-29.5 72.5t29.5 72.5t72.5 29.5t73 -29.5t30 -72.5z" />
    <glyph glyph-name="uni04DC" unicode="&#x4dc;" horiz-adv-x="1056" 
d="M1047 0h-191l-238 674v-674h-180v674l-237 -674h-191l271 705l-258 661h178l237 -631v631h180v-631l238 631h178l-258 -661zM772 1579q0 -43 -29.5 -72.5t-72.5 -29.5t-73 29.5t-30 72.5t30 72.5t73 29.5t72.5 -29.5t29.5 -72.5zM469 1579q0 -43 -29.5 -72.5t-72.5 -29.5
t-73 29.5t-30 72.5t30 72.5t73 29.5t72.5 -29.5t29.5 -72.5z" />
    <glyph glyph-name="uni04DD" unicode="&#x4dd;" horiz-adv-x="921" 
d="M913 0h-188l-182 418v-418h-164v418l-182 -418h-189l213 471l-211 444h191l178 -419v419h164v-419l178 419h190l-211 -444zM705 1153q0 -43 -30 -72.5t-73 -29.5t-72.5 29.5t-29.5 72.5t29.5 72.5t72.5 29.5t73 -29.5t30 -72.5zM401 1153q0 -43 -29.5 -72.5t-72.5 -29.5
t-72.5 29.5t-29.5 72.5t29.5 72.5t72.5 29.5t72.5 -29.5t29.5 -72.5z" />
    <glyph glyph-name="uni04DE" unicode="&#x4de;" horiz-adv-x="727" 
d="M197 784h20q105 0 158 47q57 50 57 160q0 115 -51 172q-45 49 -121 49q-100 0 -174 -92v191q90 71 211 71q138 0 219 -75q100 -96 100 -291q0 -159 -73 -236q-42 -45 -97 -57q67 -9 121 -59q90 -86 90 -263q0 -214 -118 -329q-92 -90 -246 -90q-132 0 -215 71v193
q86 -88 192 -88q82 0 133 47q64 60 64 192q0 131 -61 185q-51 47 -166 47h-43v155zM561 1579q0 -43 -29.5 -72.5t-72.5 -29.5t-73 29.5t-30 72.5t30 72.5t73 29.5t72.5 -29.5t29.5 -72.5zM258 1579q0 -43 -29.5 -72.5t-72.5 -29.5t-73 29.5t-30 72.5t30 72.5t73 29.5
t72.5 -29.5t29.5 -72.5z" />
    <glyph glyph-name="uni04DF" unicode="&#x4df;" horiz-adv-x="600" 
d="M61 694v172q36 31 72 43q56 21 121 21q127 0 197 -70q65 -65 65 -176q0 -81 -39 -137q-32 -47 -88 -68q65 -21 105 -61q55 -59 55 -154q0 -133 -84 -211q-72 -67 -201 -67q-123 0 -203 57v178q28 -32 64 -51q43 -25 102 -25q68 0 103 35t35 92q0 67 -52 99
q-36 24 -120 24h-37v144h37q80 0 116 36q31 31 31 82q0 56 -37 88q-33 29 -84 29q-55 0 -96 -26q-29 -17 -62 -54zM510 1153q0 -43 -29.5 -72.5t-72.5 -29.5t-73 29.5t-30 72.5t30 72.5t73 29.5t72.5 -29.5t29.5 -72.5zM207 1153q0 -43 -30 -72.5t-73 -29.5t-72.5 29.5
t-29.5 72.5t29.5 72.5t72.5 29.5t73 -29.5t30 -72.5z" />
    <glyph glyph-name="uni04E2" unicode="&#x4e2;" horiz-adv-x="839" 
d="M104 0v1366h181v-559q0 -239 -39 -481q22 72 57.5 198t63.5 213l204 629h164v-1366h-180v608q0 124 37 445q-16 -56 -38 -137.5t-36 -132t-31 -101.5l-219 -682h-164zM649 1499h-459v127h459v-127z" />
    <glyph glyph-name="uni04E3" unicode="&#x4e3;" horiz-adv-x="757" 
d="M96 915h168v-456q0 -49 -6 -166q10 43 51 153l189 469h164v-915h-168v455q0 81 6 161q-14 -61 -56 -167l-184 -449h-164v915zM598 1087h-459v127h459v-127z" />
    <glyph glyph-name="uni04E4" unicode="&#x4e4;" horiz-adv-x="839" 
d="M104 0v1366h181v-559q0 -239 -39 -481q22 72 57.5 198t63.5 213l204 629h164v-1366h-180v608q0 124 37 445q-16 -56 -38 -137.5t-36 -132t-31 -101.5l-219 -682h-164zM674 1579q0 -43 -30 -72.5t-73 -29.5t-72.5 29.5t-29.5 72.5t29.5 72.5t72.5 29.5t73 -29.5t30 -72.5z
M371 1579q0 -43 -30 -72.5t-73 -29.5t-72.5 29.5t-29.5 72.5t29.5 72.5t72.5 29.5t73 -29.5t30 -72.5z" />
    <glyph glyph-name="uni04E5" unicode="&#x4e5;" horiz-adv-x="757" 
d="M96 915h168v-456q0 -49 -6 -166q10 43 51 153l189 469h164v-915h-168v455q0 81 6 161q-14 -61 -56 -167l-184 -449h-164v915zM623 1153q0 -43 -30 -72.5t-73 -29.5t-72.5 29.5t-29.5 72.5t29.5 72.5t72.5 29.5t73 -29.5t30 -72.5zM319 1153q0 -43 -29.5 -72.5
t-72.5 -29.5t-72.5 29.5t-29.5 72.5t29.5 72.5t72.5 29.5t72.5 -29.5t29.5 -72.5z" />
    <glyph glyph-name="uni04E6" unicode="&#x4e6;" horiz-adv-x="866" 
d="M788 682q0 -99 -3.5 -168.5t-15.5 -163.5t-41 -166t-75 -118q-84 -84 -219 -84q-137 0 -221 84q-45 46 -74 118t-41.5 164t-16 163t-3.5 167q0 101 3.5 171t15.5 164.5t41 166.5t75 118q84 84 221 84q135 0 219 -84q45 -45 74 -116.5t41.5 -164.5t16 -165t3.5 -170z
M270 649q0 -389 76 -465q32 -32 88 -32q54 0 86 32q76 76 76 465v103q0 361 -76 432q-33 33 -86 33q-55 0 -88 -33q-76 -71 -76 -432v-103zM678 1579q0 -43 -30 -72.5t-73 -29.5t-72.5 29.5t-29.5 72.5t29.5 72.5t72.5 29.5t73 -29.5t30 -72.5zM375 1579q0 -43 -30 -72.5
t-73 -29.5t-72.5 29.5t-29.5 72.5t29.5 72.5t72.5 29.5t73 -29.5t30 -72.5z" />
    <glyph glyph-name="uni04E7" unicode="&#x4e7;" horiz-adv-x="698" 
d="M461 393v121q0 187 -51 238q-24 24 -58 24q-33 0 -57 -24q-51 -51 -51 -238v-121q0 -174 51 -225q25 -25 57 -25q33 0 58 25q51 51 51 225zM637 457q0 -62 -3.5 -109t-14 -106t-34.5 -107.5t-61 -83.5q-68 -65 -174 -65q-108 0 -176 65q-37 35 -61 83.5t-34.5 107.5
t-14 106t-3.5 109t3.5 109.5t14 106.5t34.5 107.5t61 83.5q69 66 176 66q105 0 174 -66q37 -35 61 -83.5t34.5 -107.5t14 -106.5t3.5 -109.5zM594 1153q0 -43 -29.5 -72.5t-72.5 -29.5t-73 29.5t-30 72.5t30 72.5t73 29.5t72.5 -29.5t29.5 -72.5zM291 1153q0 -43 -30 -72.5
t-73 -29.5t-72.5 29.5t-29.5 72.5t29.5 72.5t72.5 29.5t73 -29.5t30 -72.5z" />
    <glyph glyph-name="uni04E8" unicode="&#x4e8;" horiz-adv-x="866" 
d="M788 676q0 -226 -28 -378.5t-107 -231.5q-84 -84 -219 -84q-137 0 -221 84q-45 45 -74 117t-41.5 164.5t-16 163.5t-3.5 167q0 101 4 175.5t16.5 166t41.5 162.5t73 116q84 84 221 84q135 0 219 -84q78 -79 106.5 -231t28.5 -391zM270 791h326q2 103 -16.5 227.5
t-59.5 165.5q-33 33 -86 33q-55 0 -88 -33q-76 -74 -76 -393zM596 635h-326q-5 -370 76 -451q32 -32 88 -32q54 0 86 32q7 7 14 17t19.5 43.5t21.5 79t15.5 127.5t5.5 184z" />
    <glyph glyph-name="uni04E9" unicode="&#x4e9;" horiz-adv-x="698" 
d="M242 393q0 -57 12 -125.5t41 -99.5q22 -25 57 -25t58 23q28 26 40.5 98t12.5 129h-221zM242 545h221q-9 163 -53 207q-24 24 -58 24q-33 0 -57 -24q-43 -43 -53 -207zM637 457q0 -133 -22 -236t-91 -170q-68 -65 -174 -65q-108 0 -176 65q-64 61 -88.5 160.5t-24.5 239.5
q0 89 6.5 155t33 139.5t73.5 118.5q69 66 176 66q105 0 174 -66q39 -36 63.5 -86t34.5 -111t12.5 -104.5t2.5 -105.5z" />
    <glyph glyph-name="uni04EA" unicode="&#x4ea;" horiz-adv-x="866" 
d="M788 676q0 -226 -28 -378.5t-107 -231.5q-84 -84 -219 -84q-137 0 -221 84q-45 45 -74 117t-41.5 164.5t-16 163.5t-3.5 167q0 101 4 175.5t16.5 166t41.5 162.5t73 116q84 84 221 84q135 0 219 -84q78 -79 106.5 -231t28.5 -391zM270 791h326q2 103 -16.5 227.5
t-59.5 165.5q-33 33 -86 33q-55 0 -88 -33q-76 -74 -76 -393zM596 635h-326q-5 -370 76 -451q32 -32 88 -32q54 0 86 32q7 7 14 17t19.5 43.5t21.5 79t15.5 127.5t5.5 184zM682 1579q0 -43 -29.5 -72.5t-72.5 -29.5t-73 29.5t-30 72.5t30 72.5t73 29.5t72.5 -29.5
t29.5 -72.5zM379 1579q0 -43 -30 -72.5t-73 -29.5t-72.5 29.5t-29.5 72.5t29.5 72.5t72.5 29.5t73 -29.5t30 -72.5z" />
    <glyph glyph-name="uni04EB" unicode="&#x4eb;" horiz-adv-x="698" 
d="M242 393q0 -57 12 -125.5t41 -99.5q22 -25 57 -25t58 23q28 26 40.5 98t12.5 129h-221zM242 545h221q-9 163 -53 207q-24 24 -58 24q-33 0 -57 -24q-43 -43 -53 -207zM637 457q0 -133 -22 -236t-91 -170q-68 -65 -174 -65q-108 0 -176 65q-64 61 -88.5 160.5t-24.5 239.5
q0 89 6.5 155t33 139.5t73.5 118.5q69 66 176 66q105 0 174 -66q39 -36 63.5 -86t34.5 -111t12.5 -104.5t2.5 -105.5zM604 1153q0 -43 -29.5 -72.5t-72.5 -29.5t-73 29.5t-30 72.5t30 72.5t73 29.5t72.5 -29.5t29.5 -72.5zM301 1153q0 -43 -29.5 -72.5t-72.5 -29.5t-73 29.5
t-30 72.5t30 72.5t73 29.5t72.5 -29.5t29.5 -72.5z" />
    <glyph glyph-name="uni04EE" unicode="&#x4ee;" horiz-adv-x="735" 
d="M16 1366h193l84 -322q58 -228 82 -358q34 195 78 363l82 317h184l-375 -1366h-180l125 436zM606 1499h-459v127h459v-127z" />
    <glyph glyph-name="uni04EF" unicode="&#x4ef;" horiz-adv-x="667" 
d="M662 915l-379 -1300h-179l146 459l-244 841h193l133 -639l157 639h173zM563 1087h-459v127h459v-127z" />
    <glyph glyph-name="uni04F0" unicode="&#x4f0;" horiz-adv-x="735" 
d="M16 1366h193l84 -322q58 -228 82 -358q34 195 78 363l82 317h184l-375 -1366h-180l125 436zM633 1579q0 -43 -30 -72.5t-73 -29.5t-72.5 29.5t-29.5 72.5t29.5 72.5t72.5 29.5t73 -29.5t30 -72.5zM330 1579q0 -43 -30 -72.5t-73 -29.5t-72.5 29.5t-29.5 72.5t29.5 72.5
t72.5 29.5t73 -29.5t30 -72.5z" />
    <glyph glyph-name="uni04F1" unicode="&#x4f1;" horiz-adv-x="667" 
d="M662 915l-379 -1300h-179l146 459l-244 841h193l133 -639l157 639h173zM596 1153q0 -43 -29.5 -72.5t-72.5 -29.5t-73 29.5t-30 72.5t30 72.5t73 29.5t72.5 -29.5t29.5 -72.5zM293 1153q0 -43 -30 -72.5t-73 -29.5t-72.5 29.5t-29.5 72.5t29.5 72.5t72.5 29.5t73 -29.5
t30 -72.5z" />
    <glyph glyph-name="uni04F2" unicode="&#x4f2;" horiz-adv-x="735" 
d="M16 1366h193l84 -322q58 -228 82 -358q34 195 78 363l82 317h184l-375 -1366h-180l125 436zM659 1745l-157 -258l-80 43l125 282zM428 1745l-158 -258l-82 43l125 282z" />
    <glyph glyph-name="uni04F3" unicode="&#x4f3;" horiz-adv-x="667" 
d="M662 915l-379 -1300h-179l146 459l-244 841h193l133 -639l157 639h173zM621 1307l-158 -258l-80 43l125 282zM389 1307l-158 -258l-81 43l124 282z" />
    <glyph glyph-name="uni04F4" unicode="&#x4f4;" horiz-adv-x="829" 
d="M725 1366v-1366h-184v653q-68 -16 -148 -16q-131 0 -198 49q-62 43 -82.5 115t-20.5 182v383h187v-389q0 -105 40 -141q33 -31 113 -31q51 0 109 14v547h184zM674 1579q0 -43 -30 -72.5t-73 -29.5t-72.5 29.5t-29.5 72.5t29.5 72.5t72.5 29.5t73 -29.5t30 -72.5z
M371 1579q0 -43 -30 -72.5t-73 -29.5t-72.5 29.5t-29.5 72.5t29.5 72.5t72.5 29.5t73 -29.5t30 -72.5z" />
    <glyph glyph-name="uni04F5" unicode="&#x4f5;" horiz-adv-x="690" 
d="M426 0v399q-64 -22 -135 -22q-111 0 -168 55q-27 26 -42 63.5t-17.5 65t-2.5 68.5v286h164v-268q0 -67 27 -94q25 -25 80 -25q52 0 94 19v368h168v-915h-168zM590 1153q0 -43 -30 -72.5t-73 -29.5t-72.5 29.5t-29.5 72.5t29.5 72.5t72.5 29.5t73 -29.5t30 -72.5z
M287 1153q0 -43 -30 -72.5t-73 -29.5t-72.5 29.5t-29.5 72.5t29.5 72.5t72.5 29.5t73 -29.5t30 -72.5z" />
    <glyph glyph-name="uni04F8" unicode="&#x4f8;" horiz-adv-x="1052" 
d="M946 0h-184v1366h184v-1366zM104 1366h185v-584h20q187 0 277 -90q94 -96 94 -307q0 -215 -90 -305q-80 -80 -232 -80h-254v1366zM289 627v-471h8q32 0 50.5 1.5t47 10.5t47.5 27q52 50 52 188q0 149 -58 203q-45 41 -141 41h-6zM770 1579q0 -43 -29.5 -72.5t-72.5 -29.5
t-73 29.5t-30 72.5t30 72.5t73 29.5t72.5 -29.5t29.5 -72.5zM467 1579q0 -43 -29.5 -72.5t-72.5 -29.5t-73 29.5t-30 72.5t30 72.5t73 29.5t72.5 -29.5t29.5 -72.5z" />
    <glyph glyph-name="uni04F9" unicode="&#x4f9;" horiz-adv-x="942" 
d="M846 0h-168v915h168v-915zM264 915v-350h29q168 0 248 -82q71 -71 71 -209q0 -141 -73 -208q-70 -66 -215 -66h-228v915h168zM264 143h41q72 0 103 29q32 32 32 102q0 74 -37 111t-118 37h-21v-279zM725 1153q0 -43 -29.5 -72.5t-72.5 -29.5t-73 29.5t-30 72.5t30 72.5
t73 29.5t72.5 -29.5t29.5 -72.5zM422 1153q0 -43 -30 -72.5t-73 -29.5t-72.5 29.5t-29.5 72.5t29.5 72.5t72.5 29.5t73 -29.5t30 -72.5z" />
    <glyph glyph-name="uni1E9E" unicode="&#x1e9e;" horiz-adv-x="788" 
d="M106 0v1034q0 44 1 65.5t7 60.5t22 70.5t42 61.5q80 87 213 90q77 2 127.5 -15t95.5 -60q48 -45 62 -113.5t14 -175.5l-151 -225q82 -21 125 -86q47 -73 47 -258q0 -281 -82 -379q-38 -45 -91.5 -57.5t-148.5 -12.5h-6v160q68 0 98 33q11 13 19 34t12 39t6 50t2.5 46.5
t0 51t-0.5 41.5q0 145 -35 196q-31 48 -102 51v111l125 205q4 126 -25 168q-26 41 -88 41q-55 0 -82 -39q-32 -41 -32 -160v-1028h-175z" />
    <glyph glyph-name="uni2010" unicode="&#x2010;" horiz-adv-x="522" 
d="M420 604v-160h-318v160h318z" />
    <glyph glyph-name="uni2011" unicode="&#x2011;" horiz-adv-x="522" 
d="M420 604v-160h-318v160h318z" />
    <glyph glyph-name="figuredash" unicode="&#x2012;" horiz-adv-x="1126" 
d="M983 618h-840v144h840v-144z" />
    <glyph glyph-name="endash" unicode="&#x2013;" horiz-adv-x="1126" 
d="M983 453h-840v143h840v-143z" />
    <glyph glyph-name="emdash" unicode="&#x2014;" horiz-adv-x="1679" 
d="M1536 596v-143h-1393v143h1393z" />
    <glyph glyph-name="afii00208" unicode="&#x2015;" horiz-adv-x="1679" 
d="M1536 596v-143h-1393v143h1393z" />
    <glyph glyph-name="quoteleft" unicode="&#x2018;" horiz-adv-x="403" 
d="M82 1008l160 440l94 -27l-107 -456z" />
    <glyph glyph-name="quoteright" unicode="&#x2019;" horiz-adv-x="403" 
d="M336 1366l-160 -440l-94 26l106 457z" />
    <glyph glyph-name="quotesinglbase" unicode="&#x201a;" horiz-adv-x="403" 
d="M322 147l-160 -440l-94 27l106 456z" />
    <glyph glyph-name="quotedblleft" unicode="&#x201c;" horiz-adv-x="653" 
d="M82 1008l160 440l94 -27l-107 -456zM332 1008l160 440l94 -27l-107 -456z" />
    <glyph glyph-name="quotedblright" unicode="&#x201d;" horiz-adv-x="653" 
d="M586 1366l-160 -440l-94 26l106 457zM336 1366l-160 -440l-94 26l106 457z" />
    <glyph glyph-name="quotedblbase" unicode="&#x201e;" horiz-adv-x="651" 
d="M569 147l-159 -440l-95 27l107 456zM322 147l-160 -440l-94 27l106 456z" />
    <glyph glyph-name="dagger" unicode="&#x2020;" horiz-adv-x="778" 
d="M662 940h-187v-1315h-170v1315h-188v150h188v403h170v-403h187v-150z" />
    <glyph glyph-name="daggerdbl" unicode="&#x2021;" horiz-adv-x="778" 
d="M662 254h-187v-629h-170v629h-188v149h188v527h-188v151h188v412h170v-412h187v-151h-187v-527h187v-149z" />
    <glyph glyph-name="bullet" unicode="&#x2022;" horiz-adv-x="2048" 
d="M1307 696q0 -116 -82.5 -201t-198.5 -85q-118 0 -200.5 84t-82.5 202t82.5 202.5t200.5 84.5q116 0 198.5 -85.5t82.5 -201.5z" />
    <glyph glyph-name="ellipsis" unicode="&#x2026;" horiz-adv-x="1146" 
d="M1065 96q0 -44 -32.5 -77t-76.5 -33q-46 0 -78 32t-32 78q0 44 33 76.5t77 32.5t76.5 -32.5t32.5 -76.5zM682 96q0 -44 -32.5 -77t-76.5 -33t-76 33t-32 77t32 76.5t76 32.5t76.5 -32.5t32.5 -76.5zM301 96q0 -46 -32.5 -78t-78.5 -32q-44 0 -76 33t-32 77t32 76.5
t76 32.5t77.5 -32.5t33.5 -76.5z" />
    <glyph glyph-name="perthousand" unicode="&#x2030;" horiz-adv-x="1540" 
d="M457 1018q0 -55 -3.5 -97.5t-15.5 -91t-33 -80.5t-58.5 -53.5t-88.5 -21.5q-43 0 -75.5 14t-52.5 41t-33.5 58t-20 73.5t-8.5 77.5t-2 80q0 49 2 85.5t8.5 80.5t20 75.5t33.5 59t52.5 41.5t75.5 14q51 0 88.5 -21.5t58.5 -54t33 -82.5t15.5 -95t3.5 -103zM336 975v100
q0 189 -74 189t-74 -168v-133q0 -179 74 -179t74 191zM874 1366l-595 -1366h-113l596 1366h112zM989 334q0 -55 -3.5 -97.5t-15.5 -91t-32.5 -80.5t-58 -53.5t-88.5 -21.5t-87.5 21.5t-56.5 53.5t-31.5 81.5t-14.5 91t-3 96.5q0 59 3 102.5t14.5 94.5t31.5 83t56.5 54
t87.5 22t88.5 -21.5t58 -54t32.5 -82.5t15.5 -94.5t3.5 -103.5zM868 291v100q0 189 -73 189q-74 0 -74 -168v-133q0 -179 74 -179q73 0 73 191zM1475 334q0 -55 -3.5 -97.5t-15.5 -91t-33 -80.5t-58.5 -53.5t-88.5 -21.5t-87.5 21.5t-56.5 53.5t-31.5 81.5t-14.5 91t-3 96.5
q0 59 3 102.5t14.5 94.5t31.5 83t56.5 54t87.5 22t88.5 -21.5t58.5 -54t33 -82.5t15.5 -95t3.5 -103zM1354 291v100q0 189 -74 189t-74 -168v-133q0 -179 74 -179t74 191z" />
    <glyph glyph-name="guilsinglleft" unicode="&#x2039;" horiz-adv-x="452" 
d="M383 829l-207 -350l189 -362l-80 -43l-217 405l235 402z" />
    <glyph glyph-name="guilsinglright" unicode="&#x203a;" horiz-adv-x="452" 
d="M383 479l-215 -405l-80 43l188 362l-208 350l82 52z" />
    <glyph glyph-name="fraction" unicode="&#x2044;" horiz-adv-x="258" 
d="M524 1366l-678 -1366h-112l678 1366h112z" />
    <glyph glyph-name="Euro" unicode="&#x20ac;" horiz-adv-x="778" 
d="M760 20q-39 -24 -69.5 -31t-80.5 -7q-356 0 -407 510h-201l57 135h138q0 92 2 137h-199l59 137h150q59 483 397 483q47 0 79.5 -9t74.5 -32v-165q-66 34 -119 34q-197 0 -238 -311h306l-60 -137h-256q-2 -31 -2 -94v-43h184l-57 -135h-119q40 -330 252 -330q56 0 109 26
v-168z" />
    <glyph glyph-name="uni20B4" unicode="&#x20b4;" horiz-adv-x="778" 
d="M174 1161v176q76 28 88 31q66 16 139 16q128 0 195 -67q76 -79 76 -217q0 -121 -70 -217h125v-127h-197l-81 -107h278v-125h-348q-82 -101 -82 -217q0 -81 45 -119q37 -30 104 -30q49 0 107 22q47 17 84 49v-182q-72 -37 -107 -47q-70 -20 -143 -20q-119 0 -190 75
q-78 81 -78 234q0 136 71 235h-120v125h190l82 107h-272v127h348q74 87 74 182q0 78 -39 117q-37 37 -109 37q-46 0 -98 -21q-34 -12 -72 -37z" />
    <glyph glyph-name="uni20B6" unicode="&#x20b6;" horiz-adv-x="778" 
d="M406 1366q68 0 111 -7.5t89 -35.5q135 -81 135 -338q0 -218 -118 -311q-36 -28 -87 -42.5t-89.5 -17t-98.5 -2.5v-106h225v-125h-225v-381h-184v381h-135v127h135v104h-135v152h135v602h242zM348 764h17q106 0 145 53.5t39 163.5q0 50 -7.5 88.5t-26.5 71.5t-54.5 51
t-87.5 18h-25v-446z" />
    <glyph glyph-name="uni20B6" unicode="&#x20cf;" horiz-adv-x="778" 
d="M406 1366q68 0 111 -7.5t89 -35.5q135 -81 135 -338q0 -218 -118 -311q-36 -28 -87 -42.5t-89.5 -17t-98.5 -2.5v-106h225v-125h-225v-381h-184v381h-135v127h135v104h-135v152h135v602h242zM348 764h17q106 0 145 53.5t39 163.5q0 50 -7.5 88.5t-26.5 71.5t-54.5 51
t-87.5 18h-25v-446z" />
    <glyph glyph-name="uni20B6" unicode="&#x20ce;" horiz-adv-x="778" 
d="M406 1366q68 0 111 -7.5t89 -35.5q135 -81 135 -338q0 -218 -118 -311q-36 -28 -87 -42.5t-89.5 -17t-98.5 -2.5v-106h225v-125h-225v-381h-184v381h-135v127h135v104h-135v152h135v602h242zM348 764h17q106 0 145 53.5t39 163.5q0 50 -7.5 88.5t-26.5 71.5t-54.5 51
t-87.5 18h-25v-446z" />
    <glyph glyph-name="uni20B6" unicode="&#x20cd;" horiz-adv-x="778" 
d="M406 1366q68 0 111 -7.5t89 -35.5q135 -81 135 -338q0 -218 -118 -311q-36 -28 -87 -42.5t-89.5 -17t-98.5 -2.5v-106h225v-125h-225v-381h-184v381h-135v127h135v104h-135v152h135v602h242zM348 764h17q106 0 145 53.5t39 163.5q0 50 -7.5 88.5t-26.5 71.5t-54.5 51
t-87.5 18h-25v-446z" />
    <glyph glyph-name="uni20B6" unicode="&#x20cc;" horiz-adv-x="778" 
d="M406 1366q68 0 111 -7.5t89 -35.5q135 -81 135 -338q0 -218 -118 -311q-36 -28 -87 -42.5t-89.5 -17t-98.5 -2.5v-106h225v-125h-225v-381h-184v381h-135v127h135v104h-135v152h135v602h242zM348 764h17q106 0 145 53.5t39 163.5q0 50 -7.5 88.5t-26.5 71.5t-54.5 51
t-87.5 18h-25v-446z" />
    <glyph glyph-name="uni20B6" unicode="&#x20cb;" horiz-adv-x="778" 
d="M406 1366q68 0 111 -7.5t89 -35.5q135 -81 135 -338q0 -218 -118 -311q-36 -28 -87 -42.5t-89.5 -17t-98.5 -2.5v-106h225v-125h-225v-381h-184v381h-135v127h135v104h-135v152h135v602h242zM348 764h17q106 0 145 53.5t39 163.5q0 50 -7.5 88.5t-26.5 71.5t-54.5 51
t-87.5 18h-25v-446z" />
    <glyph glyph-name="uni20B6" unicode="&#x20ca;" horiz-adv-x="778" 
d="M406 1366q68 0 111 -7.5t89 -35.5q135 -81 135 -338q0 -218 -118 -311q-36 -28 -87 -42.5t-89.5 -17t-98.5 -2.5v-106h225v-125h-225v-381h-184v381h-135v127h135v104h-135v152h135v602h242zM348 764h17q106 0 145 53.5t39 163.5q0 50 -7.5 88.5t-26.5 71.5t-54.5 51
t-87.5 18h-25v-446z" />
    <glyph glyph-name="uni20B6" unicode="&#x20c9;" horiz-adv-x="778" 
d="M406 1366q68 0 111 -7.5t89 -35.5q135 -81 135 -338q0 -218 -118 -311q-36 -28 -87 -42.5t-89.5 -17t-98.5 -2.5v-106h225v-125h-225v-381h-184v381h-135v127h135v104h-135v152h135v602h242zM348 764h17q106 0 145 53.5t39 163.5q0 50 -7.5 88.5t-26.5 71.5t-54.5 51
t-87.5 18h-25v-446z" />
    <glyph glyph-name="uni20B6" unicode="&#x20c8;" horiz-adv-x="778" 
d="M406 1366q68 0 111 -7.5t89 -35.5q135 -81 135 -338q0 -218 -118 -311q-36 -28 -87 -42.5t-89.5 -17t-98.5 -2.5v-106h225v-125h-225v-381h-184v381h-135v127h135v104h-135v152h135v602h242zM348 764h17q106 0 145 53.5t39 163.5q0 50 -7.5 88.5t-26.5 71.5t-54.5 51
t-87.5 18h-25v-446z" />
    <glyph glyph-name="uni20B6" unicode="&#x20c7;" horiz-adv-x="778" 
d="M406 1366q68 0 111 -7.5t89 -35.5q135 -81 135 -338q0 -218 -118 -311q-36 -28 -87 -42.5t-89.5 -17t-98.5 -2.5v-106h225v-125h-225v-381h-184v381h-135v127h135v104h-135v152h135v602h242zM348 764h17q106 0 145 53.5t39 163.5q0 50 -7.5 88.5t-26.5 71.5t-54.5 51
t-87.5 18h-25v-446z" />
    <glyph glyph-name="uni20B6" unicode="&#x20c6;" horiz-adv-x="778" 
d="M406 1366q68 0 111 -7.5t89 -35.5q135 -81 135 -338q0 -218 -118 -311q-36 -28 -87 -42.5t-89.5 -17t-98.5 -2.5v-106h225v-125h-225v-381h-184v381h-135v127h135v104h-135v152h135v602h242zM348 764h17q106 0 145 53.5t39 163.5q0 50 -7.5 88.5t-26.5 71.5t-54.5 51
t-87.5 18h-25v-446z" />
    <glyph glyph-name="uni20B6" unicode="&#x20c5;" horiz-adv-x="778" 
d="M406 1366q68 0 111 -7.5t89 -35.5q135 -81 135 -338q0 -218 -118 -311q-36 -28 -87 -42.5t-89.5 -17t-98.5 -2.5v-106h225v-125h-225v-381h-184v381h-135v127h135v104h-135v152h135v602h242zM348 764h17q106 0 145 53.5t39 163.5q0 50 -7.5 88.5t-26.5 71.5t-54.5 51
t-87.5 18h-25v-446z" />
    <glyph glyph-name="uni20B6" unicode="&#x20c4;" horiz-adv-x="778" 
d="M406 1366q68 0 111 -7.5t89 -35.5q135 -81 135 -338q0 -218 -118 -311q-36 -28 -87 -42.5t-89.5 -17t-98.5 -2.5v-106h225v-125h-225v-381h-184v381h-135v127h135v104h-135v152h135v602h242zM348 764h17q106 0 145 53.5t39 163.5q0 50 -7.5 88.5t-26.5 71.5t-54.5 51
t-87.5 18h-25v-446z" />
    <glyph glyph-name="uni20B6" unicode="&#x20c3;" horiz-adv-x="778" 
d="M406 1366q68 0 111 -7.5t89 -35.5q135 -81 135 -338q0 -218 -118 -311q-36 -28 -87 -42.5t-89.5 -17t-98.5 -2.5v-106h225v-125h-225v-381h-184v381h-135v127h135v104h-135v152h135v602h242zM348 764h17q106 0 145 53.5t39 163.5q0 50 -7.5 88.5t-26.5 71.5t-54.5 51
t-87.5 18h-25v-446z" />
    <glyph glyph-name="uni20B6" unicode="&#x20c2;" horiz-adv-x="778" 
d="M406 1366q68 0 111 -7.5t89 -35.5q135 -81 135 -338q0 -218 -118 -311q-36 -28 -87 -42.5t-89.5 -17t-98.5 -2.5v-106h225v-125h-225v-381h-184v381h-135v127h135v104h-135v152h135v602h242zM348 764h17q106 0 145 53.5t39 163.5q0 50 -7.5 88.5t-26.5 71.5t-54.5 51
t-87.5 18h-25v-446z" />
    <glyph glyph-name="uni20B6" unicode="&#x20c1;" horiz-adv-x="778" 
d="M406 1366q68 0 111 -7.5t89 -35.5q135 -81 135 -338q0 -218 -118 -311q-36 -28 -87 -42.5t-89.5 -17t-98.5 -2.5v-106h225v-125h-225v-381h-184v381h-135v127h135v104h-135v152h135v602h242zM348 764h17q106 0 145 53.5t39 163.5q0 50 -7.5 88.5t-26.5 71.5t-54.5 51
t-87.5 18h-25v-446z" />
    <glyph glyph-name="uni20B6" unicode="&#x20c0;" horiz-adv-x="778" 
d="M406 1366q68 0 111 -7.5t89 -35.5q135 -81 135 -338q0 -218 -118 -311q-36 -28 -87 -42.5t-89.5 -17t-98.5 -2.5v-106h225v-125h-225v-381h-184v381h-135v127h135v104h-135v152h135v602h242zM348 764h17q106 0 145 53.5t39 163.5q0 50 -7.5 88.5t-26.5 71.5t-54.5 51
t-87.5 18h-25v-446z" />
    <glyph glyph-name="uni20B6" unicode="&#x20bf;" horiz-adv-x="778" 
d="M406 1366q68 0 111 -7.5t89 -35.5q135 -81 135 -338q0 -218 -118 -311q-36 -28 -87 -42.5t-89.5 -17t-98.5 -2.5v-106h225v-125h-225v-381h-184v381h-135v127h135v104h-135v152h135v602h242zM348 764h17q106 0 145 53.5t39 163.5q0 50 -7.5 88.5t-26.5 71.5t-54.5 51
t-87.5 18h-25v-446z" />
    <glyph glyph-name="uni20B6" unicode="&#x20be;" horiz-adv-x="778" 
d="M406 1366q68 0 111 -7.5t89 -35.5q135 -81 135 -338q0 -218 -118 -311q-36 -28 -87 -42.5t-89.5 -17t-98.5 -2.5v-106h225v-125h-225v-381h-184v381h-135v127h135v104h-135v152h135v602h242zM348 764h17q106 0 145 53.5t39 163.5q0 50 -7.5 88.5t-26.5 71.5t-54.5 51
t-87.5 18h-25v-446z" />
    <glyph glyph-name="uni20B6" unicode="&#x20bd;" horiz-adv-x="778" 
d="M406 1366q68 0 111 -7.5t89 -35.5q135 -81 135 -338q0 -218 -118 -311q-36 -28 -87 -42.5t-89.5 -17t-98.5 -2.5v-106h225v-125h-225v-381h-184v381h-135v127h135v104h-135v152h135v602h242zM348 764h17q106 0 145 53.5t39 163.5q0 50 -7.5 88.5t-26.5 71.5t-54.5 51
t-87.5 18h-25v-446z" />
    <glyph glyph-name="uni20B6" unicode="&#x20bc;" horiz-adv-x="778" 
d="M406 1366q68 0 111 -7.5t89 -35.5q135 -81 135 -338q0 -218 -118 -311q-36 -28 -87 -42.5t-89.5 -17t-98.5 -2.5v-106h225v-125h-225v-381h-184v381h-135v127h135v104h-135v152h135v602h242zM348 764h17q106 0 145 53.5t39 163.5q0 50 -7.5 88.5t-26.5 71.5t-54.5 51
t-87.5 18h-25v-446z" />
    <glyph glyph-name="uni20B6" unicode="&#x20bb;" horiz-adv-x="778" 
d="M406 1366q68 0 111 -7.5t89 -35.5q135 -81 135 -338q0 -218 -118 -311q-36 -28 -87 -42.5t-89.5 -17t-98.5 -2.5v-106h225v-125h-225v-381h-184v381h-135v127h135v104h-135v152h135v602h242zM348 764h17q106 0 145 53.5t39 163.5q0 50 -7.5 88.5t-26.5 71.5t-54.5 51
t-87.5 18h-25v-446z" />
    <glyph glyph-name="uni20B6" unicode="&#x20ba;" horiz-adv-x="778" 
d="M406 1366q68 0 111 -7.5t89 -35.5q135 -81 135 -338q0 -218 -118 -311q-36 -28 -87 -42.5t-89.5 -17t-98.5 -2.5v-106h225v-125h-225v-381h-184v381h-135v127h135v104h-135v152h135v602h242zM348 764h17q106 0 145 53.5t39 163.5q0 50 -7.5 88.5t-26.5 71.5t-54.5 51
t-87.5 18h-25v-446z" />
    <glyph glyph-name="uni20B6" unicode="&#x20b9;" horiz-adv-x="778" 
d="M406 1366q68 0 111 -7.5t89 -35.5q135 -81 135 -338q0 -218 -118 -311q-36 -28 -87 -42.5t-89.5 -17t-98.5 -2.5v-106h225v-125h-225v-381h-184v381h-135v127h135v104h-135v152h135v602h242zM348 764h17q106 0 145 53.5t39 163.5q0 50 -7.5 88.5t-26.5 71.5t-54.5 51
t-87.5 18h-25v-446z" />
    <glyph glyph-name="uni20B6" unicode="&#x20b7;" horiz-adv-x="778" 
d="M406 1366q68 0 111 -7.5t89 -35.5q135 -81 135 -338q0 -218 -118 -311q-36 -28 -87 -42.5t-89.5 -17t-98.5 -2.5v-106h225v-125h-225v-381h-184v381h-135v127h135v104h-135v152h135v602h242zM348 764h17q106 0 145 53.5t39 163.5q0 50 -7.5 88.5t-26.5 71.5t-54.5 51
t-87.5 18h-25v-446z" />
    <glyph glyph-name="uni20B8" unicode="&#x20b8;" horiz-adv-x="778" 
d="M688 979h-207v-979h-180v979h-213v162h600v-162zM688 1225h-600v141h600v-141z" />
    <glyph glyph-name="afii61352" unicode="&#x2116;" horiz-adv-x="1320" 
d="M741 0h-172q-163 483 -225 678q-39 119 -51 168q-6 26 -20.5 96.5t-24.5 108.5q7 -46 16 -207q15 -257 23 -844h-183v1366h172q9 -25 67.5 -195.5t76.5 -226.5t60 -186t69 -229t51 -201q-43 322 -43 520v518h184v-1366zM1241 1051q0 -318 -188 -318q-49 0 -85.5 21.5
t-57.5 53.5t-33.5 77.5t-16.5 85t-4 84.5q0 44 4 83.5t16.5 84.5t33 77.5t57 54t84.5 21.5q190 0 190 -325zM1235 524h-373v131h373v-131zM1112 1053q0 202 -61 202q-68 0 -68 -204q0 -24 2 -50.5t8 -64t20.5 -61t35.5 -23.5q63 0 63 201z" />
    <glyph glyph-name="uni2117" unicode="&#x2117;" horiz-adv-x="1550" 
d="M602 1096h193q36 0 59.5 -2t59 -15t59.5 -37q55 -55 55 -168q0 -125 -59 -182q-53 -49 -166 -49h-58v-373h-143v826zM745 754h25q63 0 88 20q31 25 31 103q0 69 -25 94q-24 24 -88 24h-31v-241zM1483 682q0 -143 -56 -273.5t-151 -226.5q-97 -97 -227 -153t-275 -56
q-144 0 -273.5 56t-226.5 153q-94 96 -150 226.5t-56 273.5t56 273.5t150 226.5q97 97 226.5 153t273.5 56q145 0 275 -56t227 -153q95 -96 151 -226.5t56 -273.5zM774 1290q-118 0 -226 -45t-194 -131q-176 -181 -176 -432t176 -432q86 -86 194 -131t226 -45q246 0 422 176
q176 181 176 432t-176 432q-176 176 -422 176z" />
    <glyph glyph-name="trademark" unicode="&#x2122;" horiz-adv-x="1015" 
d="M995 588h-125l-30 456l-97 -456h-90q-72 304 -102 467l-31 -467h-121l72 778h109q95 -378 116 -518q4 35 39 205l68 313h112zM379 1262h-129v-674h-127v674h-133v104h389v-104z" />
    <glyph glyph-name="partialdiff" unicode="&#x2202;" 
d="M150 1212l22 148q168 -23 292 -69.5t232 -145.5q131 -120 198 -285.5t67 -349.5q0 -107 -30 -202t-86.5 -168.5t-146 -116.5t-200.5 -43q-125 0 -230 62t-166 168t-61 230q0 120 54 223t152.5 164.5t219.5 61.5q95 0 163 -33t130 -108q-7 14 -20.5 46.5t-24.5 54
t-23 38.5q-74 133 -226 219t-316 106zM780 446q0 134 -80 218t-213 84q-80 0 -144 -45.5t-97 -116.5t-33 -150q0 -125 82 -216t205 -91q125 0 202.5 94.5t77.5 222.5z" />
    <glyph glyph-name="product" unicode="&#x220f;" horiz-adv-x="1441" 
d="M1366 -512h-500v152h168v1744h-626v-1744h165v-152h-497v152h164v1744h-164v152h1290v-152h-162v-1744h162v-152z" />
    <glyph glyph-name="summation" unicode="&#x2211;" horiz-adv-x="1366" 
d="M1251 -512h-1196v170l508 893l-508 817v168h1176v-471h-152l-14 319h-821l514 -833l-516 -911h841l11 319h157v-471z" />
    <glyph glyph-name="minus" unicode="&#x2212;" 
d="M956 606h-888v156h888v-156z" />
    <glyph glyph-name="uni2215" unicode="&#x2215;" horiz-adv-x="813" 
d="M840 1493l-811 -1868h-146l813 1868h144z" />
    <glyph glyph-name="uni2219" unicode="&#x2219;" horiz-adv-x="425" 
d="M344 684q0 -54 -38.5 -92.5t-92.5 -38.5t-92.5 38.5t-38.5 92.5t38.5 92.5t92.5 38.5t92.5 -38.5t38.5 -92.5z" />
    <glyph glyph-name="radical" unicode="&#x221a;" horiz-adv-x="1366" 
d="M1366 1542h-397l-424 -1542h-211l-160 604h-174v150h311q11 -41 35 -123t35 -123q14 -49 27.5 -145.5t25.5 -141.5h12q47 252 164 684l215 789h541v-152z" />
    <glyph glyph-name="infinity" unicode="&#x221e;" horiz-adv-x="1366" 
d="M1329 694q0 -138 -87.5 -226.5t-225.5 -88.5q-188 0 -330 207q-144 -207 -334 -207q-140 0 -227.5 89.5t-87.5 229.5q0 137 89.5 226.5t225.5 89.5q184 0 328 -205q144 205 336 205q138 0 225.5 -90.5t87.5 -229.5zM1157 696q0 71 -47 118.5t-117 47.5q-118 0 -227 -166
q49 -76 103 -122t126 -46q70 0 116 49t46 119zM600 696q-50 75 -104 120.5t-125 45.5t-116.5 -48.5t-45.5 -119.5t47 -118.5t117 -47.5t123.5 46t103.5 122z" />
    <glyph glyph-name="integral" unicode="&#x222b;" 
d="M846 1513l-35 -147q-58 20 -98 20q-19 0 -34.5 -4t-27 -10t-20.5 -17t-14.5 -20t-9.5 -25t-6 -26.5t-2.5 -30t-0.5 -29v-30v-27.5v-1247v-84q0 -87 -12 -146t-43 -106.5t-90 -70.5t-148 -23q-62 0 -127 21l35 147q55 -20 96 -20q25 0 44.5 7.5t32 18t21.5 29t13 34
t5.5 41t1.5 41t-0.5 42.5t-0.5 38v1272q0 156 18 213q27 81 95.5 121.5t158.5 40.5q54 0 148 -23z" />
    <glyph glyph-name="approxequal" unicode="&#x2248;" 
d="M905 1014l101 -60q-53 -108 -124.5 -171.5t-176.5 -63.5q-48 0 -105.5 20t-103 43.5t-102.5 43.5t-103 20q-59 0 -99 -39t-75 -105l-99 64q24 53 48 92t58 76t80 56.5t101 19.5q48 0 108 -20t107 -44.5t104 -44.5t101 -20q45 0 79.5 19.5t55 44.5t45.5 69zM905 659
l101 -57q-112 -237 -301 -237q-47 0 -105.5 20t-105 44.5t-103 44.5t-100.5 20q-59 0 -99 -39t-75 -105l-99 62q24 54 47.5 92t57.5 75t79.5 56.5t100.5 19.5q62 0 140.5 -32.5t153.5 -64.5t128 -32q63 0 102.5 33.5t77.5 99.5z" />
    <glyph glyph-name="notequal" unicode="&#x2260;" 
d="M956 434h-489l-111 -227h-135l109 227h-260v152h327l88 180h-417v152h487l111 227l137 2l-111 -229h264v-152h-333l-86 -180h419v-152z" />
    <glyph glyph-name="lessequal" unicode="&#x2264;" 
d="M956 305l-888 406v143l888 408v-160l-710 -320l708 -319zM956 94h-888v152h888v-152z" />
    <glyph glyph-name="greaterequal" unicode="&#x2265;" 
d="M956 711l-888 -406v158l710 319l-708 320l-2 160l888 -408v-143zM956 94h-888v152h888v-152z" />
    <glyph glyph-name="dotmath" unicode="&#x22c5;" horiz-adv-x="425" 
d="M344 684q0 -54 -38.5 -92.5t-92.5 -38.5t-92.5 38.5t-38.5 92.5t38.5 92.5t92.5 38.5t92.5 -38.5t38.5 -92.5z" />
    <glyph glyph-name="lozenge" unicode="&#x25ca;" horiz-adv-x="1366" 
d="M1214 684l-532 -737l-530 737l530 735zM1020 684l-338 463l-336 -463l336 -463z" />
    <glyph glyph-name="openbullet" unicode="&#x25e6;" 
d="M807 1081q0 -121 -87 -204.5t-208 -83.5t-208 83.5t-87 204.5q0 119 87.5 203t207.5 84t207.5 -84t87.5 -203zM700 1079q0 76 -55.5 130.5t-132.5 54.5q-76 0 -132 -53.5t-56 -129.5q0 -77 55.5 -130.5t132.5 -53.5q76 0 132 53t56 129z" />
    <glyph glyph-name="uniF400" unicode="&#xf400;" horiz-adv-x="4" 
d="M-432 1108l176 264l139 -86l-219 -235z" />
    <glyph glyph-name="uniF401" unicode="&#xf401;" horiz-adv-x="4" 
d="M-453 1546l177 264l139 -86l-219 -235z" />
    <glyph glyph-name="uniF406" unicode="&#xf406;" 
d="M651 1661h113q-10 -94 -81 -142.5t-171 -48.5t-171 48.5t-81 142.5h113q33 -72 139 -72t139 72z" />
    <glyph glyph-name="uniF407" unicode="&#xf407;" 
d="M680 -147l-150 -242l-100 47l111 256z" />
    <glyph glyph-name="uniF408" unicode="&#xf408;" 
d="M737 1559l-84 -70l-141 151l-131 -151l-94 70l227 253z" />
    <glyph glyph-name="uniF409" unicode="&#xf409;" horiz-adv-x="387" 
d="M319 -141l-131 -342l-92 26l76 359z" />
    <glyph glyph-name="uniF40A" unicode="&#xf40a;" horiz-adv-x="401" 
d="M334 1366l-141 -387l-93 27l86 403z" />
    <glyph glyph-name="uniF40B" unicode="&#xf40b;" 
d="M621 1583q0 -44 -32 -75t-77 -31t-77 31t-32 75t32.5 76.5t76.5 32.5t76.5 -32.5t32.5 -76.5z" />
    <glyph glyph-name="uniF40C" unicode="&#xf40c;" 
d="M338 1636q0 74 50 124t124 50t124 -50t50 -124t-50 -124t-124 -50t-124 50t-50 124zM430 1636q0 -35 23.5 -58.5t58.5 -23.5t58.5 23.5t23.5 58.5t-23.5 58.5t-58.5 23.5t-58.5 -23.5t-23.5 -58.5z" />
    <glyph glyph-name="uniF40D" unicode="&#xf40d;" 
d="M639 1669h100q0 -78 -31 -129t-104 -51q-34 0 -87.5 28.5t-80.5 28.5q-41 0 -41 -49h-110q4 76 35.5 128t101.5 52q42 0 99.5 -30.5t80.5 -30.5q9 0 15 3t9.5 9.5t5.5 11.5t4 15.5t3 13.5z" />
    <glyph glyph-name="uniF40E" unicode="&#xf40e;" 
d="M829 -195v-104q-48 -18 -98 -18q-71 0 -119.5 36.5t-48.5 104.5q0 51 25.5 90.5t73.5 85.5h98q-88 -83 -88 -147q0 -31 18.5 -47.5t50.5 -16.5q42 0 88 16z" />
    <glyph glyph-name="uniF4C6" unicode="&#xf4c6;" horiz-adv-x="829" 
d="M725 1366v-1427q0 -105 -20 -164q-28 -80 -94.5 -120t-155.5 -40q-91 0 -158 37v184q76 -45 123 -45q29 0 51 8.5t34.5 26.5t20.5 35t11 46.5t3.5 46.5t0.5 48v651q-68 -16 -148 -16q-131 0 -198 49q-62 43 -82.5 115t-20.5 182v383h187v-389q0 -105 40 -141
q33 -31 113 -31q51 0 109 14v547h184z" />
    <glyph glyph-name="uniF4C7" unicode="&#xf4c7;" horiz-adv-x="690" 
d="M426 -72v471q-64 -22 -135 -22q-111 0 -168 55q-27 26 -42 63.5t-17.5 65t-2.5 68.5v286h164v-268q0 -67 27 -94q25 -25 80 -25q52 0 94 19v368h168v-1005q0 -78 -14 -138t-60 -102q-59 -55 -153 -55q-49 0 -107 20v158q28 -20 70 -20q39 0 63 20q15 14 23 37.5t9 42
t1 55.5z" />
    <glyph glyph-name="uniF4CC" unicode="&#xf4cc;" horiz-adv-x="735" 
d="M16 1366h193l84 -322q58 -228 82 -358q34 195 78 363l82 317h184l-375 -1366h-180l125 436zM287 1546l176 264l139 -86l-219 -235z" />
    <glyph glyph-name="uniF4CD" unicode="&#xf4cd;" horiz-adv-x="667" 
d="M662 915l-379 -1300h-179l146 459l-244 841h193l133 -639l157 639h173zM254 1108l176 264l139 -86l-219 -235z" />
    <glyph glyph-name="dollar.fitted" unicode="&#xf5f5;" horiz-adv-x="681" 
d="M645 1178l-141 -68q-32 127 -158 127q-78 0 -114.5 -53.5t-36.5 -134.5q0 -87 38 -140q28 -40 82.5 -80t106 -68t106 -72t82.5 -91q49 -83 49 -219q0 -172 -67 -277q-18 -29 -40 -50t-50.5 -33.5t-48 -18.5t-52.5 -14v-172h-122v172q-98 14 -153 60.5t-93 152.5l149 71
q23 -65 57 -92.5t101 -27.5q145 0 145 204q0 98 -43 154q-27 34 -131 100q-64 40 -102.5 68t-78 66.5t-60.5 77.5t-34 92.5t-13 119.5q0 140 66.5 240t189.5 110v156h122v-156q93 -11 154 -58.5t90 -145.5z" />
    <glyph glyph-name="Euro.fitted" unicode="&#xf5f6;" horiz-adv-x="815" 
d="M770 20q-40 -24 -69.5 -31t-79.5 -7q-357 0 -408 510h-201l58 135h137q0 92 2 137h-199l60 137h149q59 483 397 483q47 0 79.5 -9t74.5 -32v-165q-66 34 -119 34q-196 0 -237 -311h305l-60 -137h-256q-2 -31 -2 -94v-43h185l-58 -135h-118q40 -330 252 -330q55 0 108 26
v-168z" />
    <glyph glyph-name="cent.fitted" unicode="&#xf5f7;" horiz-adv-x="442" 
d="M410 383v-150q-33 -20 -70 -26v-160h-123v160q-75 18 -123 98q-74 107 -74 371q0 258 74 375q18 29 40.5 49t39 29t43.5 20v188h123v-188q20 -4 70 -23v-161q-31 24 -68 24q-29 0 -52 -12.5t-37.5 -30t-25 -47.5t-15.5 -53.5t-7.5 -59t-3 -54t-0.5 -48.5q0 -319 137 -319
q31 0 72 18z" />
    <glyph glyph-name="sterling.fitted" unicode="&#xf5f8;" horiz-adv-x="739" 
d="M555 197l150 -47q-22 -71 -66 -115q-53 -53 -131 -53q-49 0 -115 30l-49 23q-74 35 -108 35q-27 0 -43 -19q-16 -20 -21 -41l-139 56q18 71 57 114q43 47 107 47q12 0 32 -4q35 63 35 144q0 109 -69 231h-156v125h108q-75 171 -75 307q0 166 96 262q94 90 242 90
q127 0 200 -69q37 -36 58.5 -91t23.5 -110l-143 -68q0 42 -11 86.5t-32 67.5q-33 37 -100 37q-72 0 -119 -47q-49 -51 -49 -144q0 -75 26 -159q8 -26 62 -162h202v-125h-166q50 -127 50 -211q0 -114 -47 -201l28 -14q4 -2 20.5 -10.5t26 -13t24 -9t25.5 -4.5q28 0 46 23
q12 12 20 39z" />
    <glyph glyph-name="yen.fitted" unicode="&#xf5f9;" horiz-adv-x="768" 
d="M743 524h-251v-524h-185v524h-276v125h254l-39 107h-215v127h168l-176 483h196l88 -299q7 -25 24.5 -80.5t27 -87.5t21 -79t17.5 -87q12 75 30.5 165.5t32 146.5t42 170t37.5 151h190l-147 -483h161v-127h-198l-33 -107h231v-125z" />
    <glyph glyph-name="florin.fitted" unicode="&#xf5fa;" horiz-adv-x="849" 
d="M842 1491l-35 -172q-36 22 -72 22q-18 0 -32.5 -6t-24.5 -19.5t-17.5 -25t-13.5 -32.5t-8.5 -32t-6.5 -34.5t-5 -28.5l-49 -248h141l-25 -124h-141l-121 -635q-32 -167 -57 -234q-68 -178 -221 -193q-15 -1 -31 -1q-56 0 -115 22l31 156q47 -15 76 -15q23 0 42 8.5
t32 26.5t22 33.5t16.5 44t10.5 41.5t8 41l135 705h-123l25 124h123l49 248q28 148 51 203q54 129 179 147q22 3 46 3q54 0 111 -25z" />
    <glyph glyph-name="uni20B4.fitted" unicode="&#xf5fb;" horiz-adv-x="741" 
d="M145 1161v176q76 28 88 31q66 16 140 16q127 0 194 -67q76 -79 76 -217q0 -121 -70 -217h125v-127h-196l-82 -107h278v-125h-348q-82 -101 -82 -217q0 -81 45 -119q37 -30 105 -30q48 0 106 22q47 17 84 49v-182q-73 -38 -106 -47q-70 -20 -144 -20q-119 0 -190 75
q-78 81 -78 234q0 134 72 235h-121v125h190l82 107h-272v127h348q74 87 74 182q0 78 -39 117q-37 37 -109 37q-45 0 -98 -21q-34 -12 -72 -37z" />
    <glyph glyph-name="uni20B6.fitted" unicode="&#xf5fc;" horiz-adv-x="774" 
d="M414 1366q68 0 111 -7.5t89 -35.5q136 -82 136 -338q0 -217 -119 -311q-36 -28 -87 -42.5t-89.5 -17t-98.5 -2.5v-106h226v-125h-226v-381h-184v381h-135v127h135v104h-135v152h135v602h242zM356 764h17q106 0 145 53.5t39 163.5q0 50 -7.5 88.5t-26.5 71.5t-54.5 51
t-87.5 18h-25v-446z" />
    <glyph glyph-name="uni20B8.fitted" unicode="&#xf5fd;" horiz-adv-x="632" 
d="M616 979h-206v-979h-181v979h-213v162h600v-162zM616 1225h-600v141h600v-141z" />
    <glyph glyph-name="uniF639" unicode="&#xf639;" horiz-adv-x="718" 
d="M676 743v-27q0 -123 -2 -196.5t-17.5 -185.5t-46.5 -182q-73 -168 -243 -168q-49 0 -90.5 16t-71.5 41t-54 65t-39 78.5t-26 92.5t-16.5 94.5t-8.5 97t-3.5 89t-0.5 79.5v40q1 41 0 88t2.5 98.5t7.5 104t15.5 103.5t26 97t38.5 85t54 68t72.5 45t93.5 16q49 0 90.5 -15.5
t71 -39.5t53 -63.5t39 -77t26.5 -89.5t16.5 -92t8.5 -95t3.5 -87.5t0.5 -79.5zM487 680q0 133 -4 201q-4 163 -24 235q-31 102 -94 103q-111 0 -119 -329v-9q-4 -68 -4 -201q0 -141 4 -211q5 -189 39 -263q30 -63 80 -63q110 0 118 310v6v10q4 70 4 211z" />
    <glyph glyph-name="uniF63A" unicode="&#xf63a;" horiz-adv-x="684" 
d="M53 922v53q0 62 3.5 108t14 96t31.5 84t53 62.5t82 42.5t115 14q297 0 297 -333q0 -235 -225 -652q-116 -215 -127 -239h338v-158h-600q37 86 192 403q10 20 36.5 74.5t39 80t35 74t36 81t30 75.5t28.5 82q33 108 33 185q0 31 -6 59t-19 53.5t-37 40.5t-57 15
q-25 0 -44.5 -10t-32 -24t-21 -38.5t-12 -44t-5 -51t-1.5 -48.5t1.5 -47.5t1.5 -37.5h-180z" />
    <glyph glyph-name="uniF63B" unicode="&#xf63b;" horiz-adv-x="675" 
d="M61 999v33q0 63 6 111.5t24 95t47.5 77t78.5 48.5t115 18q84 0 142 -26t89.5 -76t44.5 -111t13 -143q0 -172 -50 -248q-31 -45 -102 -73q87 -28 125 -91q43 -75 43 -231q0 -91 -15 -159t-50 -124.5t-100 -86t-159 -29.5q-145 0 -211.5 87t-66.5 236q0 23 2 35h172
q0 -7 -1 -21.5t-1 -21.5q0 -62 28.5 -108t86.5 -46q27 0 48 10t34 24t22.5 38.5t14 43.5t7 49.5t3 46.5t0.5 44q0 40 -3 70.5t-13 63t-27.5 53t-48 34t-72.5 13.5q-15 0 -47 -4v160q70 0 110.5 10t63 39t29 68t6.5 110q0 205 -109 205q-25 0 -44 -9t-30 -28.5t-17.5 -37
t-9 -47t-3 -44.5t-0.5 -45v-13h-175z" />
    <glyph glyph-name="uniF63C" unicode="&#xf63c;" horiz-adv-x="669" 
d="M639 346h-86v-346h-172v346h-373v156l373 864h172v-881h86v-139zM381 485v566l-240 -566h240z" />
    <glyph glyph-name="uniF63D" unicode="&#xf63d;" horiz-adv-x="655" 
d="M311 1206l-45 -342q357 0 357 -391q0 -76 -12 -144t-40 -132t-70.5 -110.5t-107.5 -74.5t-147 -28q-58 0 -105 13.5t-112 43.5l45 162q90 -49 159 -49q55 0 95 29.5t60.5 77.5t30 97t9.5 99q0 262 -225 262q-48 0 -111 -17l78 664h434v-160h-293z" />
    <glyph glyph-name="uniF63E" unicode="&#xf63e;" horiz-adv-x="645" 
d="M307 1366h195q-28 -60 -127 -264q-62 -129 -139 -324q39 33 71 47.5t76 14.5q62 0 111 -33t77 -90q45 -90 45 -314q0 -72 -5 -125t-22.5 -111.5t-47.5 -96t-84 -62t-129 -24.5q-57 0 -102.5 15t-76 39.5t-53 62.5t-35 76t-19.5 89t-9 91.5t-2 93.5q0 104 15 204.5t36 180
t61.5 179.5t73.5 169t90 182zM440 408q0 141 -24 202q-14 33 -34.5 47.5t-55.5 14.5q-65 0 -88 -62q-27 -72 -27 -198q0 -269 115 -269q27 0 47.5 13.5t32.5 39t19.5 50t10.5 60t3.5 55t0.5 47.5z" />
    <glyph glyph-name="uniF63F" unicode="&#xf63f;" horiz-adv-x="653" 
d="M645 1366l-414 -1366h-196l379 1210h-379v156h610z" />
    <glyph glyph-name="uniF640" unicode="&#xf640;" horiz-adv-x="667" 
d="M629 383q0 -66 -7 -120t-27 -107.5t-52 -90t-85.5 -59t-123.5 -22.5q-74 0 -128.5 24.5t-86 63t-50 96.5t-24.5 113t-6 125q0 183 57 266q35 47 105 69q-41 16 -64.5 34.5t-42.5 53.5q-43 77 -43 218q0 177 78 266q37 41 90.5 55t124.5 14q79 0 133.5 -25.5t84 -73.5
t42 -105.5t12.5 -133.5q0 -138 -43 -215q-19 -35 -42 -53.5t-62 -34.5q37 -13 59.5 -27.5t42.5 -41.5q26 -36 40 -92t16 -95t2 -102zM434 1032q0 191 -100 191q-32 0 -53.5 -19.5t-31 -52t-13 -60.5t-3.5 -59t3.5 -61.5t13 -67.5t31 -59.5t53.5 -22.5q100 0 100 211z
M446 401q0 34 -1 56t-7 61t-16.5 62.5t-33 42t-54.5 18.5q-21 0 -38.5 -7t-29 -23.5t-20 -30.5t-13 -41t-7.5 -41t-4 -45.5t-1 -38.5v-35q0 -234 113 -234q23 0 41.5 10t30 23.5t20 37.5t12 42t6 48t2.5 44.5v40.5v10z" />
    <glyph glyph-name="uniF641" unicode="&#xf641;" horiz-adv-x="643" 
d="M332 0h-197q30 63 87.5 178.5t102.5 211t81 183.5q-36 -29 -67 -42t-73 -13q-115 0 -180 100q-57 90 -57 306q0 52 2 92t9 90.5t19 87t34 74t52 61t75 38.5t102 15q66 0 116 -19t81 -56t51 -78t29 -100t12 -105.5t3 -108.5q0 -196 -47.5 -361t-146.5 -372
q-72 -152 -88 -182zM434 952q0 30 -0.5 48.5t-3.5 54t-10.5 59.5t-19.5 49t-33 38t-48 13q-24 0 -42.5 -11t-30.5 -26.5t-20 -42t-12 -47t-6.5 -53t-2.5 -48v-42.5v-10q0 -35 1 -58t7 -64t17 -66t34 -44.5t55 -19.5q28 0 48.5 12.5t32.5 37.5t19.5 48t10.5 59t3.5 55t0.5 50
v8z" />
    <glyph glyph-name="uniF6BA" unicode="&#xf6ba;" horiz-adv-x="522" 
d="M420 770v-160h-318v160h318z" />
    <glyph glyph-name="uniF6BB" unicode="&#xf6bb;" horiz-adv-x="1126" 
d="M983 618h-840v144h840v-144z" />
    </font>
</defs>
</svg>
